<?xml version="1.0" encoding="UTF-8" standalone="no"?>
<!-- Created with Inkscape (http://www.inkscape.org/) -->

<svg
   xmlns:dc="http://purl.org/dc/elements/1.1/"
   xmlns:cc="http://creativecommons.org/ns#"
   xmlns:rdf="http://www.w3.org/1999/02/22-rdf-syntax-ns#"
   xmlns:svg="http://www.w3.org/2000/svg"
   xmlns="http://www.w3.org/2000/svg"
   xmlns:sodipodi="http://sodipodi.sourceforge.net/DTD/sodipodi-0.dtd"
   xmlns:inkscape="http://www.inkscape.org/namespaces/inkscape"
   width="70.555565mm"
   height="70.555565mm"
   viewBox="0 0 250.00003 250.00003"
   id="svg6191"
   version="1.1"
   inkscape:version="0.91 r13725"
   sodipodi:docname="image-processing-backup.svg">
  <defs
     id="defs6193">
    <clipPath
       clipPathUnits="userSpaceOnUse"
       id="clipPath7452">
      <rect
         style="opacity:1;fill:none;fill-opacity:1;stroke:#fe0ecb;stroke-width:1.5;stroke-linejoin:miter;stroke-miterlimit:4;stroke-dasharray:none;stroke-dashoffset:0;stroke-opacity:1"
         id="rect7454"
         width="103.75"
         height="99.464279"
         x="180.53571"
         y="96.469345" />
    </clipPath>
    <clipPath
       clipPathUnits="userSpaceOnUse"
       id="clipPath7487">
      <rect
         style="opacity:1;fill:none;fill-opacity:1;stroke:#fe0ecb;stroke-width:1.43698597;stroke-linejoin:miter;stroke-miterlimit:4;stroke-dasharray:none;stroke-dashoffset:0;stroke-opacity:1"
         id="rect7489"
         width="96.088936"
         height="98.560852"
         x="317.88495"
         y="97.029572" />
    </clipPath>
    <clipPath
       clipPathUnits="userSpaceOnUse"
       id="clipPath7522">
      <rect
         style="opacity:1;fill:none;fill-opacity:1;stroke:#000000;stroke-width:3.28867936;stroke-linejoin:miter;stroke-miterlimit:4;stroke-dasharray:13.15471712, 13.15471712;stroke-dashoffset:0;stroke-opacity:1"
         id="rect7524"
         width="95.232605"
         height="98.000999"
         x="185.14499"
         y="96.549194" />
    </clipPath>
  </defs>
  <sodipodi:namedview
     id="base"
     pagecolor="#ffffff"
     bordercolor="#666666"
     borderopacity="1.0"
     inkscape:pageopacity="0.0"
     inkscape:pageshadow="2"
     inkscape:zoom="1.4"
     inkscape:cx="128.23729"
     inkscape:cy="141.05696"
     inkscape:document-units="px"
     inkscape:current-layer="layer1"
     showgrid="false"
     fit-margin-top="0"
     fit-margin-left="0"
     fit-margin-right="0"
     fit-margin-bottom="0"
     inkscape:window-width="1280"
     inkscape:window-height="657"
     inkscape:window-x="-8"
     inkscape:window-y="-8"
     inkscape:window-maximized="1" />
  <metadata
     id="metadata6196">
    <rdf:RDF>
      <cc:Work
         rdf:about="">
        <dc:format>image/svg+xml</dc:format>
        <dc:type
           rdf:resource="http://purl.org/dc/dcmitype/StillImage" />
        <dc:title></dc:title>
      </cc:Work>
    </rdf:RDF>
  </metadata>
  <g
     inkscape:label="Layer 1"
     inkscape:groupmode="layer"
     id="layer1"
     transform="translate(-60.714275,-75.933617)">
    <circle
       style="opacity:1;fill:none;fill-opacity:1;stroke:#000000;stroke-width:1.64757729;stroke-miterlimit:4;stroke-dasharray:none;stroke-opacity:1"
       id="path5081-7-8"
       cx="123.57143"
       cy="125.93364"
       r="25.890501" />
    <circle
       style="opacity:0.77399998;fill:#bdffff;fill-opacity:1;stroke:#000000;stroke-width:1;stroke-miterlimit:4.19999981;stroke-dasharray:none;stroke-opacity:1"
       id="path5081-8-63-6"
       cx="120.8531"
       cy="129.59396"
       r="20.05242" />
    <path
       style="opacity:1;fill:#ffffff;fill-opacity:1;stroke:#000000;stroke-width:2.00000024;stroke-miterlimit:4;stroke-dasharray:none;stroke-opacity:1"
       d="m 201.8274,125.93365 -29.08339,0"
       id="rect5736-6"
       inkscape:connector-curvature="0"
       sodipodi:nodetypes="cc" />
    <path
       style="opacity:1;fill:#ffffff;fill-opacity:1;stroke:#000000;stroke-width:2.00000024;stroke-miterlimit:4;stroke-dasharray:none;stroke-opacity:1"
       d="m 187.2857,141.01105 0,-29.08339"
       id="rect5736-6-6"
       inkscape:connector-curvature="0"
       sodipodi:nodetypes="cc" />
    <g
       transform="matrix(0.37810336,0,0,0.37810336,164.57171,49.547973)"
       id="Layer_2"
       style="fill:#15b2a2;fill-opacity:1">
      <polygon
         points="259.75,168 242.25,196 274.25,196 289.25,175 299.25,183 289.75,196 308.25,196 308.25,211.5 290.75,211.5 299.25,225 289.75,233.5 273.75,211.5 242.75,211.5 258.75,239.5 283.75,242.5 284.25,254.5 267.25,254.5 275.25,269 262.75,277.5 252.75,262 245.25,277.5 233.75,271 245.25,247.5 229.75,219.5 213.25,247 224.25,270.5 212.75,277.5 204.75,261 196.25,277.5 182.25,269 191.75,253.5 172.25,254 172.25,242 199.25,240 215.25,211.5 184.75,211 169.25,233.5 158.25,226 168.25,211.5 148.75,211.5 148.75,196.5 169.25,197.5 158.75,181 169.25,174 183.75,196.5 216.25,197 200.25,169 172.25,167 174.75,154 191.25,155.5 182.25,138.5 195.25,130.5 205.25,147 212.75,130.5 224.75,138.75 213.75,161.5 229.25,188.5 245.25,159.5 233.25,138 245.25,130.5 252.75,147 262.75,130.5 275.75,138.5 266.75,154 283.75,153.5 283.75,167.5 "
         id="polygon8"
         style="fill:#15b2a2;fill-opacity:1" />
    </g>
    <rect
       style="opacity:1;fill:none;fill-opacity:1;stroke:#000000;stroke-width:1.55895925;stroke-linejoin:miter;stroke-miterlimit:4;stroke-dasharray:6.23583691, 6.23583691;stroke-dashoffset:0;stroke-opacity:1"
       id="rect6297"
       width="215.10353"
       height="83.278625"
       x="80.906197"
       y="86.556976" />
    <circle
       style="opacity:0.77399998;fill:#bdffff;fill-opacity:1;stroke:#000000;stroke-width:1;stroke-miterlimit:4.19999981;stroke-dasharray:none;stroke-opacity:1"
       id="path5081-8-63-6-0"
       cx="134.10713"
       cy="108.96935"
       r="6.2413249" />
    <path
       style="opacity:1;fill:#ffffff;fill-opacity:1;stroke:#000000;stroke-width:2;stroke-miterlimit:4;stroke-dasharray:none;stroke-opacity:1"
       d="m 186.38645,302.64794 -108.369104,0"
       id="rect5736-0"
       inkscape:connector-curvature="0"
       sodipodi:nodetypes="cc" />
    <path
       sodipodi:type="star"
       style="opacity:1;fill:#000000;fill-opacity:1;stroke:#000000;stroke-width:1.18274856;stroke-linejoin:miter;stroke-miterlimit:4;stroke-dasharray:none;stroke-opacity:1"
       id="path5741-6-8"
       sodipodi:sides="3"
       sodipodi:cx="114.28571"
       sodipodi:cy="72.857132"
       sodipodi:r1="12.75005"
       sodipodi:r2="6.3750248"
       sodipodi:arg1="-1.0471976"
       sodipodi:arg2="0"
       inkscape:flatsided="false"
       inkscape:rounded="0"
       inkscape:randomized="0"
       d="m 120.66074,61.815265 0,11.041867 0,11.041866 -9.56254,-5.520933 -9.56254,-5.520932 9.56254,-5.520934 z"
       inkscape:transform-center-x="-2.0829597"
       transform="matrix(-0.65347331,0,0,0.45513414,258.8463,269.48817)" />
    <path
       style="opacity:1;fill:#ffffff;fill-opacity:1;stroke:#000000;stroke-width:2;stroke-miterlimit:4;stroke-dasharray:none;stroke-opacity:1"
       d="m 89.18497,209.73216 0,102.29767"
       id="rect5736-0-1"
       inkscape:connector-curvature="0"
       sodipodi:nodetypes="cc" />
    <path
       sodipodi:type="star"
       style="opacity:1;fill:#000000;fill-opacity:1;stroke:#000000;stroke-width:1.18274856;stroke-linejoin:miter;stroke-miterlimit:4;stroke-dasharray:none;stroke-opacity:1"
       id="path5741-6-8-5"
       sodipodi:sides="3"
       sodipodi:cx="114.28571"
       sodipodi:cy="72.857132"
       sodipodi:r1="12.75005"
       sodipodi:r2="6.3750248"
       sodipodi:arg1="-1.0471976"
       sodipodi:arg2="0"
       inkscape:flatsided="false"
       inkscape:rounded="0"
       inkscape:randomized="0"
       d="m 120.66074,61.815265 0,11.041867 0,11.041866 -9.56254,-5.520933 -9.56254,-5.520932 9.56254,-5.520934 z"
       transform="matrix(0,0.65347331,0.45513414,0,56.0252,133.20089)"
       inkscape:transform-center-x="-2.0829597" />
    <rect
       style="opacity:1;fill:#f4d5b0;fill-opacity:1;stroke:#000000;stroke-width:1;stroke-linejoin:miter;stroke-miterlimit:4;stroke-dasharray:none;stroke-dashoffset:0;stroke-opacity:1"
       id="rect7765"
       width="28.429159"
       height="23.883471"
       x="200.77383"
       y="197.53122" />
    <rect
       style="opacity:1;fill:#bdffff;fill-opacity:1;stroke:#000000;stroke-width:1;stroke-linejoin:miter;stroke-miterlimit:4;stroke-dasharray:none;stroke-dashoffset:0;stroke-opacity:1"
       id="rect7765-7"
       width="28.429159"
       height="23.883471"
       x="200.77383"
       y="240.06805" />
    <text
       xml:space="preserve"
       style="font-style:normal;font-weight:normal;font-size:40px;line-height:125%;font-family:sans-serif;letter-spacing:0px;word-spacing:0px;fill:#000000;fill-opacity:1;stroke:none;stroke-width:1px;stroke-linecap:butt;stroke-linejoin:miter;stroke-opacity:1"
       x="237.96246"
       y="204.73566"
       id="text7782"
       sodipodi:linespacing="125%"><tspan
         sodipodi:role="line"
         id="tspan7784"
         x="237.96246"
         y="204.73566"
         style="font-size:15px">freezing </tspan><tspan
         sodipodi:role="line"
         x="237.96246"
         y="223.48566"
         style="font-size:15px"
         id="tspan7786">damage</tspan></text>
    <text
       xml:space="preserve"
       style="font-style:normal;font-weight:normal;font-size:40px;line-height:125%;font-family:sans-serif;letter-spacing:0px;word-spacing:0px;fill:#000000;fill-opacity:1;stroke:none;stroke-width:1px;stroke-linecap:butt;stroke-linejoin:miter;stroke-opacity:1"
       x="237.10553"
       y="256.86115"
       id="text7782-4"
       sodipodi:linespacing="125%"><tspan
         sodipodi:role="line"
         x="237.10553"
         y="256.86115"
         style="font-size:15px"
         id="tspan7786-9">healthy</tspan></text>
    <path
       style="fill:none;fill-rule:evenodd;stroke:#1850b0;stroke-width:1px;stroke-linecap:butt;stroke-linejoin:miter;stroke-opacity:0"
       d="m 90.594995,245.04023 c 1.658085,-2.21078 0.919991,-1.42507 2.020305,-2.52538 0.16836,-0.16836 0.29212,-0.3986 0.50508,-0.50508 0.15058,-0.0753 0.35449,0.0753 0.50507,0 0.21296,-0.10648 0.33672,-0.33672 0.50508,-0.50508 0.33672,-0.16836 0.65636,-0.37642 1.01015,-0.50507 4.49907,-1.63603 3.72559,-1.51523 7.07107,-1.51523 0.23042,0 2.42666,-0.0658 2.52538,0 0.39622,0.26414 0.67344,0.67343 1.01015,1.01015 0.16836,0.16836 0.29212,0.3986 0.50508,0.50508 0.15059,0.0753 0.35449,-0.0753 0.50508,0 0.0967,0.0483 1.97196,1.92362 2.0203,2.0203 0.15059,0.30117 -0.23809,0.77206 0,1.01015 0.11905,0.11905 0.38603,-0.11904 0.50508,0 0.11905,0.11905 0,0.33672 0,0.50508 0.16836,0.16836 0.30697,0.37301 0.50507,0.50508 0.31324,0.20882 0.74396,0.23887 1.01016,0.50507 0.11904,0.11905 -0.0753,0.35449 0,0.50508 0.10648,0.21296 0.39859,0.29212 0.50507,0.50508 0.0753,0.15058 -0.0753,0.35449 0,0.50507 0.10648,0.21296 0.42979,0.2792 0.50508,0.50508 7.6e-4,0.002 -4.8e-4,1.51474 0,1.51523 0.11905,0.11904 0.42978,-0.15059 0.50508,0 0.15058,0.30117 -0.10648,0.69071 0,1.01015 0.0753,0.22588 0.39859,0.29212 0.50507,0.50508 0.0753,0.15058 -0.0753,0.35449 0,0.50507 0.10648,0.21296 0.3986,0.29212 0.50508,0.50508 0.15058,0.30117 -0.18678,0.72998 0,1.01015 0.26414,0.39622 0.74601,0.61394 1.01015,1.01015 0.16465,0.24698 -0.14698,1.87333 0,2.02031 0.11905,0.11905 0.38603,-0.11905 0.50508,0 0.23809,0.23809 -0.15059,0.70898 0,1.01015 0.10648,0.21296 0.39859,0.29212 0.50507,0.50508 0.0753,0.15058 -0.11904,0.38603 0,0.50507 0.11905,0.11905 0.42979,-0.15058 0.50508,0 0.22588,0.45176 -0.22588,1.06348 0,1.51523 0.10648,0.21296 0.33672,0.33672 0.50508,0.50508 0.33671,0.33672 0.74601,0.61394 1.01015,1.01015 0.18678,0.28017 -0.2381,0.77206 0,1.01015 0.2662,0.2662 0.74395,0.23888 1.01015,0.50508 0.11905,0.11905 -0.0753,0.35449 0,0.50508 0.53706,1.07412 0.47309,-0.064 1.01015,1.01015 0.0753,0.15058 -0.0753,0.35449 0,0.50507 0.10648,0.21296 0.3986,0.29212 0.50508,0.50508 0.0753,0.15059 -0.0753,0.35449 0,0.50508 1.15577,2.31153 -0.20934,-2.14325 1.01015,1.51523 0.0532,0.15972 -0.0753,0.35449 0,0.50507 0.30305,0.60609 1.21219,0.90914 1.51523,1.51523 0.13771,0.27541 -0.13823,1.81295 0,2.02031 0.26414,0.39621 0.67344,0.67343 1.01015,1.01015 0.16836,0.16836 0.3986,0.29212 0.50508,0.50508 0.15058,0.30116 -0.10648,0.69071 0,1.01015 0.16836,0.33672 0.33672,0.67343 0.50508,1.01015 0.16836,0 0.38602,-0.11905 0.50507,0 0.11905,0.11905 -0.0532,0.34536 0,0.50508 0.11905,0.35714 0.38603,0.65301 0.50508,1.01015 0.0532,0.15972 -0.0753,0.35449 0,0.50508 1.051,2.102 -0.0349,-0.53995 1.01015,0.50507 0,0.74317 -0.11905,0.38603 0.50508,1.01015 0.16836,0.16836 0.33672,0.33672 0.50507,0.50508 0.16836,0 0.38603,-0.11905 0.50508,0 1.04502,1.04502 -1.59693,-0.0409 0.50508,1.01015 0.15058,0.0753 0.35449,-0.0753 0.50507,0 2.31154,1.15577 -2.14325,-0.20934 1.51523,1.01016 0.31944,0.10648 0.68349,-0.0817 1.01015,0 0.51651,0.12912 0.99317,0.40066 1.51523,0.50507 0.33018,0.066 0.68349,-0.0817 1.01016,0 0.36522,0.0913 0.65301,0.38603 1.01015,0.50508 0.15972,0.0532 0.34536,-0.0532 0.50507,0 0.35715,0.11905 0.64266,0.42341 1.01016,0.50507 1.16212,0.25825 2.3734,0.24683 3.53553,0.50508 0.73499,0.16333 1.30602,0.77206 2.02031,1.01015 0.31789,0.10597 2.07012,0 2.52538,0 0.16836,0 0.34535,-0.0532 0.50507,0 0.35715,0.11905 0.65301,0.38603 1.01016,0.50508 0.31943,0.10648 0.69071,-0.10648 1.01015,0 0.35714,0.11905 0.65301,0.38603 1.01015,0.50508 0.15972,0.0532 0.33672,0 0.50508,0 0.50507,0 1.01015,0 1.51523,0 1.51522,0 3.03046,0 4.54569,0 1.34687,0 2.69374,0 4.04061,0 0.43769,0 1.72772,0.0975 2.0203,0 0.35715,-0.11905 0.65301,-0.38603 1.01015,-0.50508 0.15972,-0.0532 0.34536,0.0532 0.50508,0 0.35714,-0.11905 0.64493,-0.41377 1.01015,-0.50508 0.32667,-0.0817 0.69072,0.10648 1.01016,0 0.45175,-0.15058 0.58423,-0.79719 1.01015,-1.01015 0.30117,-0.15058 0.72999,0.18678 1.01015,0 0.39622,-0.26414 0.61394,-0.74601 1.01015,-1.01015 0.14009,-0.0934 0.33672,0 0.50508,0 0.33672,0 0.69071,0.10648 1.01015,0 0.22588,-0.0753 0.29212,-0.3986 0.50508,-0.50508 0.30669,-0.15334 2.72376,0.15335 3.03046,0 0.21296,-0.10648 0.29211,-0.39859 0.50507,-0.50507 0.30117,-0.15059 0.77206,0.23809 1.01016,0 0.11904,-0.11905 -0.16836,-0.50508 0,-0.50508 0.16835,0 0,0.33672 0,0.50508"
       id="path7811"
       inkscape:connector-curvature="0" />
    <path
       style="fill:none;fill-rule:evenodd;stroke:#4ec0c0;stroke-width:3;stroke-linecap:butt;stroke-linejoin:miter;stroke-opacity:1;stroke-miterlimit:4;stroke-dasharray:none"
       d="m 89.503623,275.9311 c 32.361207,-3.07546 59.295927,-30.80965 90.913727,-30.80965"
       id="path7825"
       inkscape:connector-curvature="0" />
    <path
       style="fill:none;fill-rule:evenodd;stroke:#f7c462;stroke-width:3;stroke-linecap:butt;stroke-linejoin:miter;stroke-opacity:1;stroke-miterlimit:4;stroke-dasharray:none"
       d="m 90.008699,241.08084 c 43.059731,-10.69642 50.229261,64.42305 90.408651,24.24366"
       id="path7827"
       inkscape:connector-curvature="0" />
  </g>
</svg>
