<?xml version="1.0" encoding="UTF-8" standalone="no"?>
<!-- Created with Inkscape (http://www.inkscape.org/) -->

<svg
   xmlns:dc="http://purl.org/dc/elements/1.1/"
   xmlns:cc="http://creativecommons.org/ns#"
   xmlns:rdf="http://www.w3.org/1999/02/22-rdf-syntax-ns#"
   xmlns:svg="http://www.w3.org/2000/svg"
   xmlns="http://www.w3.org/2000/svg"
   xmlns:sodipodi="http://sodipodi.sourceforge.net/DTD/sodipodi-0.dtd"
   xmlns:inkscape="http://www.inkscape.org/namespaces/inkscape"
   width="70.555565mm"
   height="70.555565mm"
   viewBox="0 0 250.00003 250.00003"
   id="svg6191"
   version="1.1"
   inkscape:version="0.91 r13725"
   sodipodi:docname="image-processing.svg">
  <defs
     id="defs6193">
    <clipPath
       clipPathUnits="userSpaceOnUse"
       id="clipPath7452">
      <rect
         style="opacity:1;fill:none;fill-opacity:1;stroke:#fe0ecb;stroke-width:1.5;stroke-linejoin:miter;stroke-miterlimit:4;stroke-dasharray:none;stroke-dashoffset:0;stroke-opacity:1"
         id="rect7454"
         width="103.75"
         height="99.464279"
         x="180.53571"
         y="96.469345" />
    </clipPath>
    <clipPath
       clipPathUnits="userSpaceOnUse"
       id="clipPath7487">
      <rect
         style="opacity:1;fill:none;fill-opacity:1;stroke:#fe0ecb;stroke-width:1.43698597;stroke-linejoin:miter;stroke-miterlimit:4;stroke-dasharray:none;stroke-dashoffset:0;stroke-opacity:1"
         id="rect7489"
         width="96.088936"
         height="98.560852"
         x="317.88495"
         y="97.029572" />
    </clipPath>
    <clipPath
       clipPathUnits="userSpaceOnUse"
       id="clipPath7522">
      <rect
         style="opacity:1;fill:none;fill-opacity:1;stroke:#000000;stroke-width:3.28867936;stroke-linejoin:miter;stroke-miterlimit:4;stroke-dasharray:13.15471712, 13.15471712;stroke-dashoffset:0;stroke-opacity:1"
         id="rect7524"
         width="95.232605"
         height="98.000999"
         x="185.14499"
         y="96.549194" />
    </clipPath>
  </defs>
  <sodipodi:namedview
     id="base"
     pagecolor="#ffffff"
     bordercolor="#666666"
     borderopacity="1.0"
     inkscape:pageopacity="0.0"
     inkscape:pageshadow="2"
     inkscape:zoom="1.4"
     inkscape:cx="128.23729"
     inkscape:cy="141.05696"
     inkscape:document-units="px"
     inkscape:current-layer="layer1"
     showgrid="false"
     fit-margin-top="0"
     fit-margin-left="0"
     fit-margin-right="0"
     fit-margin-bottom="0"
     inkscape:window-width="1280"
     inkscape:window-height="657"
     inkscape:window-x="-8"
     inkscape:window-y="-8"
     inkscape:window-maximized="1" />
  <metadata
     id="metadata6196">
    <rdf:RDF>
      <cc:Work
         rdf:about="">
        <dc:format>image/svg+xml</dc:format>
        <dc:type
           rdf:resource="http://purl.org/dc/dcmitype/StillImage" />
        <dc:title></dc:title>
      </cc:Work>
    </rdf:RDF>
  </metadata>
  <g
     inkscape:label="Layer 1"
     inkscape:groupmode="layer"
     id="layer1"
     transform="translate(-60.714275,-75.933617)">
    <circle
       style="opacity:1;fill:none;fill-opacity:1;stroke:#000000;stroke-width:1.64757729;stroke-miterlimit:4;stroke-dasharray:none;stroke-opacity:1"
       id="path5081-7-8"
       cx="121.42857"
       cy="190.07649"
       r="25.890501" />
    <circle
       style="opacity:0.77399998;fill:#bdffff;fill-opacity:1;stroke:#000000;stroke-width:1;stroke-miterlimit:4.19999981;stroke-dasharray:none;stroke-opacity:1"
       id="path5081-8-63-6"
       cx="118.71024"
       cy="193.73682"
       r="20.05242" />
    <path
       style="opacity:1;fill:#ffffff;fill-opacity:1;stroke:#000000;stroke-width:2.00000024;stroke-miterlimit:4;stroke-dasharray:none;stroke-opacity:1"
       d="m 199.68454,188.07651 -29.08339,0"
       id="rect5736-6"
       inkscape:connector-curvature="0"
       sodipodi:nodetypes="cc" />
    <path
       style="opacity:1;fill:#ffffff;fill-opacity:1;stroke:#000000;stroke-width:2.00000024;stroke-miterlimit:4;stroke-dasharray:none;stroke-opacity:1"
       d="m 185.14284,203.15391 0,-29.08339"
       id="rect5736-6-6"
       inkscape:connector-curvature="0"
       sodipodi:nodetypes="cc" />
    <g
       transform="matrix(0.37810336,0,0,0.37810336,162.42885,111.69083)"
       id="Layer_2"
       style="fill:#15b2a2;fill-opacity:1">
      <polygon
         points="242.25,196 274.25,196 289.25,175 299.25,183 289.75,196 308.25,196 308.25,211.5 290.75,211.5 299.25,225 289.75,233.5 273.75,211.5 242.75,211.5 258.75,239.5 283.75,242.5 284.25,254.5 267.25,254.5 275.25,269 262.75,277.5 252.75,262 245.25,277.5 233.75,271 245.25,247.5 229.75,219.5 213.25,247 224.25,270.5 212.75,277.5 204.75,261 196.25,277.5 182.25,269 191.75,253.5 172.25,254 172.25,242 199.25,240 215.25,211.5 184.75,211 169.25,233.5 158.25,226 168.25,211.5 148.75,211.5 148.75,196.5 169.25,197.5 158.75,181 169.25,174 183.75,196.5 216.25,197 200.25,169 172.25,167 174.75,154 191.25,155.5 182.25,138.5 195.25,130.5 205.25,147 212.75,130.5 224.75,138.75 213.75,161.5 229.25,188.5 245.25,159.5 233.25,138 245.25,130.5 252.75,147 262.75,130.5 275.75,138.5 266.75,154 283.75,153.5 283.75,167.5 259.75,168 "
         id="polygon8"
         style="fill:#15b2a2;fill-opacity:1" />
    </g>
    <circle
       style="opacity:0.77399998;fill:#bdffff;fill-opacity:1;stroke:#000000;stroke-width:1;stroke-miterlimit:4.19999981;stroke-dasharray:none;stroke-opacity:1"
       id="path5081-8-63-6-0"
       cx="131.96428"
       cy="173.11221"
       r="6.2413249" />
  </g>
</svg>
