<?xml version="1.0" encoding="UTF-8" standalone="no"?>
<!-- Created with Inkscape (http://www.inkscape.org/) -->

<svg
   xmlns:dc="http://purl.org/dc/elements/1.1/"
   xmlns:cc="http://creativecommons.org/ns#"
   xmlns:rdf="http://www.w3.org/1999/02/22-rdf-syntax-ns#"
   xmlns:svg="http://www.w3.org/2000/svg"
   xmlns="http://www.w3.org/2000/svg"
   xmlns:sodipodi="http://sodipodi.sourceforge.net/DTD/sodipodi-0.dtd"
   xmlns:inkscape="http://www.inkscape.org/namespaces/inkscape"
   width="250"
   height="250"
   viewBox="0 0 250 250"
   id="svg3353"
   version="1.1"
   inkscape:version="0.91 r13725"
   sodipodi:docname="img-proc.svg">
  <defs
     id="defs3355" />
  <sodipodi:namedview
     id="base"
     pagecolor="#ffffff"
     bordercolor="#666666"
     borderopacity="1.0"
     inkscape:pageopacity="0.0"
     inkscape:pageshadow="2"
     inkscape:zoom="0.98994949"
     inkscape:cx="93.186135"
     inkscape:cy="105.48871"
     inkscape:document-units="px"
     inkscape:current-layer="layer1"
     showgrid="false"
     units="px"
     inkscape:window-width="1280"
     inkscape:window-height="657"
     inkscape:window-x="-8"
     inkscape:window-y="-8"
     inkscape:window-maximized="1" />
  <metadata
     id="metadata3358">
    <rdf:RDF>
      <cc:Work
         rdf:about="">
        <dc:format>image/svg+xml</dc:format>
        <dc:type
           rdf:resource="http://purl.org/dc/dcmitype/StillImage" />
        <dc:title></dc:title>
      </cc:Work>
    </rdf:RDF>
  </metadata>
  <g
     inkscape:label="Layer 1"
     inkscape:groupmode="layer"
     id="layer1"
     transform="translate(0,-802.36222)">
    <g
       id="g3427"
       transform="translate(-319.46712,-52.269001)">
      <circle
         r="25.890501"
         cy="980.79565"
         cx="379.04895"
         id="path5081-7-8"
         style="opacity:1;fill:none;fill-opacity:1;stroke:#000000;stroke-width:1.64757729;stroke-miterlimit:4;stroke-dasharray:none;stroke-opacity:1" />
      <circle
         r="20.05242"
         cy="984.45599"
         cx="376.33063"
         id="path5081-8-63-6"
         style="opacity:0.77399998;fill:#bdffff;fill-opacity:1;stroke:#000000;stroke-width:1;stroke-miterlimit:4.19999981;stroke-dasharray:none;stroke-opacity:1" />
      <path
         sodipodi:nodetypes="cc"
         inkscape:connector-curvature="0"
         id="rect5736-6"
         d="m 457.30492,978.79569 -29.0834,0"
         style="opacity:1;fill:#ffffff;fill-opacity:1;stroke:#000000;stroke-width:2.00000024;stroke-miterlimit:4;stroke-dasharray:none;stroke-opacity:1" />
      <path
         sodipodi:nodetypes="cc"
         inkscape:connector-curvature="0"
         id="rect5736-6-6"
         d="m 442.76321,993.87309 0,-29.08339"
         style="opacity:1;fill:#ffffff;fill-opacity:1;stroke:#000000;stroke-width:2.00000024;stroke-miterlimit:4;stroke-dasharray:none;stroke-opacity:1" />
      <g
         style="opacity:1;fill:#15b2a2;fill-opacity:1"
         id="Layer_2"
         transform="matrix(0.37810336,0,0,0.37810336,420.04922,902.41001)">
        <polygon
           style="fill:#15b2a2;fill-opacity:1"
           id="polygon8"
           points="245.25,247.5 229.75,219.5 213.25,247 224.25,270.5 212.75,277.5 204.75,261 196.25,277.5 182.25,269 191.75,253.5 172.25,254 172.25,242 199.25,240 215.25,211.5 184.75,211 169.25,233.5 158.25,226 168.25,211.5 148.75,211.5 148.75,196.5 169.25,197.5 158.75,181 169.25,174 183.75,196.5 216.25,197 200.25,169 172.25,167 174.75,154 191.25,155.5 182.25,138.5 195.25,130.5 205.25,147 212.75,130.5 224.75,138.75 213.75,161.5 229.25,188.5 245.25,159.5 233.25,138 245.25,130.5 252.75,147 262.75,130.5 275.75,138.5 266.75,154 283.75,153.5 283.75,167.5 259.75,168 242.25,196 274.25,196 289.25,175 299.25,183 289.75,196 308.25,196 308.25,211.5 290.75,211.5 299.25,225 289.75,233.5 273.75,211.5 242.75,211.5 258.75,239.5 283.75,242.5 284.25,254.5 267.25,254.5 275.25,269 262.75,277.5 252.75,262 245.25,277.5 233.75,271 " />
      </g>
      <circle
         r="6.2413249"
         cy="963.83136"
         cx="389.58466"
         id="path5081-8-63-6-0"
         style="opacity:0.77399998;fill:#bdffff;fill-opacity:1;stroke:#000000;stroke-width:1;stroke-miterlimit:4.19999981;stroke-dasharray:none;stroke-opacity:1" />
    </g>
  </g>
</svg>
