<?xml version="1.0" encoding="UTF-8" standalone="no"?>
<!-- Created with Inkscape (http://www.inkscape.org/) -->

<svg
   xmlns:dc="http://purl.org/dc/elements/1.1/"
   xmlns:cc="http://creativecommons.org/ns#"
   xmlns:rdf="http://www.w3.org/1999/02/22-rdf-syntax-ns#"
   xmlns:svg="http://www.w3.org/2000/svg"
   xmlns="http://www.w3.org/2000/svg"
   xmlns:sodipodi="http://sodipodi.sourceforge.net/DTD/sodipodi-0.dtd"
   xmlns:inkscape="http://www.inkscape.org/namespaces/inkscape"
   width="55.130299mm"
   height="55.465168mm"
   viewBox="0 0 195.34358 196.53012"
   id="svg12371"
   version="1.1"
   inkscape:version="0.91 r13725"
   sodipodi:docname="mech-after-fert.svg">
  <defs
     id="defs12373">
    <clipPath
       clipPathUnits="userSpaceOnUse"
       id="clipPath3202">
      <path
         d="m 93.429,103.437 7.804,0 0,6.179 -7.804,0 0,-6.179 z"
         id="path3204"
         inkscape:connector-curvature="0" />
    </clipPath>
    <clipPath
       clipPathUnits="userSpaceOnUse"
       id="clipPath3174">
      <path
         d="m 93.429,112.693 7.804,0 0,6.179 -7.804,0 0,-6.179 z"
         id="path3176"
         inkscape:connector-curvature="0" />
    </clipPath>
    <clipPath
       clipPathUnits="userSpaceOnUse"
       id="clipPath3158">
      <path
         d="m 89.882,120.431 12.23,0 0,7.591 -12.23,0 0,-7.591 z"
         id="path3160"
         inkscape:connector-curvature="0" />
    </clipPath>
    <clipPath
       clipPathUnits="userSpaceOnUse"
       id="clipPath3082">
      <path
         d="m 24.934,25.913 136.947,0 0,108.014 -136.947,0 0,-108.014 z"
         id="path3084"
         inkscape:connector-curvature="0" />
    </clipPath>
    <clipPath
       clipPathUnits="userSpaceOnUse"
       id="clipPath3094">
      <path
         d="m 11.4643,63.127 123.1957,0 0,-37.1886 -123.1957,0 0,37.1886 z"
         id="path3096"
         inkscape:connector-curvature="0" />
    </clipPath>
    <clipPath
       clipPathUnits="userSpaceOnUse"
       id="clipPath3126">
      <path
         d="m 69.4836,133.945 16.2557,0 0,-107.9887 -16.2557,0 0,107.9887 z"
         id="path3128"
         inkscape:connector-curvature="0" />
    </clipPath>
    <clipPath
       clipPathUnits="userSpaceOnUse"
       id="clipPath3054">
      <path
         d="m 0,336.042 510.24,0 L 510.24,0 0,0 0,336.042 Z"
         id="path3056"
         inkscape:connector-curvature="0" />
    </clipPath>
    <clipPath
       clipPathUnits="userSpaceOnUse"
       id="clipPath3062">
      <path
         d="m 34.8765,116.443 70.2115,0 0,-90.5046 -70.2115,0 0,90.5046 z"
         id="path3064"
         inkscape:connector-curvature="0" />
    </clipPath>
    <clipPath
       clipPathUnits="userSpaceOnUse"
       id="clipPath3038">
      <path
         d="m 24.934,25.913 136.947,0 0,108.014 -136.947,0 0,-108.014 z"
         id="path3040"
         inkscape:connector-curvature="0" />
    </clipPath>
    <clipPath
       clipPathUnits="userSpaceOnUse"
       id="clipPath3014">
      <path
         d="m 0,336.042 510.24,0 L 510.24,0 0,0 0,336.042 Z"
         id="path3016"
         inkscape:connector-curvature="0" />
    </clipPath>
  </defs>
  <sodipodi:namedview
     id="base"
     pagecolor="#ffffff"
     bordercolor="#666666"
     borderopacity="1.0"
     inkscape:pageopacity="0.0"
     inkscape:pageshadow="2"
     inkscape:zoom="1.979899"
     inkscape:cx="69.754196"
     inkscape:cy="66.427211"
     inkscape:document-units="px"
     inkscape:current-layer="g3106"
     showgrid="false"
     fit-margin-top="0"
     fit-margin-left="0"
     fit-margin-right="0"
     fit-margin-bottom="0"
     inkscape:window-width="1280"
     inkscape:window-height="657"
     inkscape:window-x="-8"
     inkscape:window-y="-8"
     inkscape:window-maximized="1" />
  <metadata
     id="metadata12376">
    <rdf:RDF>
      <cc:Work
         rdf:about="">
        <dc:format>image/svg+xml</dc:format>
        <dc:type
           rdf:resource="http://purl.org/dc/dcmitype/StillImage" />
        <dc:title />
      </cc:Work>
    </rdf:RDF>
  </metadata>
  <g
     inkscape:label="Layer 1"
     inkscape:groupmode="layer"
     id="layer1"
     transform="translate(-19.471069,-18.172226)">
    <path
       d="m 43.35215,50.278227 171.15,0 0,134.983753 -171.15,0 0,-134.983753 z"
       style="fill:#ffffff;fill-opacity:1;fill-rule:evenodd;stroke:#ffffff;stroke-width:0.625;stroke-linecap:butt;stroke-linejoin:round;stroke-miterlimit:10;stroke-dasharray:none;stroke-opacity:1"
       id="path2846"
       inkscape:connector-curvature="0" />
    <g
       id="g2848"
       transform="matrix(1.25,0,0,-1.25,214.50277,50.278347)">
      <path
         d="M 0,0 0,0 M -136.92,0 0,0 m 0,-13.495 0,0 m -136.92,0 136.92,0 m 0,-13.495 0,0 m -136.92,0 136.92,0 m 0,-13.496 0,0 m -136.92,0 136.92,0 m 0,-13.495 0,0 m -136.92,0 136.92,0 m 0,-13.495 0,0 m -136.92,0 136.92,0 m 0,-13.495 0,0 m -136.92,0 136.92,0 m 0,-13.496 0,0 m -136.92,0 136.92,0 m 0,-13.52 0,0 m -136.92,0 136.92,0 M -8.077,0 l 0,0 m 0,-107.987 0,107.987 m -16.102,0 0,0 m 0,-107.987 0,107.987 m -16.102,0 0,0 m 0,-107.987 0,107.987 m -16.103,0 0,0 m 0,-107.987 0,107.987 m -16.102,0 0,0 m 0,-107.987 0,107.987 m -16.102,0 0,0 m 0,-107.987 0,107.987 m -16.102,0 0,0 m 0,-107.987 0,107.987 m -16.103,0 0,0 m 0,-107.987 0,107.987 m -16.127,0 0,0 m 0,-107.987 0,107.987"
         style="fill:none;stroke:#000000;stroke-width:0.333;stroke-linecap:butt;stroke-linejoin:round;stroke-miterlimit:10;stroke-dasharray:0.5, 4;stroke-dashoffset:0;stroke-opacity:1"
         id="path2850"
         inkscape:connector-curvature="0" />
    </g>
    <g
       id="g2852"
       transform="matrix(1.25,0,0,-1.25,43.35215,50.278347)">
      <path
         d="m 0,0 0,-1.355 m 0,-106.632 0,1.38 m 0,-1.38 L 0,0 m 0,-107.987 136.92,0 M 0,-107.987 0,0 M 136.92,-107.987 136.92,0 M 0,-107.987 l 136.92,0 M 0,0 136.92,0"
         style="fill:none;stroke:#000000;stroke-width:0.5;stroke-linecap:butt;stroke-linejoin:round;stroke-miterlimit:10;stroke-dasharray:none;stroke-opacity:1"
         id="path2854"
         inkscape:connector-curvature="0" />
    </g>
    <text
       y="194.56323"
       x="34.198151"
       style="font-variant:normal;font-weight:normal;font-stretch:normal;font-size:7.33887482px;font-family:Arial;-inkscape-font-specification:ArialMT;writing-mode:lr-tb;fill:#231f20;fill-opacity:1;fill-rule:nonzero;stroke:none"
       id="text2856">
      <tspan
         x="34.198151 38.278564 40.318771 44.399185"
         y="194.56323"
         sodipodi:role="line"
         id="tspan2858">0.08</tspan>
    </text>
    <g
       id="g2860"
       transform="matrix(1.25,0,0,-1.25,63.5119,50.278347)">
      <path
         d="m 0,0 0,-1.355 m 0,-106.632 0,1.38"
         style="fill:none;stroke:#000000;stroke-width:0.5;stroke-linecap:butt;stroke-linejoin:round;stroke-miterlimit:10;stroke-dasharray:none;stroke-opacity:1"
         id="path2862"
         inkscape:connector-curvature="0" />
    </g>
    <text
       y="194.56323"
       x="56.333145"
       style="font-variant:normal;font-weight:normal;font-stretch:normal;font-size:7.33887482px;font-family:Arial;-inkscape-font-specification:ArialMT;writing-mode:lr-tb;fill:#231f20;fill-opacity:1;fill-rule:nonzero;stroke:none"
       id="text2864">
      <tspan
         x="56.333145 60.413559 62.453766"
         y="194.56323"
         sodipodi:role="line"
         id="tspan2866">0.1</tspan>
    </text>
    <g
       id="g2868"
       transform="matrix(1.25,0,0,-1.25,83.63977,50.278347)">
      <path
         d="m 0,0 0,-1.355 m 0,-106.632 0,1.38"
         style="fill:none;stroke:#000000;stroke-width:0.5;stroke-linecap:butt;stroke-linejoin:round;stroke-miterlimit:10;stroke-dasharray:none;stroke-opacity:1"
         id="path2870"
         inkscape:connector-curvature="0" />
    </g>
    <text
       y="194.56323"
       x="75.369522"
       style="font-variant:normal;font-weight:normal;font-stretch:normal;font-size:7.33887482px;font-family:Arial;-inkscape-font-specification:ArialMT;writing-mode:lr-tb;fill:#231f20;fill-opacity:1;fill-rule:nonzero;stroke:none"
       id="text2872">
      <tspan
         x="75.369522 79.449921 81.490143 85.570557"
         y="194.56323"
         sodipodi:role="line"
         id="tspan2874">0.12</tspan>
    </text>
    <g
       id="g2876"
       transform="matrix(1.25,0,0,-1.25,103.76765,50.278347)">
      <path
         d="m 0,0 0,-1.355 m 0,-106.632 0,1.38"
         style="fill:none;stroke:#000000;stroke-width:0.5;stroke-linecap:butt;stroke-linejoin:round;stroke-miterlimit:10;stroke-dasharray:none;stroke-opacity:1"
         id="path2878"
         inkscape:connector-curvature="0" />
    </g>
    <text
       y="194.56323"
       x="95.937134"
       style="font-variant:normal;font-weight:normal;font-stretch:normal;font-size:7.33887482px;font-family:Arial;-inkscape-font-specification:ArialMT;writing-mode:lr-tb;fill:#231f20;fill-opacity:1;fill-rule:nonzero;stroke:none"
       id="text2880">
      <tspan
         x="95.937134 100.01755 102.05777 106.13818"
         y="194.56323"
         sodipodi:role="line"
         id="tspan2882">0.14</tspan>
    </text>
    <g
       id="g2884"
       transform="matrix(1.25,0,0,-1.25,123.89553,50.278347)">
      <path
         d="m 0,0 0,-1.355 m 0,-106.632 0,1.38"
         style="fill:none;stroke:#000000;stroke-width:0.5;stroke-linecap:butt;stroke-linejoin:round;stroke-miterlimit:10;stroke-dasharray:none;stroke-opacity:1"
         id="path2886"
         inkscape:connector-curvature="0" />
    </g>
    <text
       y="194.56323"
       x="116.50589"
       style="font-variant:normal;font-weight:normal;font-stretch:normal;font-size:7.33887482px;font-family:Arial;-inkscape-font-specification:ArialMT;writing-mode:lr-tb;fill:#231f20;fill-opacity:1;fill-rule:nonzero;stroke:none"
       id="text2888">
      <tspan
         x="116.50589 120.5863 122.62653 126.70694"
         y="194.56323"
         sodipodi:role="line"
         id="tspan2890">0.16</tspan>
    </text>
    <g
       id="g2892"
       transform="matrix(1.25,0,0,-1.25,144.02327,50.278347)">
      <path
         d="m 0,0 0,-1.355 m 0,-106.632 0,1.38"
         style="fill:none;stroke:#000000;stroke-width:0.5;stroke-linecap:butt;stroke-linejoin:round;stroke-miterlimit:10;stroke-dasharray:none;stroke-opacity:1"
         id="path2894"
         inkscape:connector-curvature="0" />
    </g>
    <text
       y="194.56323"
       x="137.07538"
       style="font-variant:normal;font-weight:normal;font-stretch:normal;font-size:7.33887482px;font-family:Arial;-inkscape-font-specification:ArialMT;writing-mode:lr-tb;fill:#231f20;fill-opacity:1;fill-rule:nonzero;stroke:none"
       id="text2896">
      <tspan
         x="137.07538 141.15582 143.19601 147.27643"
         y="194.56323"
         sodipodi:role="line"
         id="tspan2898">0.18</tspan>
    </text>
    <g
       id="g2900"
       transform="matrix(1.25,0,0,-1.25,164.15115,50.278347)">
      <path
         d="m 0,0 0,-1.355 m 0,-106.632 0,1.38"
         style="fill:none;stroke:#000000;stroke-width:0.5;stroke-linecap:butt;stroke-linejoin:round;stroke-miterlimit:10;stroke-dasharray:none;stroke-opacity:1"
         id="path2902"
         inkscape:connector-curvature="0" />
    </g>
    <text
       y="194.56323"
       x="159.17627"
       style="font-variant:normal;font-weight:normal;font-stretch:normal;font-size:7.33887482px;font-family:Arial;-inkscape-font-specification:ArialMT;writing-mode:lr-tb;fill:#231f20;fill-opacity:1;fill-rule:nonzero;stroke:none"
       id="text2904">
      <tspan
         x="159.17627 163.25668 165.29688"
         y="194.56323"
         sodipodi:role="line"
         id="tspan2906">0.2</tspan>
    </text>
    <g
       id="g2908"
       transform="matrix(1.25,0,0,-1.25,184.27903,50.278347)">
      <path
         d="m 0,0 0,-1.355 m 0,-106.632 0,1.38"
         style="fill:none;stroke:#000000;stroke-width:0.5;stroke-linecap:butt;stroke-linejoin:round;stroke-miterlimit:10;stroke-dasharray:none;stroke-opacity:1"
         id="path2910"
         inkscape:connector-curvature="0" />
    </g>
    <text
       y="194.56323"
       x="178.21313"
       style="font-variant:normal;font-weight:normal;font-stretch:normal;font-size:7.33887482px;font-family:Arial;-inkscape-font-specification:ArialMT;writing-mode:lr-tb;fill:#231f20;fill-opacity:1;fill-rule:nonzero;stroke:none"
       id="text2912">
      <tspan
         x="178.21313 182.29355 184.33377 188.41418"
         y="194.56323"
         sodipodi:role="line"
         id="tspan2914">0.22</tspan>
    </text>
    <g
       id="g2916"
       transform="matrix(1.25,0,0,-1.25,204.4069,50.278347)">
      <path
         d="m 0,0 0,-1.355 m 0,-106.632 0,1.38"
         style="fill:none;stroke:#000000;stroke-width:0.5;stroke-linecap:butt;stroke-linejoin:round;stroke-miterlimit:10;stroke-dasharray:none;stroke-opacity:1"
         id="path2918"
         inkscape:connector-curvature="0" />
    </g>
    <text
       y="194.56323"
       x="198.78125"
       style="font-variant:normal;font-weight:normal;font-stretch:normal;font-size:7.33887482px;font-family:Arial;-inkscape-font-specification:ArialMT;writing-mode:lr-tb;fill:#231f20;fill-opacity:1;fill-rule:nonzero;stroke:none"
       id="text2920">
      <tspan
         x="198.78125 202.86166 204.90189 208.9823"
         y="194.56323"
         sodipodi:role="line"
         id="tspan2922">0.24</tspan>
    </text>
    <g
       id="g2924"
       transform="matrix(1.25,0,0,-1.25,214.50277,185.26273)">
      <path
         d="m 0,0 -1.38,0 m -135.54,0 1.38,0"
         style="fill:none;stroke:#000000;stroke-width:0.5;stroke-linecap:butt;stroke-linejoin:round;stroke-miterlimit:10;stroke-dasharray:none;stroke-opacity:1"
         id="path2926"
         inkscape:connector-curvature="0" />
    </g>
    <text
       y="187.93724"
       x="35.373764"
       style="font-variant:normal;font-weight:normal;font-stretch:normal;font-size:7.33887482px;font-family:Arial;-inkscape-font-specification:ArialMT;writing-mode:lr-tb;fill:#231f20;fill-opacity:1;fill-rule:nonzero;stroke:none"
       id="text2928">
      <tspan
         x="35.373764"
         y="187.93724"
         id="tspan2930">0</tspan>
    </text>
    <g
       id="g2932"
       transform="matrix(1.25,0,0,-1.25,214.50277,168.36173)">
      <path
         d="m 0,0 -1.38,0 m -135.54,0 1.38,0"
         style="fill:none;stroke:#000000;stroke-width:0.5;stroke-linecap:butt;stroke-linejoin:round;stroke-miterlimit:10;stroke-dasharray:none;stroke-opacity:1"
         id="path2934"
         inkscape:connector-curvature="0" />
    </g>
    <text
       y="173.10809"
       x="35.373764"
       style="font-variant:normal;font-weight:normal;font-stretch:normal;font-size:7.33887482px;font-family:Arial;-inkscape-font-specification:ArialMT;writing-mode:lr-tb;fill:#231f20;fill-opacity:1;fill-rule:nonzero;stroke:none"
       id="text2936">
      <tspan
         x="35.373764"
         y="173.10809"
         id="tspan2938">5</tspan>
    </text>
    <g
       id="g2940"
       transform="matrix(1.25,0,0,-1.25,214.50277,151.49273)">
      <path
         d="m 0,0 -1.38,0 m -135.54,0 1.38,0"
         style="fill:none;stroke:#000000;stroke-width:0.5;stroke-linecap:butt;stroke-linejoin:round;stroke-miterlimit:10;stroke-dasharray:none;stroke-opacity:1"
         id="path2942"
         inkscape:connector-curvature="0" />
    </g>
    <text
       y="155.87424"
       x="32.336639"
       style="font-variant:normal;font-weight:normal;font-stretch:normal;font-size:7.33887482px;font-family:Arial;-inkscape-font-specification:ArialMT;writing-mode:lr-tb;fill:#231f20;fill-opacity:1;fill-rule:nonzero;stroke:none"
       id="text2944">
      <tspan
         x="32.336639 36.417053"
         y="155.87424"
         sodipodi:role="line"
         id="tspan2946">10</tspan>
    </text>
    <g
       id="g2948"
       transform="matrix(1.25,0,0,-1.25,214.50277,134.6236)">
      <path
         d="m 0,0 -1.38,0 m -135.54,0 1.38,0"
         style="fill:none;stroke:#000000;stroke-width:0.5;stroke-linecap:butt;stroke-linejoin:round;stroke-miterlimit:10;stroke-dasharray:none;stroke-opacity:1"
         id="path2950"
         inkscape:connector-curvature="0" />
    </g>
    <text
       y="138.63361"
       x="32.336639"
       style="font-variant:normal;font-weight:normal;font-stretch:normal;font-size:7.33887482px;font-family:Arial;-inkscape-font-specification:ArialMT;writing-mode:lr-tb;fill:#231f20;fill-opacity:1;fill-rule:nonzero;stroke:none"
       id="text2952">
      <tspan
         x="32.336639 36.417053"
         y="138.63361"
         sodipodi:role="line"
         id="tspan2954">15</tspan>
    </text>
    <g
       id="g2956"
       transform="matrix(1.25,0,0,-1.25,214.50277,117.7546)">
      <path
         d="m 0,0 -1.38,0 m -135.54,0 1.38,0"
         style="fill:none;stroke:#000000;stroke-width:0.5;stroke-linecap:butt;stroke-linejoin:round;stroke-miterlimit:10;stroke-dasharray:none;stroke-opacity:1"
         id="path2958"
         inkscape:connector-curvature="0" />
    </g>
    <text
       y="121.3936"
       x="32.336639"
       style="font-variant:normal;font-weight:normal;font-stretch:normal;font-size:7.33887482px;font-family:Arial;-inkscape-font-specification:ArialMT;writing-mode:lr-tb;fill:#231f20;fill-opacity:1;fill-rule:nonzero;stroke:none"
       id="text2960">
      <tspan
         x="32.336639 36.417053"
         y="121.3936"
         sodipodi:role="line"
         id="tspan2962">20</tspan>
    </text>
    <g
       id="g2964"
       transform="matrix(1.25,0,0,-1.25,214.50277,100.88561)">
      <path
         d="m 0,0 -1.38,0 m -135.54,0 1.38,0"
         style="fill:none;stroke:#000000;stroke-width:0.5;stroke-linecap:butt;stroke-linejoin:round;stroke-miterlimit:10;stroke-dasharray:none;stroke-opacity:1"
         id="path2966"
         inkscape:connector-curvature="0" />
    </g>
    <text
       y="104.15848"
       x="32.336639"
       style="font-variant:normal;font-weight:normal;font-stretch:normal;font-size:7.33887482px;font-family:Arial;-inkscape-font-specification:ArialMT;writing-mode:lr-tb;fill:#231f20;fill-opacity:1;fill-rule:nonzero;stroke:none"
       id="text2968">
      <tspan
         x="32.336639 36.417053"
         y="104.15848"
         sodipodi:role="line"
         id="tspan2970">25</tspan>
    </text>
    <g
       id="g2972"
       transform="matrix(1.25,0,0,-1.25,214.50277,84.01648)">
      <path
         d="m 0,0 -1.38,0 m -135.54,0 1.38,0"
         style="fill:none;stroke:#000000;stroke-width:0.5;stroke-linecap:butt;stroke-linejoin:round;stroke-miterlimit:10;stroke-dasharray:none;stroke-opacity:1"
         id="path2974"
         inkscape:connector-curvature="0" />
    </g>
    <text
       y="86.920349"
       x="32.336639"
       style="font-variant:normal;font-weight:normal;font-stretch:normal;font-size:7.33887482px;font-family:Arial;-inkscape-font-specification:ArialMT;writing-mode:lr-tb;fill:#231f20;fill-opacity:1;fill-rule:nonzero;stroke:none"
       id="text2976">
      <tspan
         x="32.336639 36.417053"
         y="86.920349"
         sodipodi:role="line"
         id="tspan2978">30</tspan>
    </text>
    <g
       id="g2980"
       transform="matrix(1.25,0,0,-1.25,214.50277,67.147477)">
      <path
         d="m 0,0 -1.38,0 m -135.54,0 1.38,0"
         style="fill:none;stroke:#000000;stroke-width:0.5;stroke-linecap:butt;stroke-linejoin:round;stroke-miterlimit:10;stroke-dasharray:none;stroke-opacity:1"
         id="path2982"
         inkscape:connector-curvature="0" />
    </g>
    <text
       y="69.68586"
       x="32.336639"
       style="font-variant:normal;font-weight:normal;font-stretch:normal;font-size:7.33887482px;font-family:Arial;-inkscape-font-specification:ArialMT;writing-mode:lr-tb;fill:#231f20;fill-opacity:1;fill-rule:nonzero;stroke:none"
       id="text2984">
      <tspan
         x="32.336639 36.417053"
         y="69.68586"
         sodipodi:role="line"
         id="tspan2986">35</tspan>
    </text>
    <g
       id="g2988"
       transform="matrix(1.25,0,0,-1.25,214.50277,50.278347)">
      <path
         d="m 0,0 -1.38,0 m -135.54,0 1.38,0"
         style="fill:none;stroke:#000000;stroke-width:0.5;stroke-linecap:butt;stroke-linejoin:round;stroke-miterlimit:10;stroke-dasharray:none;stroke-opacity:1"
         id="path2990"
         inkscape:connector-curvature="0" />
    </g>
    <text
       y="52.439728"
       x="32.336639"
       style="font-variant:normal;font-weight:normal;font-stretch:normal;font-size:7.33887482px;font-family:Arial;-inkscape-font-specification:ArialMT;writing-mode:lr-tb;fill:#231f20;fill-opacity:1;fill-rule:nonzero;stroke:none"
       id="text2992">
      <tspan
         x="32.336639 36.417053"
         y="52.439728"
         sodipodi:role="line"
         id="tspan2994">40</tspan>
    </text>
    <g
       id="g2996"
       transform="matrix(1.25,0,0,-1.25,43.35215,185.26273)">
      <path
         d="M 0,0 0,107.987 M 136.92,0 l 0,107.987 M 0,0 136.92,0 M 0,107.987 l 136.92,0"
         style="fill:none;stroke:#000000;stroke-width:0.5;stroke-linecap:butt;stroke-linejoin:round;stroke-miterlimit:10;stroke-dasharray:none;stroke-opacity:1"
         id="path2998"
         inkscape:connector-curvature="0" />
    </g>
    <text
       y="211.37224"
       x="86.492523"
       style="font-variant:normal;font-weight:normal;font-stretch:normal;font-size:10px;font-family:Arial;-inkscape-font-specification:ArialMT;writing-mode:lr-tb;fill:#231f20;fill-opacity:1;fill-rule:nonzero;stroke:none"
       id="text3006">
      <tspan
         x="86.492523"
         y="211.37224"
         id="tspan3008">k</tspan>
    </text>
    <g
       transform="matrix(1.25,0,0,-1.25,12.18465,217.68573)"
       id="g3010">
      <g
         id="g3012"
         clip-path="url(#clipPath3014)">
        <text
           transform="matrix(1,0,0,-1,63.4463,2.3867)"
           style="font-variant:normal;font-weight:normal;font-stretch:normal;font-size:4.66400003px;font-family:Arial;-inkscape-font-specification:ArialMT;writing-mode:lr-tb;fill:#231f20;fill-opacity:1;fill-rule:nonzero;stroke:none"
           id="text3018">
          <tspan
             x="0"
             y="0"
             id="tspan3020">1</tspan>
        </text>
      </g>
    </g>
    <text
       y="211.37224"
       x="97.514648"
       style="font-variant:normal;font-weight:normal;font-stretch:normal;font-size:10px;font-family:Arial;-inkscape-font-specification:ArialMT;writing-mode:lr-tb;fill:#231f20;fill-opacity:1;fill-rule:nonzero;stroke:none"
       id="text3022">
      <tspan
         x="97.514648 100.84464 105.84464 108.62463 110.84464 113.62463 116.40463 121.96466 127.52463 132.52463 137.52463 140.85464 143.63464 150.85464 153.63464"
         y="211.37224"
         sodipodi:role="line"
         id="tspan3024">(stiffness) N m</tspan>
    </text>
    <text
       y="208.04224"
       x="161.96127"
       style="font-variant:normal;font-weight:normal;font-stretch:normal;font-size:5.82999992px;font-family:Arial;-inkscape-font-specification:ArialMT;writing-mode:lr-tb;fill:#231f20;fill-opacity:1;fill-rule:nonzero;stroke:none"
       id="text3026">
      <tspan
         x="161.96127 163.90265"
         y="208.04224"
         sodipodi:role="line"
         id="tspan3028">-1</tspan>
    </text>
    <text
       y="26.629272"
       x="-153.47437"
       transform="matrix(0,-1,1,0,0,0)"
       style="font-variant:normal;font-weight:normal;font-stretch:normal;font-size:10px;font-family:Arial;-inkscape-font-specification:ArialMT;writing-mode:lr-tb;fill:#231f20;fill-opacity:1;fill-rule:nonzero;stroke:none"
       id="text3030">
      <tspan
         x="-153.47437 -147.91435 -145.69437 -140.69437 -137.91435 -132.35435 -126.79436 -123.46436 -117.90436 -109.57436 -106.79436 -101.23436 -95.674347 -90.114357 -85.114357 -82.894363 -80.114357"
         y="26.629272"
         sodipodi:role="line"
         id="tspan3032">histogram density</tspan>
    </text>
    <g
       transform="matrix(1.25,0,0,-1.25,12.18465,217.68573)"
       id="g3034">
      <g
         id="g3036"
         clip-path="url(#clipPath3038)">
        <g
           id="g3042"
           transform="translate(34.8765,26.0406)">
          <path
             d="m 0,0 0.716,0.051 0.69,0.077 0.715,0.102 0.716,0.179 0.716,0.23 0.69,0.332 0.715,0.435 0.716,0.562 0.716,0.716 0.69,0.92 0.716,1.073 0.715,1.253 0.716,1.457 0.69,1.61 0.716,1.712 0.715,1.815 0.716,1.866 0.69,1.84 0.716,1.764 0.715,1.661 0.716,1.508 0.69,1.38 0.716,1.227 0.715,1.074 0.716,1.022 0.716,0.971 0.69,0.971 0.715,1.074 0.716,1.201 0.716,1.38 0.69,1.611 0.716,1.789 0.715,2.019 0.716,2.249 0.69,2.428 0.716,2.582 0.715,2.735 0.716,2.862 0.69,2.965 0.716,3.042 0.715,3.118 0.716,3.195 0.69,3.246 0.716,3.246 0.715,3.246 0.716,3.169 0.69,3.067 0.716,2.888 0.715,2.633 0.716,2.3 0.69,1.917 0.716,1.432 0.716,0.894 0.715,0.307 0.69,-0.384 0.716,-1.073 0.716,-1.789 0.715,-2.556 0.69,-3.272 0.716,-3.961 0.716,-4.601 0.715,-5.137 0.69,-5.598 0.716,-5.878 0.716,-6.058 0.715,-6.032 0.691,-5.879 0.715,-5.546 0.716,-5.112 0.715,-4.549 0.691,-3.936 0.715,-3.272 0.716,-2.633 0.716,-1.993 0.69,-1.457 L 53.904,8.665 54.62,8 l 0.716,-0.434 0.69,-0.307 0.715,-0.256 0.716,-0.281 0.716,-0.307 0.69,-0.434 0.715,-0.486 0.716,-0.588 0.716,-0.613 0.69,-0.639 0.716,-0.639 0.715,-0.588 0.716,-0.537 0.69,-0.46 0.716,-0.383 0.715,-0.307 0.716,-0.255 0.69,-0.179 0.716,-0.128 0.715,-0.102 0.716,-0.051 0.69,-0.052"
             style="fill:none;stroke:#cc994d;stroke-width:2;stroke-linecap:butt;stroke-linejoin:round;stroke-miterlimit:10;stroke-dasharray:none;stroke-opacity:1"
             id="path3044"
             inkscape:connector-curvature="0" />
        </g>
        <g
           id="g3046"
           transform="translate(24.934,27.4719)">
          <path
             d="m 6.4,0 0.204,0.051 1.253,0.409 1.252,0.486 1.227,0.588 1.253,0.639 1.252,0.741 1.252,0.843 1.227,0.946 1.253,1.048 1.252,1.124 1.227,1.202 1.252,1.278 1.253,1.354 1.226,1.38 1.253,1.432 1.252,1.457 1.227,1.457 1.252,1.431 1.253,1.406 1.252,1.354 1.227,1.304 1.253,1.227 1.252,1.15 1.227,1.073 1.252,0.972 1.253,0.894 1.226,0.818 1.253,0.741 1.252,0.69 1.227,0.614 1.252,0.562 1.253,0.511 1.252,0.511 1.227,0.46 1.253,0.435 1.252,0.409 1.227,0.409 1.252,0.383 1.253,0.358 1.226,0.358 1.253,0.332 1.252,0.281 1.227,0.23 1.252,0.179 1.253,0.102 1.227,0.026 1.252,-0.077 1.252,-0.204 1.253,-0.281 1.227,-0.435 1.252,-0.537 1.252,-0.664 1.227,-0.792 1.253,-0.895 1.252,-0.997 1.227,-1.073 1.252,-1.176 1.253,-1.227 1.227,-1.303 1.252,-1.355 1.252,-1.431 1.253,-1.457 1.227,-1.483 1.252,-1.533 1.252,-1.534 1.227,-1.559 1.253,-1.559 1.252,-1.533 1.227,-1.508 1.252,-1.457 1.253,-1.381 1.227,-1.329 1.252,-1.201 1.252,-1.124 1.227,-0.997 1.253,-0.895 1.252,-0.767 1.252,-0.69 1.227,-0.562 1.253,-0.46 1.252,-0.383 1.227,-0.333 1.252,-0.23 1.253,-0.204 1.227,-0.154 1.252,-0.102 1.252,-0.102 1.227,-0.051 1.253,-0.051"
             style="fill:none;stroke:#4d4dcc;stroke-width:2;stroke-linecap:butt;stroke-linejoin:round;stroke-miterlimit:10;stroke-dasharray:none;stroke-opacity:1"
             id="path3048"
             inkscape:connector-curvature="0" />
        </g>
      </g>
    </g>
    <g
       transform="matrix(1.25,0,0,-1.25,12.18465,217.68573)"
       id="g3050">
      <g
         id="g3052"
         clip-path="url(#clipPath3054)">
        <g
           id="g3058">
          <g
             id="g3060" />
          <g
             id="g3066">
            <g
               clip-path="url(#clipPath3062)"
               id="g3068"
               style="opacity:0.5">
              <g
                 transform="translate(34.8765,25.9384)"
                 id="g3070">
                <path
                   d="m 0,0 0,0.102 0.716,0.051 0.69,0.077 0.715,0.102 0.716,0.179 0.716,0.23 0.69,0.332 0.715,0.435 0.716,0.562 0.716,0.716 0.69,0.92 0.716,1.074 0.715,1.252 0.716,1.457 0.69,1.61 0.716,1.713 0.715,1.814 0.716,1.866 0.69,1.84 0.716,1.764 0.715,1.661 0.716,1.508 0.69,1.38 0.716,1.227 0.715,1.074 0.716,1.022 0.716,0.971 0.69,0.972 0.715,1.073 0.716,1.201 0.716,1.381 0.69,1.61 0.716,1.789 0.715,2.019 0.716,2.249 0.69,2.428 0.716,2.582 0.715,2.735 0.716,2.862 0.69,2.965 0.716,3.042 0.715,3.118 0.716,3.195 0.69,3.246 0.716,3.246 0.715,3.246 0.716,3.169 0.69,3.067 0.716,2.889 0.715,2.632 0.716,2.301 0.69,1.916 0.716,1.432 0.716,0.894 0.715,0.307 0.69,-0.383 0.716,-1.074 0.716,-1.789 0.715,-2.556 0.69,-3.271 0.716,-3.962 0.716,-4.601 0.715,-5.137 0.69,-5.598 0.716,-5.878 0.716,-6.058 0.715,-6.032 0.691,-5.878 0.715,-5.547 0.716,-5.112 0.715,-4.549 0.691,-3.936 0.715,-3.272 0.716,-2.632 0.716,-1.994 0.69,-1.457 0.715,-1.022 0.716,-0.665 0.716,-0.434 0.69,-0.307 0.715,-0.256 0.716,-0.281 0.716,-0.306 0.69,-0.435 0.715,-0.486 0.716,-0.587 0.716,-0.614 0.69,-0.639 0.716,-0.639 0.715,-0.588 0.716,-0.536 0.69,-0.46 0.716,-0.384 0.715,-0.307 0.716,-0.255 0.69,-0.179 0.716,-0.128 0.715,-0.102 0.716,-0.051 0.69,-0.051 0,-0.077 -0.69,0 -0.716,0 -0.715,0 -0.716,0 -0.69,0 -0.716,0 -0.715,0 -0.716,0 -0.69,0 -0.716,0 -0.715,0 -0.716,0 -0.69,0 -0.716,0 -0.716,0 -0.715,0 -0.69,0 -0.716,0 -0.716,0 -0.715,0 -0.69,0 -0.716,0 -0.716,0 -0.715,0 -0.69,0 -0.716,0 -0.716,0 -0.715,0 -0.691,0 -0.715,0 -0.716,0 -0.715,0 -0.691,0 -0.715,0 -0.716,0 -0.716,0 -0.69,0 -0.715,0 -0.716,0 -0.716,0 -0.69,0 -0.715,0 -0.716,0 -0.716,0 -0.69,0 -0.715,0 -0.716,0 -0.716,0 -0.69,0 -0.716,0 -0.715,0 -0.716,0 -0.69,0 -0.716,0 -0.715,0 -0.716,0 -0.69,0 -0.716,0 -0.715,0 -0.716,0 -0.69,0 -0.716,0 -0.715,0 -0.716,0 -0.69,0 -0.716,0 -0.715,0 -0.716,0 -0.69,0 -0.716,0 -0.716,0 -0.715,0 -0.69,0 -0.716,0 -0.716,0 -0.715,0 -0.716,0 -0.69,0 L 14.185,0 13.47,0 12.754,0 12.064,0 11.348,0 10.633,0 9.917,0 9.227,0 8.511,0 7.796,0 7.08,0 6.39,0 5.674,0 4.958,0 4.243,0 3.553,0 2.837,0 2.121,0 1.406,0 0.716,0 0,0 Z"
                   style="fill:#dc992b;fill-opacity:1;fill-rule:evenodd;stroke:none"
                   id="path3072"
                   inkscape:connector-curvature="0" />
              </g>
            </g>
          </g>
        </g>
      </g>
    </g>
    <g
       id="g3074"
       transform="matrix(1.25,0,0,-1.25,55.78027,185.26273)">
      <path
         d="m 0,0 0,0.102 0.716,0.051 0.69,0.077 0.715,0.102 0.716,0.179 0.716,0.23 0.69,0.332 0.715,0.435 0.716,0.562 0.716,0.716 0.69,0.92 0.716,1.074 0.715,1.252 0.716,1.457 0.69,1.61 0.716,1.713 0.715,1.814 0.716,1.866 0.69,1.84 0.716,1.764 0.715,1.661 0.716,1.508 0.69,1.38 0.716,1.227 0.715,1.074 0.716,1.022 0.716,0.971 0.69,0.972 0.715,1.073 0.716,1.201 0.716,1.381 0.69,1.61 0.716,1.789 0.715,2.019 0.716,2.249 0.69,2.428 0.716,2.582 0.715,2.735 0.716,2.862 0.69,2.965 0.716,3.042 0.715,3.118 0.716,3.195 0.69,3.246 0.716,3.246 0.715,3.246 0.716,3.169 0.69,3.067 0.716,2.889 0.715,2.632 0.716,2.301 0.69,1.916 0.716,1.432 0.716,0.894 0.715,0.307 0.69,-0.383 0.716,-1.074 0.716,-1.789 0.715,-2.556 0.69,-3.271 0.716,-3.962 0.716,-4.601 0.715,-5.137 0.69,-5.598 0.716,-5.878 0.716,-6.058 0.715,-6.032 0.691,-5.878 0.715,-5.547 0.716,-5.112 0.715,-4.549 0.691,-3.936 0.715,-3.272 0.716,-2.632 0.716,-1.994 0.69,-1.457 0.715,-1.022 0.716,-0.665 0.716,-0.434 0.69,-0.307 0.715,-0.256 0.716,-0.281 0.716,-0.306 0.69,-0.435 0.715,-0.486 0.716,-0.587 0.716,-0.614 0.69,-0.639 0.716,-0.639 0.715,-0.588 0.716,-0.536 0.69,-0.46 0.716,-0.384 0.715,-0.307 0.716,-0.255 0.69,-0.179 0.716,-0.128 0.715,-0.102 0.716,-0.051 0.69,-0.051 0,-0.077 -0.69,0 -0.716,0 -0.715,0 -0.716,0 -0.69,0 -0.716,0 -0.715,0 -0.716,0 -0.69,0 -0.716,0 -0.715,0 -0.716,0 -0.69,0 -0.716,0 -0.716,0 -0.715,0 -0.69,0 -0.716,0 -0.716,0 -0.715,0 -0.69,0 -0.716,0 -0.716,0 -0.715,0 -0.69,0 -0.716,0 -0.716,0 -0.715,0 -0.691,0 -0.715,0 -0.716,0 -0.715,0 -0.691,0 -0.715,0 -0.716,0 -0.716,0 -0.69,0 -0.715,0 -0.716,0 -0.716,0 -0.69,0 -0.715,0 -0.716,0 -0.716,0 -0.69,0 -0.715,0 -0.716,0 -0.716,0 -0.69,0 -0.716,0 -0.715,0 -0.716,0 -0.69,0 -0.716,0 -0.715,0 -0.716,0 -0.69,0 -0.716,0 -0.715,0 -0.716,0 -0.69,0 -0.716,0 -0.715,0 -0.716,0 -0.69,0 -0.716,0 -0.715,0 -0.716,0 -0.69,0 -0.716,0 -0.716,0 -0.715,0 -0.69,0 -0.716,0 -0.716,0 -0.715,0 -0.716,0 -0.69,0 L 14.185,0 13.47,0 12.754,0 12.064,0 11.348,0 10.633,0 9.917,0 9.227,0 8.511,0 7.796,0 7.08,0 6.39,0 5.674,0 4.958,0 4.243,0 3.553,0 2.837,0 2.121,0 1.406,0 0.716,0 0,0 0,0 Z"
         style="fill:none;stroke:#dc992b;stroke-width:2;stroke-linecap:butt;stroke-linejoin:miter;stroke-miterlimit:10;stroke-dasharray:none;stroke-opacity:1"
         id="path3076"
         inkscape:connector-curvature="0" />
    </g>
    <g
       transform="matrix(1.25,0,0,-1.25,12.18465,217.68573)"
       id="g3078">
      <g
         id="g3080"
         clip-path="url(#clipPath3082)">
        <g
           id="g3086"
           transform="translate(34.8765,25.9384)">
          <path
             d="m 0,0 0,0.102 0.716,0.051 0.69,0.077 0.715,0.102 0.716,0.179 0.716,0.23 0.69,0.332 0.715,0.435 0.716,0.562 0.716,0.716 0.69,0.92 0.716,1.074 0.715,1.252 0.716,1.457 0.69,1.61 0.716,1.713 0.715,1.814 0.716,1.866 0.69,1.84 0.716,1.764 0.715,1.661 0.716,1.508 0.69,1.38 0.716,1.227 0.715,1.074 0.716,1.022 0.716,0.971 0.69,0.972 0.715,1.073 0.716,1.201 0.716,1.381 0.69,1.61 0.716,1.789 0.715,2.019 0.716,2.249 0.69,2.428 0.716,2.582 0.715,2.735 0.716,2.862 0.69,2.965 0.716,3.042 0.715,3.118 0.716,3.195 0.69,3.246 0.716,3.246 0.715,3.246 0.716,3.169 0.69,3.067 0.716,2.889 0.715,2.632 0.716,2.301 0.69,1.916 0.716,1.432 0.716,0.894 0.715,0.307 0.69,-0.383 0.716,-1.074 0.716,-1.789 0.715,-2.556 0.69,-3.271 0.716,-3.962 0.716,-4.601 0.715,-5.137 0.69,-5.598 0.716,-5.878 0.716,-6.058 0.715,-6.032 0.691,-5.878 0.715,-5.547 0.716,-5.112 0.715,-4.549 0.691,-3.936 0.715,-3.272 0.716,-2.632 0.716,-1.994 0.69,-1.457 0.715,-1.022 0.716,-0.665 0.716,-0.434 0.69,-0.307 0.715,-0.256 0.716,-0.281 0.716,-0.306 0.69,-0.435 0.715,-0.486 0.716,-0.587 0.716,-0.614 0.69,-0.639 0.716,-0.639 0.715,-0.588 0.716,-0.536 0.69,-0.46 0.716,-0.384 0.715,-0.307 0.716,-0.255 0.69,-0.179 0.716,-0.128 0.715,-0.102 0.716,-0.051 0.69,-0.051 0,-0.077 -0.69,0 -0.716,0 -0.715,0 -0.716,0 -0.69,0 -0.716,0 -0.715,0 -0.716,0 -0.69,0 -0.716,0 -0.715,0 -0.716,0 -0.69,0 -0.716,0 -0.716,0 -0.715,0 -0.69,0 -0.716,0 -0.716,0 -0.715,0 -0.69,0 -0.716,0 -0.716,0 -0.715,0 -0.69,0 -0.716,0 -0.716,0 -0.715,0 -0.691,0 -0.715,0 -0.716,0 -0.715,0 -0.691,0 -0.715,0 -0.716,0 -0.716,0 -0.69,0 -0.715,0 -0.716,0 -0.716,0 -0.69,0 -0.715,0 -0.716,0 -0.716,0 -0.69,0 -0.715,0 -0.716,0 -0.716,0 -0.69,0 -0.716,0 -0.715,0 -0.716,0 -0.69,0 -0.716,0 -0.715,0 -0.716,0 -0.69,0 -0.716,0 -0.715,0 -0.716,0 -0.69,0 -0.716,0 -0.715,0 -0.716,0 -0.69,0 -0.716,0 -0.715,0 -0.716,0 -0.69,0 -0.716,0 -0.716,0 -0.715,0 -0.69,0 -0.716,0 -0.716,0 -0.715,0 -0.716,0 -0.69,0 L 14.185,0 13.47,0 12.754,0 12.064,0 11.348,0 10.633,0 9.917,0 9.227,0 8.511,0 7.796,0 7.08,0 6.39,0 5.674,0 4.958,0 4.243,0 3.553,0 2.837,0 2.121,0 1.406,0 0.716,0 0,0"
             style="fill:none;stroke:#cc994d;stroke-width:0.5;stroke-linecap:butt;stroke-linejoin:round;stroke-miterlimit:10;stroke-dasharray:none;stroke-opacity:1"
             id="path3088"
             inkscape:connector-curvature="0" />
        </g>
        <g
           id="g3090"
           transform="translate(6.4,0)">
          <g
             id="g3092" />
          <g
             id="g3098">
            <g
               clip-path="url(#clipPath3094)"
               id="g3100"
               style="opacity:0.30000299">
              <g
                 transform="translate(11.4643,25.9384)"
                 id="g3102">
                <path
                   d="m 0,0 0,0.077 1.252,0.025 1.227,0.026 1.253,0.051 1.252,0.051 1.227,0.102 1.252,0.103 1.253,0.127 1.227,0.179 1.252,0.23 1.252,0.281 1.227,0.333 1.253,0.409 1.252,0.485 1.227,0.588 1.252,0.639 1.253,0.741 1.252,0.844 1.227,0.945 1.252,1.048 1.253,1.125 1.227,1.201 1.252,1.278 1.252,1.355 1.227,1.38 1.253,1.431 1.252,1.457 1.227,1.457 1.252,1.431 1.253,1.406 1.252,1.355 1.227,1.303 1.252,1.227 1.253,1.15 1.226,1.074 1.253,0.971 1.252,0.895 1.227,0.818 1.253,0.741 1.252,0.69 1.227,0.613 1.252,0.563 1.253,0.511 1.252,0.511 1.227,0.46 1.252,0.435 1.253,0.408 1.226,0.409 1.253,0.384 1.252,0.358 1.227,0.357 1.252,0.333 1.253,0.281 1.227,0.23 1.252,0.179 1.253,0.102 1.226,0.026 1.253,-0.077 1.252,-0.205 1.253,-0.281 1.226,-0.434 1.253,-0.537 1.252,-0.664 1.227,-0.793 1.252,-0.894 1.253,-0.997 1.227,-1.074 1.252,-1.175 1.252,-1.227 1.227,-1.304 1.253,-1.354 1.252,-1.432 1.253,-1.457 1.226,-1.482 1.253,-1.534 1.252,-1.533 1.227,-1.559 1.252,-1.559 1.253,-1.534 1.227,-1.508 1.252,-1.457 1.252,-1.38 1.227,-1.329 1.253,-1.201 1.252,-1.125 1.227,-0.997 1.252,-0.894 1.253,-0.767 1.252,-0.69 1.227,-0.562 1.252,-0.461 1.253,-0.383 1.227,-0.332 1.252,-0.23 1.252,-0.205 1.227,-0.153 1.253,-0.102 1.252,-0.103 1.227,-0.051 1.252,-0.051 0,-0.102 -1.252,0 -1.227,0 -1.252,0 -1.253,0 -1.227,0 -1.252,0 -1.252,0 -1.227,0 -1.253,0 -1.252,0 -1.227,0 -1.252,0 -1.253,0 -1.252,0 -1.227,0 -1.252,0 -1.253,0 -1.227,0 L 99.553,0 98.301,0 97.074,0 95.821,0 94.569,0 93.342,0 92.09,0 90.837,0 89.611,0 88.358,0 87.106,0 85.853,0 84.626,0 83.374,0 82.122,0 80.895,0 79.642,0 78.39,0 77.163,0 75.911,0 74.658,0 73.432,0 72.179,0 70.927,0 69.674,0 68.448,0 67.195,0 65.943,0 64.716,0 63.463,0 62.211,0 60.984,0 59.732,0 58.479,0 57.253,0 56,0 54.748,0 53.521,0 52.269,0 51.016,0 49.764,0 48.537,0 47.285,0 46.032,0 44.805,0 43.553,0 42.3,0 41.074,0 39.821,0 38.569,0 37.342,0 36.09,0 34.837,0 33.585,0 32.358,0 31.106,0 29.853,0 28.626,0 27.374,0 26.122,0 24.895,0 23.642,0 22.39,0 21.163,0 19.911,0 18.658,0 17.406,0 16.179,0 14.927,0 13.674,0 12.447,0 11.195,0 9.943,0 8.716,0 7.463,0 6.211,0 4.984,0 3.732,0 2.479,0 1.252,0 0,0 Z"
                   style="fill:#2b2b99;fill-opacity:1;fill-rule:evenodd;stroke:none"
                   id="path3104"
                   inkscape:connector-curvature="0" />
              </g>
            </g>
          </g>
        </g>
        <g
           id="g3106"
           transform="translate(17.8643,25.9384)">
          <path
             d="m 0,0 0,0.077 1.252,0.025 1.227,0.026 1.253,0.051 1.252,0.051 1.227,0.102 1.252,0.103 1.253,0.127 1.227,0.179 1.252,0.23 1.252,0.281 1.227,0.333 1.253,0.409 1.252,0.485 1.227,0.588 1.252,0.639 1.253,0.741 1.252,0.844 1.227,0.945 1.252,1.048 1.253,1.125 1.227,1.201 1.252,1.278 1.252,1.355 1.227,1.38 1.253,1.431 1.252,1.457 1.227,1.457 1.252,1.431 1.253,1.406 1.252,1.355 1.227,1.303 1.252,1.227 1.253,1.15 1.226,1.074 1.253,0.971 1.252,0.895 1.227,0.818 1.253,0.741 1.252,0.69 1.227,0.613 1.252,0.563 1.253,0.511 1.252,0.511 1.227,0.46 1.252,0.435 1.253,0.408 1.226,0.409 1.253,0.384 1.252,0.358 1.227,0.357 1.252,0.333 1.253,0.281 1.227,0.23 1.252,0.179 1.253,0.102 1.226,0.026 1.253,-0.077 1.252,-0.205 1.253,-0.281 1.226,-0.434 1.253,-0.537 1.252,-0.664 1.227,-0.793 1.252,-0.894 1.253,-0.997 1.227,-1.074 1.252,-1.175 1.252,-1.227 1.227,-1.304 1.253,-1.354 1.252,-1.432 1.253,-1.457 1.226,-1.482 1.253,-1.534 1.252,-1.533 1.227,-1.559 1.252,-1.559 1.253,-1.534 1.227,-1.508 1.252,-1.457 1.252,-1.38 1.227,-1.329 1.253,-1.201 1.252,-1.125 1.227,-0.997 1.252,-0.894 1.253,-0.767 1.252,-0.69 1.227,-0.562 1.252,-0.461 1.253,-0.383 1.227,-0.332 1.252,-0.23 1.252,-0.205 1.227,-0.153 1.253,-0.102 1.252,-0.103 1.227,-0.051 1.252,-0.051 0,-0.102 -1.252,0 -1.227,0 -1.252,0 -1.253,0 -1.227,0 -1.252,0 -1.252,0 -1.227,0 -1.253,0 -1.252,0 -1.227,0 -1.252,0 -1.253,0 -1.252,0 -1.227,0 -1.252,0 -1.253,0 -1.227,0 L 99.553,0 98.301,0 97.074,0 95.821,0 94.569,0 93.342,0 92.09,0 90.837,0 89.611,0 88.358,0 87.106,0 85.853,0 84.626,0 83.374,0 82.122,0 80.895,0 79.642,0 78.39,0 77.163,0 75.911,0 74.658,0 73.432,0 72.179,0 70.927,0 69.674,0 68.448,0 67.195,0 65.943,0 64.716,0 63.463,0 62.211,0 60.984,0 59.732,0 58.479,0 57.253,0 56,0 54.748,0 53.521,0 52.269,0 51.016,0 49.764,0 48.537,0 47.285,0 46.032,0 44.805,0 43.553,0 42.3,0 41.074,0 39.821,0 38.569,0 37.342,0 36.09,0 34.837,0 33.585,0 32.358,0 31.106,0 29.853,0 28.626,0 27.374,0 26.122,0 24.895,0 23.642,0 22.39,0 21.163,0 19.911,0 18.658,0 17.406,0 16.179,0 14.927,0 13.674,0 12.447,0 11.195,0 9.943,0 8.716,0 7.463,0 6.211,0 4.984,0 3.732,0 2.479,0 1.252,0 0,0"
             style="fill:none;stroke:#4d4dcc;stroke-width:2;stroke-linecap:butt;stroke-linejoin:round;stroke-miterlimit:10;stroke-dasharray:none;stroke-opacity:1"
             id="path3108"
             inkscape:connector-curvature="0" />
        </g>
        <g
           id="g3110"
           transform="translate(24.934,25.9384)">
          <path
             d="M 0,0 136.92,0"
             style="fill:none;stroke:#000000;stroke-width:0.5;stroke-linecap:butt;stroke-linejoin:round;stroke-miterlimit:10;stroke-dasharray:6;stroke-dashoffset:0;stroke-opacity:1"
             id="path3112"
             inkscape:connector-curvature="0" />
        </g>
        <g
           id="g3118"
           transform="matrix(1.6394791,0,0,0.99486263,72.989976,26.233689)"
           style="fill:#2b992b;fill-opacity:0.29081634;stroke-width:1.56601347;stroke-miterlimit:4;stroke-dasharray:none">
          <path
             d="m 0,0 0,0 0,107.989 16.102,0 L 16.102,0 0,0 Z"
             style="fill:#2b992b;stroke:#2b992b;stroke-width:1.56601347;stroke-linecap:butt;stroke-linejoin:miter;stroke-miterlimit:4;stroke-dasharray:none;stroke-opacity:1;fill-opacity:0.29081634"
             id="path3120"
             inkscape:connector-curvature="0" />
        </g>
        <g
           id="g3122"
           transform="translate(-82.024387,-51.71981)">
          <g
             id="g3124" />
          <g
             id="g3130">
            <g
               clip-path="url(#clipPath3126)"
               id="g3132"
               style="opacity:0.30999804">
              <path
                 d="m 85.739,133.945 -16.256,0 0,-107.989 16.256,0 0,107.989 z"
                 style="fill:#2b992b;fill-opacity:1;fill-rule:evenodd;stroke:none"
                 id="path3134"
                 inkscape:connector-curvature="0" />
            </g>
          </g>
        </g>
      </g>
    </g>
    <text
       y="29.11998"
       x="64.36026"
       style="font-variant:normal;font-weight:normal;font-stretch:normal;font-size:12.5px;font-family:Arial;-inkscape-font-specification:ArialMT;writing-mode:lr-tb;fill:#231f20;fill-opacity:1;fill-rule:nonzero;stroke:none"
       id="text3000">
      <tspan
         x="64.36026 74.772758 81.722755 87.972755 94.92276 101.87276 108.82276 111.59776 117.84776 124.79776 127.57277 131.04776 137.99776 142.16026 149.11026 156.06026 163.01025 167.17276 170.64775 173.42276 180.37276 186.62276"
         y="29.11998"
         sodipodi:role="line"
         id="tspan3002">Mechanical properties</tspan>
      <tspan
         x="83.122757 90.072754 93.54776 97.022758 103.97276 108.13526 111.61026 115.08526 122.03526 126.19777 129.67276 132.44777 135.22276 137.99776 144.24776 151.19775 154.67276 157.44775 164.39775"
         y="44.119984"
         sodipodi:role="line"
         id="tspan3004">after fertilization</tspan>
    </text>
    <g
       id="g3138"
       transform="matrix(1.25,0,0,-1.25,126.34177,90.32586)">
      <path
         d="m 0,0 0,27.591 67.133,0 L 67.133,0 0,0 Z"
         style="fill:#ffffff;fill-opacity:1;fill-rule:evenodd;stroke:none"
         id="path3140"
         inkscape:connector-curvature="0" />
    </g>
    <g
       id="g3142"
       transform="matrix(1.25,0,0,-1.25,138.14465,84.52773)">
      <path
         d="m 0,0 0,18.096 47.157,0 L 47.157,0 0,0"
         style="fill:none;stroke:#ffffff;stroke-width:0.5;stroke-linecap:butt;stroke-linejoin:round;stroke-miterlimit:10;stroke-dasharray:none;stroke-opacity:1"
         id="path3144"
         inkscape:connector-curvature="0" />
    </g>
    <g
       id="g3146"
       transform="matrix(1.2501841,0,0,-1.2000594,124.92974,91.402264)">
      <path
         d="M 0,0 0,30.089 M 68.257,0 l 0,30.089 M 0,0 68.257,0 M 0,30.089 l 68.257,0 M 0,0 0,30.089 M 0,0 68.257,0 M 0,0 0,30.089 M 68.257,0 l 0,30.089 M 0,0 68.257,0 M 0,30.089 l 68.257,0"
         style="fill:none;stroke:#000000;stroke-width:0.5;stroke-linecap:butt;stroke-linejoin:round;stroke-miterlimit:10;stroke-dasharray:none;stroke-opacity:1"
         id="path3148"
         inkscape:connector-curvature="0" />
    </g>
    <text
       y="64.792595"
       x="141.81476"
       style="font-variant:normal;font-weight:normal;font-stretch:normal;font-size:8.75px;font-family:Arial;-inkscape-font-specification:ArialMT;writing-mode:lr-tb;fill:#231f20;fill-opacity:1;fill-rule:nonzero;stroke:none"
       id="text3150">
      <tspan
         x="141.81476 147.651 152.51602 154.94852 156.89102 161.75601 166.621 171.48602 175.86102 178.29352 180.72601 185.591 187.53351 192.3985 196.7735 199.20599 204.07101"
         y="64.792595"
         sodipodi:role="line"
         id="tspan3152">Antibody Injected</tspan>
    </text>
    <g
       transform="matrix(1.25,0,0,-1.25,12.18465,217.68573)"
       id="g3154">
      <g
         id="g3156"
         clip-path="url(#clipPath3158)">
        <g
           id="g3162"
           transform="translate(93.5502,124.6223)">
          <path
             d="M 0,0 6.762,0"
             style="fill:none;stroke:#cc994d;stroke-width:4;stroke-linecap:butt;stroke-linejoin:round;stroke-miterlimit:10;stroke-dasharray:none;stroke-opacity:1"
             id="path3164"
             inkscape:connector-curvature="0" />
        </g>
      </g>
    </g>
    <text
       y="76.159233"
       x="141.17203"
       style="font-variant:normal;font-weight:normal;font-stretch:normal;font-size:8.75px;font-family:Arial;-inkscape-font-specification:ArialMT;writing-mode:lr-tb;fill:#231f20;fill-opacity:1;fill-rule:nonzero;stroke:none"
       id="text3166">
      <tspan
         x="141.17203 147.4895 152.35452 157.21951 159.65201 162.56577 167.43076 169.37326 171.80576 174.23825 179.10327 181.04575 185.91077 190.28577 192.71826 197.58325"
         y="76.159233"
         sodipodi:role="line"
         id="tspan3168">Control Injected</tspan>
    </text>
    <g
       transform="matrix(1.25,0,0,-1.25,12.18465,217.68573)"
       id="g3170">
      <g
         id="g3172"
         clip-path="url(#clipPath3174)">
        <g
           id="g3178"
           transform="translate(93.5909,115.7095)">
          <path
             d="M 0,0 6.666,0"
             style="fill:none;stroke:#4d4dcc;stroke-width:4;stroke-linecap:butt;stroke-linejoin:round;stroke-miterlimit:10;stroke-dasharray:none;stroke-opacity:1"
             id="path3180"
             inkscape:connector-curvature="0" />
        </g>
      </g>
    </g>
    <text
       y="88.225227"
       x="141.81476"
       style="font-variant:normal;font-weight:normal;font-stretch:normal;font-size:8.75px;font-family:Arial;-inkscape-font-specification:ArialMT;writing-mode:lr-tb;fill:#231f20;fill-opacity:1;fill-rule:nonzero;stroke:none"
       id="text3182">
      <tspan
         x="141.81476 147.651 149.59351 154.4585 159.32352 161.26602"
         y="88.225227"
         sodipodi:role="line"
         id="tspan3184">Viable</tspan>
    </text>
    <g
       transform="matrix(1.25,0,0,-1.25,12.18465,217.68573)"
       id="g3198">
      <g
         id="g3200"
         clip-path="url(#clipPath3202)">
        <g
           id="g3206"
           transform="translate(93.5909,106.4539)">
          <path
             d="M 0,0 6.666,0"
             style="fill:none;stroke:#2b992b;stroke-width:4;stroke-linecap:butt;stroke-linejoin:round;stroke-miterlimit:10;stroke-dasharray:none;stroke-opacity:1"
             id="path3208"
             inkscape:connector-curvature="0" />
        </g>
      </g>
    </g>
  </g>
</svg>
