<?xml version="1.0" encoding="UTF-8" standalone="no"?>
<!-- Generator: Adobe Illustrator 19.2.1, SVG Export Plug-In . SVG Version: 6.00 Build 0)  -->

<svg
   xmlns:dc="http://purl.org/dc/elements/1.1/"
   xmlns:cc="http://creativecommons.org/ns#"
   xmlns:rdf="http://www.w3.org/1999/02/22-rdf-syntax-ns#"
   xmlns:svg="http://www.w3.org/2000/svg"
   xmlns="http://www.w3.org/2000/svg"
   xmlns:sodipodi="http://sodipodi.sourceforge.net/DTD/sodipodi-0.dtd"
   xmlns:inkscape="http://www.inkscape.org/namespaces/inkscape"
   version="1.0"
   id="Layer_1"
   x="0px"
   y="0px"
   viewBox="0 0 612 342.3"
   style="enable-background:new 0 0 612 342.3;"
   xml:space="preserve"
   inkscape:version="0.48.4 r9939"
   width="100%"
   height="100%"
   sodipodi:docname="model-responses.svg"><metadata
   id="metadata15"><rdf:RDF><cc:Work
       rdf:about=""><dc:format>image/svg+xml</dc:format><dc:type
         rdf:resource="http://purl.org/dc/dcmitype/StillImage" /></cc:Work></rdf:RDF></metadata><defs
   id="defs13" /><sodipodi:namedview
   pagecolor="#ffffff"
   bordercolor="#666666"
   borderopacity="1"
   objecttolerance="10"
   gridtolerance="10"
   guidetolerance="10"
   inkscape:pageopacity="0"
   inkscape:pageshadow="2"
   inkscape:window-width="1614"
   inkscape:window-height="954"
   id="namedview11"
   showgrid="false"
   inkscape:zoom="2.0317224"
   inkscape:cx="337.09504"
   inkscape:cy="183.76961"
   inkscape:window-x="0"
   inkscape:window-y="0"
   inkscape:window-maximized="0"
   inkscape:current-layer="Layer_1" />
<style
   type="text/css"
   id="style3">
	.st0{fill:none;stroke:#000000;stroke-miterlimit:10;}
</style>
<line
   class="st0"
   x1="123.1"
   y1="63.2"
   x2="123.1"
   y2="292.5"
   id="line5" />
<line
   class="st0"
   x1="113.7"
   y1="283.7"
   x2="383.7"
   y2="283.7"
   id="line7" />
<line
   class="st0"
   x1="123.1"
   y1="199.5"
   x2="371.5"
   y2="112.5"
   id="line9" />
<path
   style="fill:none;stroke:#000000;stroke-width:1px;stroke-linecap:butt;stroke-linejoin:miter;stroke-opacity:1"
   d="m 122.55611,283.23681 c 1.70227,-9.51019 7.65591,-50.19358 9.84386,-59.55537 2.52798,-10.81667 4.4247,-24.77393 9.84387,-37.40669 3.72023,-8.67233 9.35471,-20.76947 14.2736,-26.57843 5.11347,-6.03875 11.04471,-10.23677 20.67212,-13.78141 12.53334,-4.61456 16.14818,-6.11736 34.94571,-9.84387 4.18417,-0.82949 43.15439,-6.02941 52.17249,-6.39851 42.15406,-1.72534 65.64314,-3.44535 109.26689,-3.44535"
   id="path3028"
   inkscape:connector-curvature="0"
   transform="translate(-1.0912509e-5,0)"
   sodipodi:nodetypes="cssssssc" /><path
   style="fill:none;stroke:#000000;stroke-width:1px;stroke-linecap:butt;stroke-linejoin:miter;stroke-opacity:1"
   d="m 123.0483,182.09111 c 2.19446,-6.55704 3.62944,-10.87157 6.22449,-15.16841 3.56715,-5.90641 6.08886,-10.35354 9.84387,-13.96055 5.28774,-5.07934 10.24953,-8.46977 15.34243,-11.14643 7.00444,-3.6813 14.27757,-6.36384 24.20705,-8.94393 9.05301,-2.35234 13.29027,-3.5266 29.03939,-5.41414 22.18676,-2.65909 58.90474,-5.04084 67.92267,-5.41412 38.70872,-1.60229 54.93795,-1.72267 99.42304,-2.46096"
   id="path3028-1"
   inkscape:connector-curvature="0"
   sodipodi:nodetypes="cssssssc" /><path
   style="fill:none;stroke:#000000;stroke-width:1px;stroke-linecap:butt;stroke-linejoin:miter;stroke-opacity:1"
   d="m 123.0483,176.27847 c 2.19446,-6.55704 3.62944,-10.87157 6.22449,-15.16841 3.56715,-5.90641 6.08886,-10.35354 9.84387,-13.96055 5.28774,-5.07934 10.24953,-8.46977 15.34243,-11.14643 7.00444,-3.6813 14.27757,-6.36384 24.20705,-8.94393 9.05301,-2.35234 24.80076,-6.50148 40.35983,-8.85949 23.14081,-3.50704 38.24397,-7.21326 63.98513,-9.84386 27.85203,-2.84631 53.95357,-6.15241 91.05577,-9.84386"
   id="path3028-1-7"
   inkscape:connector-curvature="0"
   sodipodi:nodetypes="cssssssc" /><path
   style="fill:none;stroke:#000000;stroke-width:1px;stroke-linecap:butt;stroke-linejoin:miter;stroke-opacity:1"
   d="m 122.55609,165.11045 c 2.19446,-6.55704 3.62944,-10.87158 6.22449,-15.16842 3.56715,-5.90641 6.08886,-10.35354 9.84387,-13.96055 5.28774,-5.07934 10.24953,-8.46977 15.34243,-11.14643 7.00444,-3.6813 14.27757,-6.36384 24.20705,-8.94393 9.05301,-2.35234 24.80076,-6.50148 40.35983,-8.85949 23.14081,-3.50704 38.24397,-7.213254 63.98513,-9.843854 27.85204,-2.84631 53.95358,-6.15241 91.05578,-9.84386"
   id="path3028-1-7-4"
   inkscape:connector-curvature="0"
   sodipodi:nodetypes="cssssssc" /></svg>