<?xml version="1.0" encoding="UTF-8" standalone="no"?>
<!-- Created with Inkscape (http://www.inkscape.org/) -->

<svg
   xmlns:dc="http://purl.org/dc/elements/1.1/"
   xmlns:cc="http://creativecommons.org/ns#"
   xmlns:rdf="http://www.w3.org/1999/02/22-rdf-syntax-ns#"
   xmlns:svg="http://www.w3.org/2000/svg"
   xmlns="http://www.w3.org/2000/svg"
   xmlns:sodipodi="http://sodipodi.sourceforge.net/DTD/sodipodi-0.dtd"
   xmlns:inkscape="http://www.inkscape.org/namespaces/inkscape"
   id="svg2"
   version="1.1"
   inkscape:version="0.48.4 r9939"
   width="970"
   height="321.25"
   xml:space="preserve"
   sodipodi:docname="ClassifierParamTuning.pdf"><metadata
     id="metadata8"><rdf:RDF><cc:Work
         rdf:about=""><dc:format>image/svg+xml</dc:format><dc:type
           rdf:resource="http://purl.org/dc/dcmitype/StillImage" /><dc:title></dc:title></cc:Work></rdf:RDF></metadata><defs
     id="defs6"><clipPath
       clipPathUnits="userSpaceOnUse"
       id="clipPath94"><path
         d="M 0,257 776,257 776,0 0,0 0,257 z"
         id="path96" /></clipPath><clipPath
       clipPathUnits="userSpaceOnUse"
       id="clipPath432"><path
         d="M 0,0 776,0 776,257 0,257 0,0 z"
         id="path434" /></clipPath></defs><sodipodi:namedview
     pagecolor="#ffffff"
     bordercolor="#666666"
     borderopacity="1"
     objecttolerance="10"
     gridtolerance="10"
     guidetolerance="10"
     inkscape:pageopacity="0"
     inkscape:pageshadow="2"
     inkscape:window-width="1666"
     inkscape:window-height="790"
     id="namedview4"
     showgrid="false"
     inkscape:zoom="0.93580461"
     inkscape:cx="246.38526"
     inkscape:cy="230.6596"
     inkscape:window-x="0"
     inkscape:window-y="0"
     inkscape:window-maximized="0"
     inkscape:current-layer="g10" /><g
     id="g10"
     inkscape:groupmode="layer"
     inkscape:label="ClassifierParamTuning"
     transform="matrix(1.25,0,0,-1.25,0,321.25)"><path
       d="M 0,0 776,0 776,257 0,257 0,0 z"
       style="fill:#ffffff;fill-opacity:1;fill-rule:nonzero;stroke:none"
       id="path12" /><path
       d="m 45.2,199.5 -1,0 0,-171.94 1,0 0,171.94 z m 2.5,-1 -3,6 -3,-6 6,0 z"
       style="fill:#000000;fill-opacity:1;fill-rule:nonzero;stroke:none"
       id="path14" /><path
       d="m 39.34,36.34 191.5,0 0,-1 -191.5,0 0,1 z m 190.5,2.5 6,-3 -6,-3 0,6 z"
       style="fill:#000000;fill-opacity:1;fill-rule:nonzero;stroke:none"
       id="path16" /><text
       transform="matrix(1,0,0,-1,17.6401,121.8398)"
       id="text18"><tspan
         style="fill:#000000;fill-opacity:1;fill-rule:nonzero;stroke:none;font-family:Calibri Light;font-variant:normal;font-weight:300;font-stretch:normal;font-size:16.08;writing-mode:lr;-inkscape-font-specification:Calibri-Light"
         x="0"
         y="0"
         id="tspan20">x</tspan></text>
<text
       transform="matrix(1,0,0,-1,24.3599,118)"
       id="text22"><tspan
         style="fill:#000000;fill-opacity:1;fill-rule:nonzero;stroke:none;font-family:Calibri Light;font-variant:normal;font-weight:300;font-stretch:normal;font-size:10.56;writing-mode:lr;-inkscape-font-specification:Calibri-Light"
         x="0"
         y="0"
         id="tspan24">2</tspan></text>
<text
       transform="matrix(1,0,0,-1,132.9102,12.6904)"
       id="text26"><tspan
         style="fill:#000000;fill-opacity:1;fill-rule:nonzero;stroke:none;font-family:Calibri Light;font-variant:normal;font-weight:300;font-stretch:normal;font-size:16.104;writing-mode:lr;-inkscape-font-specification:Calibri-Light"
         x="0"
         y="0"
         id="tspan28">x</tspan></text>
<text
       transform="matrix(1,0,0,-1,139.6299,8.8496)"
       id="text30"><tspan
         style="fill:#000000;fill-opacity:1;fill-rule:nonzero;stroke:none;font-family:Calibri Light;font-variant:normal;font-weight:300;font-stretch:normal;font-size:10.584;writing-mode:lr;-inkscape-font-specification:Calibri-Light"
         x="0"
         y="0"
         id="tspan32">1</tspan></text>
<path
       d="m 311.45,198.5 -1,0 0,-171.94 1,0 0,171.94 z m 2.5,-1 -3,6 -3,-6 6,0 z"
       style="fill:#000000;fill-opacity:1;fill-rule:nonzero;stroke:none"
       id="path34" /><path
       d="m 305.59,35.34 191.5,0 0,-1 -191.5,0 0,1 z m 190.5,2.5 6,-3 -6,-3 0,6 z"
       style="fill:#000000;fill-opacity:1;fill-rule:nonzero;stroke:none"
       id="path36" /><text
       transform="matrix(1,0,0,-1,283.9702,120.8301)"
       id="text38"><tspan
         style="fill:#000000;fill-opacity:1;fill-rule:nonzero;stroke:none;font-family:Calibri Light;font-variant:normal;font-weight:300;font-stretch:normal;font-size:16.104;writing-mode:lr;-inkscape-font-specification:Calibri-Light"
         x="0"
         y="0"
         id="tspan40">x</tspan></text>
<text
       transform="matrix(1,0,0,-1,290.6899,116.9902)"
       id="text42"><tspan
         style="fill:#000000;fill-opacity:1;fill-rule:nonzero;stroke:none;font-family:Calibri Light;font-variant:normal;font-weight:300;font-stretch:normal;font-size:10.584;writing-mode:lr;-inkscape-font-specification:Calibri-Light"
         x="0"
         y="0"
         id="tspan44">2</tspan></text>
<text
       transform="matrix(1,0,0,-1,399.2202,11.7002)"
       id="text46"><tspan
         style="fill:#000000;fill-opacity:1;fill-rule:nonzero;stroke:none;font-family:Calibri Light;font-variant:normal;font-weight:300;font-stretch:normal;font-size:16.08;writing-mode:lr;-inkscape-font-specification:Calibri-Light"
         x="0"
         y="0"
         id="tspan48">x</tspan></text>
<text
       transform="matrix(1,0,0,-1,405.9399,7.8604)"
       id="text50"><tspan
         style="fill:#000000;fill-opacity:1;fill-rule:nonzero;stroke:none;font-family:Calibri Light;font-variant:normal;font-weight:300;font-stretch:normal;font-size:10.56;writing-mode:lr;-inkscape-font-specification:Calibri-Light"
         x="0"
         y="0"
         id="tspan52">1</tspan></text>
<g
       id="g54"
       transform="translate(44.7,170.29)"><path
         d="M 0,0 164.67,-136.11"
         style="fill:none;stroke:#000000;stroke-opacity:1;stroke-width:1.5;stroke-linecap:butt;stroke-linejoin:miter;stroke-miterlimit:10;stroke-dasharray:none"
         id="path56" /></g><path
       d="m 573.95,197.84 -1,0 0,-171.95 1,0 0,171.95 z m 2.5,-1 -3,6 -3,-6 6,0 z"
       style="fill:#000000;fill-opacity:1;fill-rule:nonzero;stroke:none"
       id="path66" /><path
       d="m 568.09,34.68 191.5,0 0,-1 -191.5,0 0,1 z m 190.5,2.5 6,-3 -6,-3 0,6 z"
       style="fill:#000000;fill-opacity:1;fill-rule:nonzero;stroke:none"
       id="path68" /><text
       transform="matrix(1,0,0,-1,546.5303,120.1802)"
       id="text70"><tspan
         style="fill:#000000;fill-opacity:1;fill-rule:nonzero;stroke:none;font-family:Calibri Light;font-variant:normal;font-weight:300;font-stretch:normal;font-size:16.08;writing-mode:lr;-inkscape-font-specification:Calibri-Light"
         x="0"
         y="0"
         id="tspan72">x</tspan></text>
<text
       transform="matrix(1,0,0,-1,553.25,116.3398)"
       id="text74"><tspan
         style="fill:#000000;fill-opacity:1;fill-rule:nonzero;stroke:none;font-family:Calibri Light;font-variant:normal;font-weight:300;font-stretch:normal;font-size:10.56;writing-mode:lr;-inkscape-font-specification:Calibri-Light"
         x="0"
         y="0"
         id="tspan76">2</tspan></text>
<text
       transform="matrix(1,0,0,-1,661.77998,11.02916)"
       id="text78"><tspan
         style="fill:#000000;fill-opacity:1;fill-rule:nonzero;stroke:none;font-family:Calibri Light;font-variant:normal;font-weight:300;font-stretch:normal;font-size:16.08;writing-mode:lr;-inkscape-font-specification:Calibri-Light"
         x="0"
         y="0"
         id="tspan80">x</tspan></text>
<text
       transform="matrix(1,0,0,-1,668.5195,7.1904)"
       id="text82"><tspan
         style="fill:#000000;fill-opacity:1;fill-rule:nonzero;stroke:none;font-family:Calibri Light;font-variant:normal;font-weight:300;font-stretch:normal;font-size:10.56;writing-mode:lr;-inkscape-font-specification:Calibri-Light"
         x="0"
         y="0"
         id="tspan84">1</tspan></text>
<g
       id="g90"><g
         id="g92"
         clip-path="url(#clipPath94)"><g
           id="g98"
           transform="translate(194.24,179.57)"><path
             d="M 0,0 C 0,2.71 2.19,4.9 4.9,4.9 7.6,4.9 9.8,2.71 9.8,0 9.8,-2.7 7.6,-4.9 4.9,-4.9 2.19,-4.9 0,-2.7 0,0 z"
             style="fill:none;stroke:#0000ff;stroke-opacity:1;stroke-width:1.5;stroke-linecap:butt;stroke-linejoin:miter;stroke-miterlimit:10;stroke-dasharray:none"
             id="path100" /></g><g
           id="g102"
           transform="translate(155.34,178.22)"><path
             d="M 0,0 C 0,2.71 2.19,4.9 4.9,4.9 7.61,4.9 9.8,2.71 9.8,0 9.8,-2.71 7.61,-4.9 4.9,-4.9 2.19,-4.9 0,-2.71 0,0 z"
             style="fill:none;stroke:#0000ff;stroke-opacity:1;stroke-width:1.5;stroke-linecap:butt;stroke-linejoin:miter;stroke-miterlimit:10;stroke-dasharray:none"
             id="path104" /></g><g
           id="g106"
           transform="translate(184.04,146.07)"><path
             d="M 0,0 C 0,2.71 2.19,4.9 4.9,4.9 7.61,4.9 9.8,2.71 9.8,0 9.8,-2.7 7.61,-4.9 4.9,-4.9 2.19,-4.9 0,-2.7 0,0 z"
             style="fill:none;stroke:#0000ff;stroke-opacity:1;stroke-width:1.5;stroke-linecap:butt;stroke-linejoin:miter;stroke-miterlimit:10;stroke-dasharray:none"
             id="path108" /></g><g
           id="g110"
           transform="translate(199.14,111.6)"><path
             d="M 0,0 C 0,2.71 2.19,4.9 4.9,4.9 7.6,4.9 9.8,2.71 9.8,0 9.8,-2.7 7.6,-4.9 4.9,-4.9 2.19,-4.9 0,-2.7 0,0 z"
             style="fill:none;stroke:#0000ff;stroke-opacity:1;stroke-width:1.5;stroke-linecap:butt;stroke-linejoin:miter;stroke-miterlimit:10;stroke-dasharray:none"
             id="path112" /></g><g
           id="g114"
           transform="translate(99.46,194.67)"><path
             d="M 0,0 C 0,2.71 2.19,4.9 4.9,4.9 7.6,4.9 9.8,2.71 9.8,0 9.8,-2.71 7.6,-4.9 4.9,-4.9 2.19,-4.9 0,-2.71 0,0 z"
             style="fill:none;stroke:#0000ff;stroke-opacity:1;stroke-width:1.5;stroke-linecap:butt;stroke-linejoin:miter;stroke-miterlimit:10;stroke-dasharray:none"
             id="path116" /></g><g
           id="g118"
           transform="translate(67.53,156.2)"><path
             d="M 0,0 C 0,2.71 2.2,4.9 4.9,4.9 7.61,4.9 9.8,2.71 9.8,0 9.8,-2.7 7.61,-4.9 4.9,-4.9 2.2,-4.9 0,-2.7 0,0 z"
             style="fill:none;stroke:#0000ff;stroke-opacity:1;stroke-width:1.5;stroke-linecap:butt;stroke-linejoin:miter;stroke-miterlimit:10;stroke-dasharray:none"
             id="path120" /></g><path
           d="m 67.53,47.89 9.75,0 0,9.75 -9.75,0 0,-9.75 z"
           style="fill:none;stroke:#ff0000;stroke-opacity:1;stroke-width:1.5;stroke-linecap:butt;stroke-linejoin:miter;stroke-miterlimit:10;stroke-dasharray:none"
           id="path122" /><path
           d="m 145.59,100.17 9.75,0 0,9.75 -9.75,0 0,-9.75 z"
           style="fill:none;stroke:#ff0000;stroke-opacity:1;stroke-width:1.5;stroke-linecap:butt;stroke-linejoin:miter;stroke-miterlimit:10;stroke-dasharray:none"
           id="path124" /><path
           d="m 89.71,102.99 9.75,0 0,9.75 -9.75,0 0,-9.75 z"
           style="fill:none;stroke:#ff0000;stroke-opacity:1;stroke-width:1.5;stroke-linecap:butt;stroke-linejoin:miter;stroke-miterlimit:10;stroke-dasharray:none"
           id="path126" /><path
           d="m 110.93,95.23 9.75,0 0,9.75 -9.75,0 0,-9.75 z"
           style="fill:none;stroke:#ff0000;stroke-opacity:1;stroke-width:1.5;stroke-linecap:butt;stroke-linejoin:miter;stroke-miterlimit:10;stroke-dasharray:none"
           id="path128" /><path
           d="m 99.46,53.86 9.75,0 0,9.75 -9.75,0 0,-9.75 z"
           style="fill:none;stroke:#ff0000;stroke-opacity:1;stroke-width:1.5;stroke-linecap:butt;stroke-linejoin:miter;stroke-miterlimit:10;stroke-dasharray:none"
           id="path130" /><g
           id="g132"
           transform="translate(112.88,117.64)"><path
             d="M 0,0 C 0,2.71 2.19,4.9 4.9,4.9 7.61,4.9 9.8,2.71 9.8,0 9.8,-2.7 7.61,-4.9 4.9,-4.9 2.19,-4.9 0,-2.7 0,0 z"
             style="fill:none;stroke:#0000ff;stroke-opacity:1;stroke-width:1.5;stroke-linecap:butt;stroke-linejoin:miter;stroke-miterlimit:10;stroke-dasharray:none"
             id="path134" /></g><g
           id="g136"
           transform="translate(216.24,68.83)"><path
             d="M 0,0 C 0,2.7 2.19,4.9 4.9,4.9 7.61,4.9 9.8,2.7 9.8,0 9.8,-2.71 7.61,-4.9 4.9,-4.9 2.19,-4.9 0,-2.71 0,0 z"
             style="fill:none;stroke:#0000ff;stroke-opacity:1;stroke-width:1.5;stroke-linecap:butt;stroke-linejoin:miter;stroke-miterlimit:10;stroke-dasharray:none"
             id="path138" /></g><g
           id="g140"
           transform="translate(129.04,74.46)"><path
             d="M 0,0 C 0,2.71 2.19,4.9 4.9,4.9 7.6,4.9 9.79,2.71 9.79,0 9.79,-2.7 7.6,-4.9 4.9,-4.9 2.19,-4.9 0,-2.7 0,0 z"
             style="fill:none;stroke:#0000ff;stroke-opacity:1;stroke-width:1.5;stroke-linecap:butt;stroke-linejoin:miter;stroke-miterlimit:10;stroke-dasharray:none"
             id="path142" /></g><path
           d="m 208.8,143.62 9.75,0 0,9.75 -9.75,0 0,-9.75 z"
           style="fill:none;stroke:#ff0000;stroke-opacity:1;stroke-width:1.5;stroke-linecap:butt;stroke-linejoin:miter;stroke-miterlimit:10;stroke-dasharray:none"
           id="path144" /><path
           d="m 86.26,73.38 9.75,0 0,9.75 -9.75,0 0,-9.75 z"
           style="fill:none;stroke:#ff0000;stroke-opacity:1;stroke-width:1.5;stroke-linecap:butt;stroke-linejoin:miter;stroke-miterlimit:10;stroke-dasharray:none"
           id="path146" /><path
           d="m 116.63,55.6 9.75,0 0,9.75 -9.75,0 0,-9.75 z"
           style="fill:none;stroke:#ff0000;stroke-opacity:1;stroke-width:1.5;stroke-linecap:butt;stroke-linejoin:miter;stroke-miterlimit:10;stroke-dasharray:none"
           id="path148" /><path
           d="m 138.83,186.47 9.75,0 0,9.75 -9.75,0 0,-9.75 z"
           style="fill:none;stroke:#ff0000;stroke-opacity:1;stroke-width:1.5;stroke-linecap:butt;stroke-linejoin:miter;stroke-miterlimit:10;stroke-dasharray:none"
           id="path150" /><path
           d="m 167.93,112.35 9.75,0 0,9.75 -9.75,0 0,-9.75 z"
           style="fill:none;stroke:#ff0000;stroke-opacity:1;stroke-width:1.5;stroke-linecap:butt;stroke-linejoin:miter;stroke-miterlimit:10;stroke-dasharray:none"
           id="path152" /><path
           d="m 155.34,69.61 9.75,0 0,9.75 -9.75,0 0,-9.75 z"
           style="fill:none;stroke:#ff0000;stroke-opacity:1;stroke-width:1.5;stroke-linecap:butt;stroke-linejoin:miter;stroke-miterlimit:10;stroke-dasharray:none"
           id="path154" /><path
           d="m 129.08,123.39 9.75,0 0,9.75 -9.75,0 0,-9.75 z"
           style="fill:none;stroke:#ff0000;stroke-opacity:1;stroke-width:1.5;stroke-linecap:butt;stroke-linejoin:miter;stroke-miterlimit:10;stroke-dasharray:none"
           id="path156" /><g
           id="g158"
           transform="translate(196.04,134.07)"><path
             d="M 0,0 C 0,2.71 2.19,4.9 4.9,4.9 7.61,4.9 9.8,2.71 9.8,0 9.8,-2.7 7.61,-4.9 4.9,-4.9 2.19,-4.9 0,-2.7 0,0 z"
             style="fill:none;stroke:#0000ff;stroke-opacity:1;stroke-width:1.5;stroke-linecap:butt;stroke-linejoin:miter;stroke-miterlimit:10;stroke-dasharray:none"
             id="path160" /></g><g
           id="g162"
           transform="translate(89.71,135.5)"><path
             d="M 0,0 C 0,2.71 2.19,4.9 4.9,4.9 7.6,4.9 9.8,2.71 9.8,0 9.8,-2.7 7.6,-4.9 4.9,-4.9 2.19,-4.9 0,-2.7 0,0 z"
             style="fill:none;stroke:#0000ff;stroke-opacity:1;stroke-width:1.5;stroke-linecap:butt;stroke-linejoin:miter;stroke-miterlimit:10;stroke-dasharray:none"
             id="path164" /></g><g
           id="g166"
           transform="translate(62.91,186.45)"><path
             d="M 0,0 C 0,2.7 2.19,4.9 4.9,4.9 7.61,4.9 9.8,2.7 9.8,0 9.8,-2.71 7.61,-4.9 4.9,-4.9 2.19,-4.9 0,-2.71 0,0 z"
             style="fill:none;stroke:#0000ff;stroke-opacity:1;stroke-width:1.5;stroke-linecap:butt;stroke-linejoin:miter;stroke-miterlimit:10;stroke-dasharray:none"
             id="path168" /></g><g
           id="g170"
           transform="translate(106.87,165.39)"><path
             d="M 0,0 C 0,2.71 2.2,4.9 4.9,4.9 7.61,4.9 9.8,2.71 9.8,0 9.8,-2.71 7.61,-4.9 4.9,-4.9 2.2,-4.9 0,-2.71 0,0 z"
             style="fill:none;stroke:#0000ff;stroke-opacity:1;stroke-width:1.5;stroke-linecap:butt;stroke-linejoin:miter;stroke-miterlimit:10;stroke-dasharray:none"
             id="path172" /></g><g
           id="g174"
           transform="translate(150.83,144.34)"><path
             d="M 0,0 C 0,2.7 2.2,4.9 4.9,4.9 7.61,4.9 9.8,2.7 9.8,0 9.8,-2.71 7.61,-4.9 4.9,-4.9 2.2,-4.9 0,-2.71 0,0 z"
             style="fill:none;stroke:#0000ff;stroke-opacity:1;stroke-width:1.5;stroke-linecap:butt;stroke-linejoin:miter;stroke-miterlimit:10;stroke-dasharray:none"
             id="path176" /></g><g
           id="g178"
           transform="translate(189.34,89.07)"><path
             d="M 0,0 C 0,2.71 2.19,4.9 4.9,4.9 7.6,4.9 9.8,2.71 9.8,0 9.8,-2.71 7.6,-4.9 4.9,-4.9 2.19,-4.9 0,-2.71 0,0 z"
             style="fill:none;stroke:#0000ff;stroke-opacity:1;stroke-width:1.5;stroke-linecap:butt;stroke-linejoin:miter;stroke-miterlimit:10;stroke-dasharray:none"
             id="path180" /></g><g
           id="g182"
           transform="translate(196.04,57.66)"><path
             d="M 0,0 C 0,2.71 2.19,4.9 4.9,4.9 7.61,4.9 9.8,2.71 9.8,0 9.8,-2.71 7.61,-4.9 4.9,-4.9 2.19,-4.9 0,-2.71 0,0 z"
             style="fill:none;stroke:#0000ff;stroke-opacity:1;stroke-width:1.5;stroke-linecap:butt;stroke-linejoin:miter;stroke-miterlimit:10;stroke-dasharray:none"
             id="path184" /></g><g
           id="g186"
           transform="translate(172.81,202.81)"><path
             d="M 0,0 C 0,2.71 2.19,4.9 4.9,4.9 7.6,4.9 9.8,2.71 9.8,0 9.8,-2.71 7.6,-4.9 4.9,-4.9 2.19,-4.9 0,-2.71 0,0 z"
             style="fill:none;stroke:#0000ff;stroke-opacity:1;stroke-width:1.5;stroke-linecap:butt;stroke-linejoin:miter;stroke-miterlimit:10;stroke-dasharray:none"
             id="path188" /></g><g
           id="g190"
           transform="translate(53.11,130.12)"><path
             d="M 0,0 C 0,2.71 2.19,4.9 4.9,4.9 7.61,4.9 9.8,2.71 9.8,0 9.8,-2.7 7.61,-4.9 4.9,-4.9 2.19,-4.9 0,-2.7 0,0 z"
             style="fill:none;stroke:#0000ff;stroke-opacity:1;stroke-width:1.5;stroke-linecap:butt;stroke-linejoin:miter;stroke-miterlimit:10;stroke-dasharray:none"
             id="path192" /></g><g
           id="g194"
           transform="translate(216.24,94.1)"><path
             d="M 0,0 C 0,2.71 2.19,4.9 4.9,4.9 7.61,4.9 9.8,2.71 9.8,0 9.8,-2.7 7.61,-4.9 4.9,-4.9 2.19,-4.9 0,-2.7 0,0 z"
             style="fill:none;stroke:#0000ff;stroke-opacity:1;stroke-width:1.5;stroke-linecap:butt;stroke-linejoin:miter;stroke-miterlimit:10;stroke-dasharray:none"
             id="path196" /></g><path
           d="m 154.52,46.92 9.75,0 0,9.75 -9.75,0 0,-9.75 z"
           style="fill:none;stroke:#ff0000;stroke-opacity:1;stroke-width:1.5;stroke-linecap:butt;stroke-linejoin:miter;stroke-miterlimit:10;stroke-dasharray:none"
           id="path198" /><g
           id="g200"
           transform="translate(62.61,95.41)"><path
             d="M 0,0 C 0,2.7 2.19,4.9 4.9,4.9 7.6,4.9 9.8,2.7 9.8,0 9.8,-2.71 7.6,-4.9 4.9,-4.9 2.19,-4.9 0,-2.71 0,0 z"
             style="fill:none;stroke:#0000ff;stroke-opacity:1;stroke-width:1.5;stroke-linecap:butt;stroke-linejoin:miter;stroke-miterlimit:10;stroke-dasharray:none"
             id="path202" /></g><g
           id="g204"
           transform="translate(460.75,178.28)"><path
             d="M 0,0 C 0,2.7 2.2,4.9 4.9,4.9 7.61,4.9 9.8,2.7 9.8,0 9.8,-2.71 7.61,-4.9 4.9,-4.9 2.2,-4.9 0,-2.71 0,0 z"
             style="fill:none;stroke:#0000ff;stroke-opacity:1;stroke-width:1.5;stroke-linecap:butt;stroke-linejoin:miter;stroke-miterlimit:10;stroke-dasharray:none"
             id="path206" /></g><g
           id="g208"
           transform="translate(421.85,176.92)"><path
             d="M 0,0 C 0,2.71 2.2,4.9 4.9,4.9 7.61,4.9 9.8,2.71 9.8,0 9.8,-2.7 7.61,-4.9 4.9,-4.9 2.2,-4.9 0,-2.7 0,0 z"
             style="fill:none;stroke:#0000ff;stroke-opacity:1;stroke-width:1.5;stroke-linecap:butt;stroke-linejoin:miter;stroke-miterlimit:10;stroke-dasharray:none"
             id="path210" /></g><g
           id="g212"
           transform="translate(450.55,144.78)"><path
             d="M 0,0 C 0,2.7 2.2,4.9 4.9,4.9 7.61,4.9 9.8,2.7 9.8,0 9.8,-2.71 7.61,-4.9 4.9,-4.9 2.2,-4.9 0,-2.71 0,0 z"
             style="fill:none;stroke:#0000ff;stroke-opacity:1;stroke-width:1.5;stroke-linecap:butt;stroke-linejoin:miter;stroke-miterlimit:10;stroke-dasharray:none"
             id="path214" /></g><g
           id="g216"
           transform="translate(465.65,110.3)"><path
             d="M 0,0 C 0,2.71 2.2,4.9 4.9,4.9 7.61,4.9 9.8,2.71 9.8,0 9.8,-2.7 7.61,-4.9 4.9,-4.9 2.2,-4.9 0,-2.7 0,0 z"
             style="fill:none;stroke:#0000ff;stroke-opacity:1;stroke-width:1.5;stroke-linecap:butt;stroke-linejoin:miter;stroke-miterlimit:10;stroke-dasharray:none"
             id="path218" /></g><g
           id="g220"
           transform="translate(365.97,193.37)"><path
             d="M 0,0 C 0,2.71 2.2,4.9 4.9,4.9 7.61,4.9 9.8,2.71 9.8,0 9.8,-2.7 7.61,-4.9 4.9,-4.9 2.2,-4.9 0,-2.7 0,0 z"
             style="fill:none;stroke:#0000ff;stroke-opacity:1;stroke-width:1.5;stroke-linecap:butt;stroke-linejoin:miter;stroke-miterlimit:10;stroke-dasharray:none"
             id="path222" /></g><g
           id="g224"
           transform="translate(334.05,154.91)"><path
             d="M 0,0 C 0,2.7 2.19,4.89 4.9,4.89 7.6,4.89 9.8,2.7 9.8,0 9.8,-2.71 7.6,-4.9 4.9,-4.9 2.19,-4.9 0,-2.71 0,0 z"
             style="fill:none;stroke:#0000ff;stroke-opacity:1;stroke-width:1.5;stroke-linecap:butt;stroke-linejoin:miter;stroke-miterlimit:10;stroke-dasharray:none"
             id="path226" /></g><path
           d="m 334.05,46.59 9.75,0 0,9.75 -9.75,0 0,-9.75 z"
           style="fill:none;stroke:#ff0000;stroke-opacity:1;stroke-width:1.5;stroke-linecap:butt;stroke-linejoin:miter;stroke-miterlimit:10;stroke-dasharray:none"
           id="path228" /><path
           d="m 412.1,98.87 9.75,0 0,9.75 -9.75,0 0,-9.75 z"
           style="fill:none;stroke:#ff0000;stroke-opacity:1;stroke-width:1.5;stroke-linecap:butt;stroke-linejoin:miter;stroke-miterlimit:10;stroke-dasharray:none"
           id="path230" /><path
           d="m 356.22,101.7 9.75,0 0,9.75 -9.75,0 0,-9.75 z"
           style="fill:none;stroke:#ff0000;stroke-opacity:1;stroke-width:1.5;stroke-linecap:butt;stroke-linejoin:miter;stroke-miterlimit:10;stroke-dasharray:none"
           id="path232" /><path
           d="m 377.45,93.93 9.75,0 0,9.75 -9.75,0 0,-9.75 z"
           style="fill:none;stroke:#ff0000;stroke-opacity:1;stroke-width:1.5;stroke-linecap:butt;stroke-linejoin:miter;stroke-miterlimit:10;stroke-dasharray:none"
           id="path234" /><path
           d="m 365.97,52.56 9.75,0 0,9.75 -9.75,0 0,-9.75 z"
           style="fill:none;stroke:#ff0000;stroke-opacity:1;stroke-width:1.5;stroke-linecap:butt;stroke-linejoin:miter;stroke-miterlimit:10;stroke-dasharray:none"
           id="path236" /><g
           id="g238"
           transform="translate(379.39,116.35)"><path
             d="M 0,0 C 0,2.7 2.2,4.9 4.9,4.9 7.61,4.9 9.8,2.7 9.8,0 9.8,-2.71 7.61,-4.9 4.9,-4.9 2.2,-4.9 0,-2.71 0,0 z"
             style="fill:none;stroke:#0000ff;stroke-opacity:1;stroke-width:1.5;stroke-linecap:butt;stroke-linejoin:miter;stroke-miterlimit:10;stroke-dasharray:none"
             id="path240" /></g><g
           id="g242"
           transform="translate(482.75,67.53)"><path
             d="M 0,0 C 0,2.71 2.2,4.9 4.9,4.9 7.61,4.9 9.8,2.71 9.8,0 9.8,-2.7 7.61,-4.9 4.9,-4.9 2.2,-4.9 0,-2.7 0,0 z"
             style="fill:none;stroke:#0000ff;stroke-opacity:1;stroke-width:1.5;stroke-linecap:butt;stroke-linejoin:miter;stroke-miterlimit:10;stroke-dasharray:none"
             id="path244" /></g><g
           id="g246"
           transform="translate(395.55,73.17)"><path
             d="M 0,0 C 0,2.7 2.19,4.9 4.9,4.9 7.61,4.9 9.8,2.7 9.8,0 9.8,-2.71 7.61,-4.9 4.9,-4.9 2.19,-4.9 0,-2.71 0,0 z"
             style="fill:none;stroke:#0000ff;stroke-opacity:1;stroke-width:1.5;stroke-linecap:butt;stroke-linejoin:miter;stroke-miterlimit:10;stroke-dasharray:none"
             id="path248" /></g><path
           d="m 475.31,142.32 9.75,0 0,9.75 -9.75,0 0,-9.75 z"
           style="fill:none;stroke:#ff0000;stroke-opacity:1;stroke-width:1.5;stroke-linecap:butt;stroke-linejoin:miter;stroke-miterlimit:10;stroke-dasharray:none"
           id="path250" /><path
           d="m 352.77,72.08 9.75,0 0,9.75 -9.75,0 0,-9.75 z"
           style="fill:none;stroke:#ff0000;stroke-opacity:1;stroke-width:1.5;stroke-linecap:butt;stroke-linejoin:miter;stroke-miterlimit:10;stroke-dasharray:none"
           id="path252" /><path
           d="m 383.14,54.3 9.75,0 0,9.75 -9.75,0 0,-9.75 z"
           style="fill:none;stroke:#ff0000;stroke-opacity:1;stroke-width:1.5;stroke-linecap:butt;stroke-linejoin:miter;stroke-miterlimit:10;stroke-dasharray:none"
           id="path254" /><path
           d="m 405.35,185.17 9.75,0 0,9.75 -9.75,0 0,-9.75 z"
           style="fill:none;stroke:#ff0000;stroke-opacity:1;stroke-width:1.5;stroke-linecap:butt;stroke-linejoin:miter;stroke-miterlimit:10;stroke-dasharray:none"
           id="path256" /><path
           d="m 434.45,111.06 9.75,0 0,9.75 -9.75,0 0,-9.75 z"
           style="fill:none;stroke:#ff0000;stroke-opacity:1;stroke-width:1.5;stroke-linecap:butt;stroke-linejoin:miter;stroke-miterlimit:10;stroke-dasharray:none"
           id="path258" /><path
           d="m 421.85,68.32 9.75,0 0,9.75 -9.75,0 0,-9.75 z"
           style="fill:none;stroke:#ff0000;stroke-opacity:1;stroke-width:1.5;stroke-linecap:butt;stroke-linejoin:miter;stroke-miterlimit:10;stroke-dasharray:none"
           id="path260" /><path
           d="m 395.6,122.09 9.75,0 0,9.75 -9.75,0 0,-9.75 z"
           style="fill:none;stroke:#ff0000;stroke-opacity:1;stroke-width:1.5;stroke-linecap:butt;stroke-linejoin:miter;stroke-miterlimit:10;stroke-dasharray:none"
           id="path262" /><g
           id="g264"
           transform="translate(462.55,132.78)"><path
             d="M 0,0 C 0,2.7 2.2,4.9 4.9,4.9 7.61,4.9 9.8,2.7 9.8,0 9.8,-2.71 7.61,-4.9 4.9,-4.9 2.2,-4.9 0,-2.71 0,0 z"
             style="fill:none;stroke:#0000ff;stroke-opacity:1;stroke-width:1.5;stroke-linecap:butt;stroke-linejoin:miter;stroke-miterlimit:10;stroke-dasharray:none"
             id="path266" /></g><g
           id="g268"
           transform="translate(356.22,134.21)"><path
             d="M 0,0 C 0,2.7 2.2,4.89 4.9,4.89 7.61,4.89 9.8,2.7 9.8,0 9.8,-2.71 7.61,-4.9 4.9,-4.9 2.2,-4.9 0,-2.71 0,0 z"
             style="fill:none;stroke:#0000ff;stroke-opacity:1;stroke-width:1.5;stroke-linecap:butt;stroke-linejoin:miter;stroke-miterlimit:10;stroke-dasharray:none"
             id="path270" /></g><g
           id="g272"
           transform="translate(329.42,185.15)"><path
             d="M 0,0 C 0,2.7 2.2,4.9 4.9,4.9 7.61,4.9 9.8,2.7 9.8,0 9.8,-2.71 7.61,-4.9 4.9,-4.9 2.2,-4.9 0,-2.71 0,0 z"
             style="fill:none;stroke:#0000ff;stroke-opacity:1;stroke-width:1.5;stroke-linecap:butt;stroke-linejoin:miter;stroke-miterlimit:10;stroke-dasharray:none"
             id="path274" /></g><g
           id="g276"
           transform="translate(373.39,164.09)"><path
             d="M 0,0 C 0,2.71 2.19,4.9 4.9,4.9 7.6,4.9 9.8,2.71 9.8,0 9.8,-2.7 7.6,-4.9 4.9,-4.9 2.19,-4.9 0,-2.7 0,0 z"
             style="fill:none;stroke:#0000ff;stroke-opacity:1;stroke-width:1.5;stroke-linecap:butt;stroke-linejoin:miter;stroke-miterlimit:10;stroke-dasharray:none"
             id="path278" /></g><g
           id="g280"
           transform="translate(417.35,143.04)"><path
             d="M 0,0 C 0,2.7 2.19,4.9 4.9,4.9 7.6,4.9 9.8,2.7 9.8,0 9.8,-2.71 7.6,-4.9 4.9,-4.9 2.19,-4.9 0,-2.71 0,0 z"
             style="fill:none;stroke:#0000ff;stroke-opacity:1;stroke-width:1.5;stroke-linecap:butt;stroke-linejoin:miter;stroke-miterlimit:10;stroke-dasharray:none"
             id="path282" /></g><g
           id="g284"
           transform="translate(455.85,87.77)"><path
             d="M 0,0 C 0,2.71 2.2,4.9 4.9,4.9 7.61,4.9 9.8,2.71 9.8,0 9.8,-2.7 7.61,-4.9 4.9,-4.9 2.2,-4.9 0,-2.7 0,0 z"
             style="fill:none;stroke:#0000ff;stroke-opacity:1;stroke-width:1.5;stroke-linecap:butt;stroke-linejoin:miter;stroke-miterlimit:10;stroke-dasharray:none"
             id="path286" /></g><g
           id="g288"
           transform="translate(462.55,56.36)"><path
             d="M 0,0 C 0,2.71 2.2,4.9 4.9,4.9 7.61,4.9 9.8,2.71 9.8,0 9.8,-2.7 7.61,-4.9 4.9,-4.9 2.2,-4.9 0,-2.7 0,0 z"
             style="fill:none;stroke:#0000ff;stroke-opacity:1;stroke-width:1.5;stroke-linecap:butt;stroke-linejoin:miter;stroke-miterlimit:10;stroke-dasharray:none"
             id="path290" /></g><g
           id="g292"
           transform="translate(439.32,201.51)"><path
             d="M 0,0 C 0,2.71 2.2,4.9 4.9,4.9 7.61,4.9 9.8,2.71 9.8,0 9.8,-2.7 7.61,-4.9 4.9,-4.9 2.2,-4.9 0,-2.7 0,0 z"
             style="fill:none;stroke:#0000ff;stroke-opacity:1;stroke-width:1.5;stroke-linecap:butt;stroke-linejoin:miter;stroke-miterlimit:10;stroke-dasharray:none"
             id="path294" /></g><g
           id="g296"
           transform="translate(319.62,128.83)"><path
             d="M 0,0 C 0,2.7 2.2,4.9 4.9,4.9 7.61,4.9 9.8,2.7 9.8,0 9.8,-2.71 7.61,-4.9 4.9,-4.9 2.2,-4.9 0,-2.71 0,0 z"
             style="fill:none;stroke:#0000ff;stroke-opacity:1;stroke-width:1.5;stroke-linecap:butt;stroke-linejoin:miter;stroke-miterlimit:10;stroke-dasharray:none"
             id="path298" /></g><g
           id="g300"
           transform="translate(482.75,92.81)"><path
             d="M 0,0 C 0,2.7 2.2,4.9 4.9,4.9 7.61,4.9 9.8,2.7 9.8,0 9.8,-2.71 7.61,-4.9 4.9,-4.9 2.2,-4.9 0,-2.71 0,0 z"
             style="fill:none;stroke:#0000ff;stroke-opacity:1;stroke-width:1.5;stroke-linecap:butt;stroke-linejoin:miter;stroke-miterlimit:10;stroke-dasharray:none"
             id="path302" /></g><path
           d="m 421.04,45.62 9.75,0 0,9.75 -9.75,0 0,-9.75 z"
           style="fill:none;stroke:#ff0000;stroke-opacity:1;stroke-width:1.5;stroke-linecap:butt;stroke-linejoin:miter;stroke-miterlimit:10;stroke-dasharray:none"
           id="path304" /><g
           id="g306"
           transform="translate(329.12,94.11)"><path
             d="M 0,0 C 0,2.71 2.19,4.9 4.9,4.9 7.61,4.9 9.8,2.71 9.8,0 9.8,-2.71 7.61,-4.9 4.9,-4.9 2.19,-4.9 0,-2.71 0,0 z"
             style="fill:none;stroke:#0000ff;stroke-opacity:1;stroke-width:1.5;stroke-linecap:butt;stroke-linejoin:miter;stroke-miterlimit:10;stroke-dasharray:none"
             id="path308" /></g><g
           id="g310"
           transform="translate(723,177.73)"><path
             d="M 0,0 C 0,2.7 2.19,4.9 4.9,4.9 7.6,4.9 9.8,2.7 9.8,0 9.8,-2.71 7.6,-4.9 4.9,-4.9 2.19,-4.9 0,-2.71 0,0 z"
             style="fill:none;stroke:#0000ff;stroke-opacity:1;stroke-width:1.5;stroke-linecap:butt;stroke-linejoin:miter;stroke-miterlimit:10;stroke-dasharray:none"
             id="path312" /></g><g
           id="g314"
           transform="translate(684.1,176.38)"><path
             d="M 0,0 C 0,2.7 2.19,4.9 4.9,4.9 7.61,4.9 9.8,2.7 9.8,0 9.8,-2.71 7.61,-4.9 4.9,-4.9 2.19,-4.9 0,-2.71 0,0 z"
             style="fill:none;stroke:#0000ff;stroke-opacity:1;stroke-width:1.5;stroke-linecap:butt;stroke-linejoin:miter;stroke-miterlimit:10;stroke-dasharray:none"
             id="path316" /></g><g
           id="g318"
           transform="translate(712.8,144.23)"><path
             d="M 0,0 C 0,2.71 2.19,4.9 4.9,4.9 7.61,4.9 9.8,2.71 9.8,0 9.8,-2.71 7.61,-4.9 4.9,-4.9 2.19,-4.9 0,-2.71 0,0 z"
             style="fill:none;stroke:#0000ff;stroke-opacity:1;stroke-width:1.5;stroke-linecap:butt;stroke-linejoin:miter;stroke-miterlimit:10;stroke-dasharray:none"
             id="path320" /></g><g
           id="g322"
           transform="translate(727.9,109.76)"><path
             d="M 0,0 C 0,2.7 2.19,4.9 4.9,4.9 7.6,4.9 9.8,2.7 9.8,0 9.8,-2.71 7.6,-4.9 4.9,-4.9 2.19,-4.9 0,-2.71 0,0 z"
             style="fill:none;stroke:#0000ff;stroke-opacity:1;stroke-width:1.5;stroke-linecap:butt;stroke-linejoin:miter;stroke-miterlimit:10;stroke-dasharray:none"
             id="path324" /></g><g
           id="g326"
           transform="translate(628.22,192.83)"><path
             d="M 0,0 C 0,2.7 2.19,4.9 4.9,4.9 7.6,4.9 9.8,2.7 9.8,0 9.8,-2.71 7.6,-4.9 4.9,-4.9 2.19,-4.9 0,-2.71 0,0 z"
             style="fill:none;stroke:#0000ff;stroke-opacity:1;stroke-width:1.5;stroke-linecap:butt;stroke-linejoin:miter;stroke-miterlimit:10;stroke-dasharray:none"
             id="path328" /></g><g
           id="g330"
           transform="translate(596.29,154.36)"><path
             d="M 0,0 C 0,2.7 2.2,4.9 4.9,4.9 7.61,4.9 9.8,2.7 9.8,0 9.8,-2.71 7.61,-4.9 4.9,-4.9 2.2,-4.9 0,-2.71 0,0 z"
             style="fill:none;stroke:#0000ff;stroke-opacity:1;stroke-width:1.5;stroke-linecap:butt;stroke-linejoin:miter;stroke-miterlimit:10;stroke-dasharray:none"
             id="path332" /></g><path
           d="m 596.29,46.04 9.75,0 0,9.75 -9.75,0 0,-9.75 z"
           style="fill:none;stroke:#ff0000;stroke-opacity:1;stroke-width:1.5;stroke-linecap:butt;stroke-linejoin:miter;stroke-miterlimit:10;stroke-dasharray:none"
           id="path334" /><path
           d="m 674.35,98.32 9.75,0 0,9.75 -9.75,0 0,-9.75 z"
           style="fill:none;stroke:#ff0000;stroke-opacity:1;stroke-width:1.5;stroke-linecap:butt;stroke-linejoin:miter;stroke-miterlimit:10;stroke-dasharray:none"
           id="path336" /><path
           d="m 618.47,101.15 9.75,0 0,9.75 -9.75,0 0,-9.75 z"
           style="fill:none;stroke:#ff0000;stroke-opacity:1;stroke-width:1.5;stroke-linecap:butt;stroke-linejoin:miter;stroke-miterlimit:10;stroke-dasharray:none"
           id="path338" /><path
           d="m 639.69,93.39 9.75,0 0,9.75 -9.75,0 0,-9.75 z"
           style="fill:none;stroke:#ff0000;stroke-opacity:1;stroke-width:1.5;stroke-linecap:butt;stroke-linejoin:miter;stroke-miterlimit:10;stroke-dasharray:none"
           id="path340" /><path
           d="m 628.22,52.01 9.75,0 0,9.75 -9.75,0 0,-9.75 z"
           style="fill:none;stroke:#ff0000;stroke-opacity:1;stroke-width:1.5;stroke-linecap:butt;stroke-linejoin:miter;stroke-miterlimit:10;stroke-dasharray:none"
           id="path342" /><g
           id="g344"
           transform="translate(641.64,115.8)"><path
             d="M 0,0 C 0,2.71 2.19,4.9 4.9,4.9 7.61,4.9 9.8,2.71 9.8,0 9.8,-2.71 7.61,-4.9 4.9,-4.9 2.19,-4.9 0,-2.71 0,0 z"
             style="fill:none;stroke:#0000ff;stroke-opacity:1;stroke-width:1.5;stroke-linecap:butt;stroke-linejoin:miter;stroke-miterlimit:10;stroke-dasharray:none"
             id="path346" /></g><g
           id="g348"
           transform="translate(745,66.98)"><path
             d="M 0,0 C 0,2.71 2.19,4.9 4.9,4.9 7.61,4.9 9.8,2.71 9.8,0 9.8,-2.7 7.61,-4.9 4.9,-4.9 2.19,-4.9 0,-2.7 0,0 z"
             style="fill:none;stroke:#0000ff;stroke-opacity:1;stroke-width:1.5;stroke-linecap:butt;stroke-linejoin:miter;stroke-miterlimit:10;stroke-dasharray:none"
             id="path350" /></g><g
           id="g352"
           transform="translate(657.8,72.62)"><path
             d="M 0,0 C 0,2.71 2.19,4.9 4.9,4.9 7.6,4.9 9.79,2.71 9.79,0 9.79,-2.71 7.6,-4.9 4.9,-4.9 2.19,-4.9 0,-2.71 0,0 z"
             style="fill:none;stroke:#0000ff;stroke-opacity:1;stroke-width:1.5;stroke-linecap:butt;stroke-linejoin:miter;stroke-miterlimit:10;stroke-dasharray:none"
             id="path354" /></g><path
           d="m 737.56,141.77 9.75,0 0,9.75 -9.75,0 0,-9.75 z"
           style="fill:none;stroke:#ff0000;stroke-opacity:1;stroke-width:1.5;stroke-linecap:butt;stroke-linejoin:miter;stroke-miterlimit:10;stroke-dasharray:none"
           id="path356" /><path
           d="m 615.02,71.54 9.75,0 0,9.75 -9.75,0 0,-9.75 z"
           style="fill:none;stroke:#ff0000;stroke-opacity:1;stroke-width:1.5;stroke-linecap:butt;stroke-linejoin:miter;stroke-miterlimit:10;stroke-dasharray:none"
           id="path358" /><path
           d="m 645.39,53.76 9.75,0 0,9.75 -9.75,0 0,-9.75 z"
           style="fill:none;stroke:#ff0000;stroke-opacity:1;stroke-width:1.5;stroke-linecap:butt;stroke-linejoin:miter;stroke-miterlimit:10;stroke-dasharray:none"
           id="path360" /><path
           d="m 667.59,184.63 9.75,0 0,9.75 -9.75,0 0,-9.75 z"
           style="fill:none;stroke:#ff0000;stroke-opacity:1;stroke-width:1.5;stroke-linecap:butt;stroke-linejoin:miter;stroke-miterlimit:10;stroke-dasharray:none"
           id="path362" /><path
           d="m 696.69,110.51 9.75,0 0,9.75 -9.75,0 0,-9.75 z"
           style="fill:none;stroke:#ff0000;stroke-opacity:1;stroke-width:1.5;stroke-linecap:butt;stroke-linejoin:miter;stroke-miterlimit:10;stroke-dasharray:none"
           id="path364" /><path
           d="m 684.1,67.77 9.75,0 0,9.75 -9.75,0 0,-9.75 z"
           style="fill:none;stroke:#ff0000;stroke-opacity:1;stroke-width:1.5;stroke-linecap:butt;stroke-linejoin:miter;stroke-miterlimit:10;stroke-dasharray:none"
           id="path366" /><path
           d="m 657.84,121.55 9.75,0 0,9.75 -9.75,0 0,-9.75 z"
           style="fill:none;stroke:#ff0000;stroke-opacity:1;stroke-width:1.5;stroke-linecap:butt;stroke-linejoin:miter;stroke-miterlimit:10;stroke-dasharray:none"
           id="path368" /><g
           id="g370"
           transform="translate(724.8,132.23)"><path
             d="M 0,0 C 0,2.71 2.19,4.9 4.9,4.9 7.61,4.9 9.8,2.71 9.8,0 9.8,-2.71 7.61,-4.9 4.9,-4.9 2.19,-4.9 0,-2.71 0,0 z"
             style="fill:none;stroke:#0000ff;stroke-opacity:1;stroke-width:1.5;stroke-linecap:butt;stroke-linejoin:miter;stroke-miterlimit:10;stroke-dasharray:none"
             id="path372" /></g><g
           id="g374"
           transform="translate(618.47,133.66)"><path
             d="M 0,0 C 0,2.7 2.19,4.9 4.9,4.9 7.6,4.9 9.8,2.7 9.8,0 9.8,-2.71 7.6,-4.9 4.9,-4.9 2.19,-4.9 0,-2.71 0,0 z"
             style="fill:none;stroke:#0000ff;stroke-opacity:1;stroke-width:1.5;stroke-linecap:butt;stroke-linejoin:miter;stroke-miterlimit:10;stroke-dasharray:none"
             id="path376" /></g><g
           id="g378"
           transform="translate(591.67,184.6)"><path
             d="M 0,0 C 0,2.71 2.19,4.9 4.9,4.9 7.61,4.9 9.8,2.71 9.8,0 9.8,-2.71 7.61,-4.9 4.9,-4.9 2.19,-4.9 0,-2.71 0,0 z"
             style="fill:none;stroke:#0000ff;stroke-opacity:1;stroke-width:1.5;stroke-linecap:butt;stroke-linejoin:miter;stroke-miterlimit:10;stroke-dasharray:none"
             id="path380" /></g><g
           id="g382"
           transform="translate(635.63,163.55)"><path
             d="M 0,0 C 0,2.7 2.2,4.9 4.9,4.9 7.61,4.9 9.8,2.7 9.8,0 9.8,-2.71 7.61,-4.9 4.9,-4.9 2.2,-4.9 0,-2.71 0,0 z"
             style="fill:none;stroke:#0000ff;stroke-opacity:1;stroke-width:1.5;stroke-linecap:butt;stroke-linejoin:miter;stroke-miterlimit:10;stroke-dasharray:none"
             id="path384" /></g><g
           id="g386"
           transform="translate(679.59,142.49)"><path
             d="M 0,0 C 0,2.71 2.2,4.9 4.9,4.9 7.61,4.9 9.8,2.71 9.8,0 9.8,-2.7 7.61,-4.9 4.9,-4.9 2.2,-4.9 0,-2.7 0,0 z"
             style="fill:none;stroke:#0000ff;stroke-opacity:1;stroke-width:1.5;stroke-linecap:butt;stroke-linejoin:miter;stroke-miterlimit:10;stroke-dasharray:none"
             id="path388" /></g><g
           id="g390"
           transform="translate(718.1,87.23)"><path
             d="M 0,0 C 0,2.7 2.19,4.9 4.9,4.9 7.6,4.9 9.8,2.7 9.8,0 9.8,-2.71 7.6,-4.9 4.9,-4.9 2.19,-4.9 0,-2.71 0,0 z"
             style="fill:none;stroke:#0000ff;stroke-opacity:1;stroke-width:1.5;stroke-linecap:butt;stroke-linejoin:miter;stroke-miterlimit:10;stroke-dasharray:none"
             id="path392" /></g><g
           id="g394"
           transform="translate(724.8,55.82)"><path
             d="M 0,0 C 0,2.7 2.19,4.9 4.9,4.9 7.61,4.9 9.8,2.7 9.8,0 9.8,-2.71 7.61,-4.9 4.9,-4.9 2.19,-4.9 0,-2.71 0,0 z"
             style="fill:none;stroke:#0000ff;stroke-opacity:1;stroke-width:1.5;stroke-linecap:butt;stroke-linejoin:miter;stroke-miterlimit:10;stroke-dasharray:none"
             id="path396" /></g><g
           id="g398"
           transform="translate(701.57,200.97)"><path
             d="M 0,0 C 0,2.7 2.19,4.89 4.9,4.89 7.6,4.89 9.8,2.7 9.8,0 9.8,-2.71 7.6,-4.9 4.9,-4.9 2.19,-4.9 0,-2.71 0,0 z"
             style="fill:none;stroke:#0000ff;stroke-opacity:1;stroke-width:1.5;stroke-linecap:butt;stroke-linejoin:miter;stroke-miterlimit:10;stroke-dasharray:none"
             id="path400" /></g><g
           id="g402"
           transform="translate(581.87,128.28)"><path
             d="M 0,0 C 0,2.71 2.19,4.9 4.9,4.9 7.61,4.9 9.8,2.71 9.8,0 9.8,-2.71 7.61,-4.9 4.9,-4.9 2.19,-4.9 0,-2.71 0,0 z"
             style="fill:none;stroke:#0000ff;stroke-opacity:1;stroke-width:1.5;stroke-linecap:butt;stroke-linejoin:miter;stroke-miterlimit:10;stroke-dasharray:none"
             id="path404" /></g><g
           id="g406"
           transform="translate(745,92.26)"><path
             d="M 0,0 C 0,2.7 2.19,4.9 4.9,4.9 7.61,4.9 9.8,2.7 9.8,0 9.8,-2.71 7.61,-4.9 4.9,-4.9 2.19,-4.9 0,-2.71 0,0 z"
             style="fill:none;stroke:#0000ff;stroke-opacity:1;stroke-width:1.5;stroke-linecap:butt;stroke-linejoin:miter;stroke-miterlimit:10;stroke-dasharray:none"
             id="path408" /></g><path
           d="m 683.28,45.07 9.75,0 0,9.75 -9.75,0 0,-9.75 z"
           style="fill:none;stroke:#ff0000;stroke-opacity:1;stroke-width:1.5;stroke-linecap:butt;stroke-linejoin:miter;stroke-miterlimit:10;stroke-dasharray:none"
           id="path410" /><g
           id="g412"
           transform="translate(591.37,93.56)"><path
             d="M 0,0 C 0,2.71 2.19,4.9 4.9,4.9 7.6,4.9 9.8,2.71 9.8,0 9.8,-2.7 7.6,-4.9 4.9,-4.9 2.19,-4.9 0,-2.7 0,0 z"
             style="fill:none;stroke:#0000ff;stroke-opacity:1;stroke-width:1.5;stroke-linecap:butt;stroke-linejoin:miter;stroke-miterlimit:10;stroke-dasharray:none"
             id="path414" /></g><g
           id="g416"
           transform="translate(309,102.4)"><path
             d="m 0,0 c 3.35,-1.3 11,4.6 17.4,6.6 6.4,2 14.5,3.1 21,5.4 6.5,2.3 11.3,4.5 18,8.4 6.7,3.9 14.6,11.8 22.2,15 7.6,3.2 15.1,4.8 23.4,4.2 8.3,-0.6 19.4,-3.5 26.4,-7.8 7,-4.3 12.1,-11.6 15.6,-18 3.5,-6.4 5.3,-13.2 5.4,-20.4 0.1,-7.2 -2.6,-14.9 -4.8,-22.8 -2.2,-7.9 -6.6,-18.2 -8.4,-24.6 -1.8,-6.4 -2.1,-10.1 -2.4,-13.8"
             style="fill:none;stroke:#000000;stroke-opacity:1;stroke-width:1.5;stroke-linecap:butt;stroke-linejoin:miter;stroke-miterlimit:10;stroke-dasharray:none"
             id="path418" /></g><g
           id="g420"
           transform="translate(590.03,34.6)"><path
             d="m 0,0 c 0.98,8.26 -5.02,12.14 0.37,21 6.33,5.49 9.22,3.57 12.27,8.02 3.05,4.45 0.76,8.78 1.53,14.18 0.77,9 6.09,6.19 9,15 0.48,8.06 -5.48,5.91 -5.4,14.4 0.83,7.74 4.26,8.9 8,10.2 3.73,1.3 9.53,-0.6 14.4,-2.4 4.86,-1.8 7.13,-7.83 14.8,-8.4 6.35,-0.2 11.38,-3.6 13.8,3.6 2.8,7.2 -4.72,8.5 -5.4,16.2 -0.12,6.2 0.96,8.42 3.8,10.2 2.83,1.77 7.82,2.21 13.2,-1.8 5.38,-4.01 4.09,-11.86 11.2,-14.4 7.49,-2.35 10.21,11.34 21.98,9.11 11.78,-2.23 11.29,-8.5 11.55,-14.62 0.27,-6.12 -8.01,-15.56 -9.93,-22.09 -1.92,-6.53 -2.4,-11.01 -1.58,-17.1 0.83,-6.09 5.96,-12.58 6.53,-19.43 C 120.68,14.82 117.27,3.7 116.97,0"
             style="fill:none;stroke:#000000;stroke-opacity:1;stroke-width:1.5;stroke-linecap:butt;stroke-linejoin:miter;stroke-miterlimit:10;stroke-dasharray:none"
             id="path422" /></g><g
           id="g424"
           transform="translate(652.31,76.38)"><path
             d="m 0,0 c 0.6,6 3.63,5.93 6.19,7.12 2.56,1.19 6.47,1.09 9.19,0 2.72,-1.09 5.93,-3.66 7.12,-6.56 1.19,-2.91 1.35,-8.25 0,-10.88 -1.34,-2.62 -2.12,-5.34 -8.06,-4.87 C 8.5,-14.72 8.03,-11.72 6,-9.75 2.66,-5.54 -0.59,-6 0,0 z"
             style="fill:none;stroke:#000000;stroke-opacity:1;stroke-width:1.5;stroke-linecap:butt;stroke-linejoin:miter;stroke-miterlimit:10;stroke-dasharray:none"
             id="path426" /></g></g></g><g
       id="g428"><g
         id="g430"
         clip-path="url(#clipPath432)"><g
           id="g436"
           transform="translate(667.57,175.95)"><path
             d="m 0,0 c -8.63,0.68 -8.54,4.12 -10.25,7.04 -1.7,2.92 -1.57,7.36 0,10.45 1.58,3.1 5.26,6.76 9.44,8.11 4.18,1.35 11.86,1.53 15.64,0 3.77,-1.53 7.68,-2.42 7.01,-9.17 C 21.16,9.67 16.85,9.14 14.02,6.83 7.95,3.02 8.63,-0.67 0,0 z"
             style="fill:none;stroke:#000000;stroke-opacity:1;stroke-width:1.5;stroke-linecap:butt;stroke-linejoin:miter;stroke-miterlimit:10;stroke-dasharray:none"
             id="path438" /></g><g
           id="g440"
           transform="translate(747.5,129.4)"><path
             d="m 0,0 c -5.86,-1.56 -7.55,2.56 -10.13,5.55 -2.57,2.99 -4.75,8.31 -5.31,12.41 -0.57,4.1 -0.08,9.46 1.91,12.2 1.98,2.75 6.8,5.07 9.99,4.29 3.19,-0.79 6.15,-0.77 9.15,-8.97 3,-8.2 0.52,-10.02 -0.12,-13.54 C 3.55,5.77 5.86,1.56 0,0 z"
             style="fill:none;stroke:#000000;stroke-opacity:1;stroke-width:1.5;stroke-linecap:butt;stroke-linejoin:miter;stroke-miterlimit:10;stroke-dasharray:none"
             id="path442" /></g></g></g><text
       transform="matrix(1,0,0,-1,99.5801,237.8301)"
       id="text444"><tspan
         style="fill:#000000;fill-opacity:1;fill-rule:nonzero;stroke:none;font-family:Calibri Light;font-variant:normal;font-weight:300;font-stretch:normal;font-size:16.08;writing-mode:lr;-inkscape-font-specification:Calibri-Light"
         x="0 8.3616"
         y="0"
         sodipodi:role="line"
         id="tspan446">un</tspan></text>
<text
       transform="matrix(1,0,0,-1,116.36762,237.8301)"
       id="text448"><tspan
         style="font-size:16.07999992px;font-variant:normal;font-weight:300;font-stretch:normal;writing-mode:lr-tb;fill:#000000;fill-opacity:1;fill-rule:nonzero;stroke:none;font-family:Calibri Light;-inkscape-font-specification:Calibri-Light"
         x="0 8.3535604 16.297079 21.844681 30.14196"
         y="0"
         sodipodi:role="line"
         id="tspan450">derﬁtti</tspan></text>
<text
       transform="matrix(1,0,0,-1,159.9203,237.8301)"
       id="text452"><tspan
         style="fill:#000000;fill-opacity:1;fill-rule:nonzero;stroke:none;font-family:Calibri Light;font-variant:normal;font-weight:300;font-stretch:normal;font-size:16.08;writing-mode:lr;-inkscape-font-specification:Calibri-Light"
         x="0 8.43396 16.50612 206.89332 210.49524 218.85684 224.919 230.20932 233.8434 239.32668 242.88036 250.37364 258.54228 263.81652 476.6514 485.02908 491.78268 499.7262"
         y="0"
         sodipodi:role="line"
         id="tspan454">ng just right over</tspan></text>
<text
       transform="matrix(1,0,0,-1,665.16194,237.8301)"
       id="text456"><tspan
         style="font-size:16.07999992px;font-variant:normal;font-weight:300;font-stretch:normal;writing-mode:lr-tb;fill:#000000;fill-opacity:1;fill-rule:nonzero;stroke:none;font-family:Calibri Light;-inkscape-font-specification:Calibri-Light"
         x="0 8.2972803"
         y="0"
         sodipodi:role="line"
         id="tspan458">ﬁtti</tspan></text>
<text
       transform="matrix(1,0,0,-1,686.86994,237.8301)"
       id="text460"><tspan
         style="fill:#000000;fill-opacity:1;fill-rule:nonzero;stroke:none;font-family:Calibri Light;font-variant:normal;font-weight:300;font-stretch:normal;font-size:16.08;writing-mode:lr;-inkscape-font-specification:Calibri-Light"
         x="0 8.42592 16.43376"
         y="0"
         sodipodi:role="line"
         id="tspan462">ng </tspan></text>
</g></svg>