<?xml version="1.0" encoding="UTF-8" standalone="no"?>
<!-- Generator: Adobe Illustrator 19.2.1, SVG Export Plug-In . SVG Version: 6.00 Build 0)  -->

<svg
   xmlns:dc="http://purl.org/dc/elements/1.1/"
   xmlns:cc="http://creativecommons.org/ns#"
   xmlns:rdf="http://www.w3.org/1999/02/22-rdf-syntax-ns#"
   xmlns:svg="http://www.w3.org/2000/svg"
   xmlns="http://www.w3.org/2000/svg"
   xmlns:sodipodi="http://sodipodi.sourceforge.net/DTD/sodipodi-0.dtd"
   xmlns:inkscape="http://www.inkscape.org/namespaces/inkscape"
   version="1.0"
   id="Layer_1"
   x="0px"
   y="0px"
   viewBox="0 0 295.22262 95.617485"
   xml:space="preserve"
   inkscape:version="0.48.4 r9939"
   width="100%"
   height="100%"
   sodipodi:docname="different-models.svg"><metadata
   id="metadata3213"><rdf:RDF><cc:Work
       rdf:about=""><dc:format>image/svg+xml</dc:format><dc:type
         rdf:resource="http://purl.org/dc/dcmitype/StillImage" /></cc:Work></rdf:RDF></metadata><defs
   id="defs3211" /><sodipodi:namedview
   pagecolor="#ffffff"
   bordercolor="#666666"
   borderopacity="1"
   objecttolerance="10"
   gridtolerance="10"
   guidetolerance="10"
   inkscape:pageopacity="0"
   inkscape:pageshadow="2"
   inkscape:window-width="1487"
   inkscape:window-height="867"
   id="namedview3209"
   showgrid="false"
   fit-margin-top="0"
   fit-margin-left="0"
   fit-margin-right="0"
   fit-margin-bottom="0"
   inkscape:zoom="2.7112587"
   inkscape:cx="118.76455"
   inkscape:cy="64.32846"
   inkscape:window-x="0"
   inkscape:window-y="0"
   inkscape:window-maximized="0"
   inkscape:current-layer="layer2" />
<style
   type="text/css"
   id="style3101">
	.st0{fill:none;stroke:#000000;stroke-miterlimit:10;}
	.st1{fill:#FFFFFF;stroke:#FFFFFF;stroke-width:0.8014;stroke-miterlimit:10;}
	.st2{fill:#FFFFFF;stroke:#FFFFFF;stroke-width:0.4187;stroke-miterlimit:10;}
	.st3{fill:none;stroke:#000000;stroke-width:0.973;stroke-miterlimit:10;}
	.st4{fill:none;stroke:#000000;stroke-width:0.9982;stroke-miterlimit:10;}
	.st5{fill:#FFFFFF;stroke:#FFFFFF;stroke-width:0.8721;stroke-miterlimit:10;}
</style>





















































<g
   inkscape:groupmode="layer"
   id="layer2"
   inkscape:label="Layer2"
   transform="translate(0.0783517,0.87713385)" /><flowRoot
   xml:space="preserve"
   id="flowRoot3310"
   style="font-size:40px;font-style:normal;font-variant:normal;font-weight:normal;font-stretch:normal;line-height:125%;letter-spacing:0px;word-spacing:0px;fill:#000000;fill-opacity:1;stroke:none;font-family:Arial;-inkscape-font-specification:Arial"
   transform="translate(-19.221647,-4.2048805)"><flowRegion
     id="flowRegion3312"><rect
       id="rect3314"
       width="60.119678"
       height="72.291145"
       x="77.085968"
       y="102.64783" /></flowRegion><flowPara
     id="flowPara3316"></flowPara></flowRoot><g
   inkscape:groupmode="layer"
   id="layer1"
   inkscape:label="Layer"
   style="display:inline"
   transform="translate(0.0783517,0.87713385)"><line
     class="st0"
     x1="0.42164385"
     y1="29.840857"
     x2="8.1216412"
     y2="29.840857"
     id="line3103"
     style="fill:none;stroke:#000000;stroke-width:1;stroke-miterlimit:10" /><rect
     x="8.1216412"
     y="16.140858"
     class="st0"
     width="28.299999"
     height="28.299999"
     id="rect3105"
     style="fill:none;stroke:#000000;stroke-width:1;stroke-miterlimit:10" /><line
     class="st0"
     x1="35.921642"
     y1="29.840857"
     x2="43.621639"
     y2="29.840857"
     id="line3107"
     style="fill:none;stroke:#000000;stroke-width:1;stroke-miterlimit:10" /><rect
     x="16.221647"
     y="10.640856"
     class="st1"
     width="12.8"
     height="10"
     id="rect3109"
     style="fill:#ffffff;stroke:#ffffff;stroke-width:0.80140001;stroke-miterlimit:10" /><rect
     x="21.721647"
     y="39.340855"
     class="st2"
     width="3.5"
     height="10"
     id="rect3111"
     style="fill:#ffffff;stroke:#ffffff;stroke-width:0.41870001;stroke-miterlimit:10" /><polyline
     class="st3"
     points="36.1,44.4 45,44.4 45,56.3 36.1,56.3 "
     id="polyline3113"
     style="fill:none;stroke:#000000;stroke-width:0.97299999;stroke-miterlimit:10"
     transform="translate(-19.378356,-5.9591446)" /><line
     class="st0"
     x1="21.721647"
     y1="40.740856"
     x2="21.721647"
     y2="48.040855"
     id="line3115"
     style="fill:none;stroke:#000000;stroke-width:1;stroke-miterlimit:10" /><path
     class="st0"
     d="m 36.421644,16.140855 h -7 c 0,0 0,0 0,0 l -2,4.9 c 0,0 -0.1,0 -0.1,0 l -2.5,-9.5 c 0,0 -0.1,0 -0.1,0 l -3.8,9.5 c 0,0 -0.1,0 -0.1,0 l -2.6,-9.7 c 0,0 -0.1,0 -0.1,0 l -2,4.8 c 0,0 0,0 0,0 H 8.1216444"
     id="path3117"
     inkscape:connector-curvature="0"
     style="fill:none;stroke:#000000;stroke-width:1;stroke-miterlimit:10" /><line
     class="st0"
     x1="70.532288"
     y1="54.537941"
     x2="78.232285"
     y2="54.537941"
     id="line3119"
     style="fill:none;stroke:#000000;stroke-width:1;stroke-miterlimit:10" /><rect
     x="78.232285"
     y="40.737938"
     class="st0"
     width="43.299999"
     height="28.299999"
     id="rect3121"
     style="fill:none;stroke:#000000;stroke-width:1;stroke-miterlimit:10" /><line
     class="st0"
     x1="121.03227"
     y1="54.537941"
     x2="128.73228"
     y2="54.537941"
     id="line3123"
     style="fill:none;stroke:#000000;stroke-width:1;stroke-miterlimit:10" /><rect
     x="93.332275"
     y="35.337944"
     class="st1"
     width="12.8"
     height="10"
     id="rect3125"
     style="fill:#ffffff;stroke:#ffffff;stroke-width:0.80140001;stroke-miterlimit:10" /><rect
     x="88.832275"
     y="64.037941"
     class="st2"
     width="3.5"
     height="10"
     id="rect3127"
     style="fill:#ffffff;stroke:#ffffff;stroke-width:0.41870001;stroke-miterlimit:10" /><polyline
     class="st3"
     points="27.6,140.1 36.5,140.1 36.5,151.9 27.6,151.9 "
     id="polyline3129"
     transform="translate(56.232284,-76.962057)"
     style="fill:none;stroke:#000000;stroke-width:0.97299999;stroke-miterlimit:10" /><line
     class="st0"
     x1="88.832275"
     y1="65.437935"
     x2="88.832275"
     y2="72.637939"
     id="line3131"
     style="fill:none;stroke:#000000;stroke-width:1;stroke-miterlimit:10" /><path
     class="st0"
     d="m 113.53227,40.73794 h -7 c 0,0 0,0 0,0 l -2,4.9 c 0,0 -0.1,0 -0.1,0 l -2.5,-9.5 c 0,0 -0.1,0 -0.1,0 l -3.699986,9.4 c 0,0 -0.1,0 -0.1,0 l -2.6,-9.7 c 0,0 -0.1,0 -0.1,0 l -2,4.8 c 0,0 0,0 0,0 h -8"
     id="path3133"
     inkscape:connector-curvature="0"
     style="fill:none;stroke:#000000;stroke-width:1;stroke-miterlimit:10" /><line
     class="st0"
     x1="1.596975"
     y1="88.353844"
     x2="45.896969"
     y2="88.353844"
     id="line3135"
     style="fill:none;stroke:#000000;stroke-width:1;stroke-miterlimit:10" /><rect
     x="9.6969738"
     y="82.853844"
     class="st1"
     width="12.8"
     height="10"
     id="rect3137"
     style="fill:#ffffff;stroke:#ffffff;stroke-width:0.80140001;stroke-miterlimit:10" /><path
     class="st0"
     d="m 29.896974,88.353847 h -7 c 0,0 0,0 0,0 l -2,4.9 c 0,0 -0.1,0 -0.1,0 l -2.5,-9.5 c 0,0 -0.1,0 -0.1,0 l -3.7,9.4 c 0,0 -0.1,0 -0.1,0 l -2.6,-9.7 c 0,0 -0.1,0 -0.1,0 l -1.9999996,4.8 c 0,0 0,0 0,0 h -8"
     id="path3139"
     inkscape:connector-curvature="0"
     style="fill:none;stroke:#000000;stroke-width:1;stroke-miterlimit:10" /><rect
     x="34.696972"
     y="83.353844"
     class="st2"
     width="3.5"
     height="10"
     id="rect3141"
     style="fill:#ffffff;stroke:#ffffff;stroke-width:0.41870001;stroke-miterlimit:10" /><polyline
     class="st3"
     points="47.6,78.2 56.5,78.2 56.5,90 47.6,90 "
     id="polyline3143"
     transform="translate(-17.903026,4.2538494)"
     style="fill:none;stroke:#000000;stroke-width:0.97299999;stroke-miterlimit:10" /><line
     class="st0"
     x1="34.696972"
     y1="84.653847"
     x2="34.696972"
     y2="91.953842"
     id="line3145"
     style="fill:none;stroke:#000000;stroke-width:1;stroke-miterlimit:10" /><rect
     x="101.33228"
     y="63.537937"
     class="st1"
     width="12.8"
     height="10"
     id="rect3147"
     style="fill:#ffffff;stroke:#ffffff;stroke-width:0.80140001;stroke-miterlimit:10" /><path
     class="st0"
     d="m 121.53227,69.03794 h -7 c 0,0 0,0 0,0 l -2,4.899996 c 0,0 -0.1,0 -0.1,0 l -2.5,-9.499996 c 0,0 -0.1,0 -0.1,0 l -3.7,9.399996 c 0,0 -0.1,0 -0.1,0 l -2.6,-9.699996 c 0,0 -0.1,0 -0.1,0 l -2,4.8 c 0,0 0,0 0,0 h -7.999986"
     id="path3149"
     inkscape:connector-curvature="0"
     style="fill:none;stroke:#000000;stroke-width:1;stroke-miterlimit:10" /><line
     class="st0"
     x1="144.34528"
     y1="54.544811"
     x2="167.74527"
     y2="54.544811"
     id="line3151"
     style="fill:none;stroke:#000000;stroke-width:1;stroke-miterlimit:10" /><rect
     x="167.74527"
     y="40.744801"
     class="st0"
     width="43.299999"
     height="28.299999"
     id="rect3153"
     style="fill:none;stroke:#000000;stroke-width:1;stroke-miterlimit:10" /><line
     class="st0"
     x1="210.54526"
     y1="54.544811"
     x2="218.24527"
     y2="54.544811"
     id="line3155"
     style="fill:none;stroke:#000000;stroke-width:1;stroke-miterlimit:10" /><rect
     x="182.84528"
     y="35.344807"
     class="st1"
     width="12.8"
     height="10"
     id="rect3157"
     style="fill:#ffffff;stroke:#ffffff;stroke-width:0.80140001;stroke-miterlimit:10" /><rect
     x="178.34528"
     y="64.044807"
     class="st2"
     width="3.5"
     height="10"
     id="rect3159"
     style="fill:#ffffff;stroke:#ffffff;stroke-width:0.41870001;stroke-miterlimit:10" /><polyline
     class="st3"
     points="114.9,51.4 123.8,51.4 123.8,63.2 114.9,63.2 "
     id="polyline3161"
     transform="translate(58.445274,11.744809)"
     style="fill:none;stroke:#000000;stroke-width:0.97299999;stroke-miterlimit:10" /><rect
     x="244.04422"
     y="53.521187"
     class="st4"
     width="43.299999"
     height="16.9"
     id="rect3163"
     style="fill:none;stroke:#000000;stroke-width:0.9982;stroke-miterlimit:10" /><line
     class="st0"
     x1="178.34528"
     y1="65.444801"
     x2="178.34528"
     y2="72.644806"
     id="line3165"
     style="fill:none;stroke:#000000;stroke-width:1;stroke-miterlimit:10" /><path
     class="st0"
     d="m 203.04527,40.744806 h -7 c 0,0 0,0 0,0 l -2,4.9 c 0,0 -0.1,0 -0.1,0 l -2.5,-9.500003 c 0,0 -0.1,0 -0.1,0 l -3.7,9.400003 c 0,0 -0.1,0 -0.1,0 l -2.6,-9.700003 c 0,0 -0.1,0 -0.1,0 l -2,4.800003 c 0,0 0,0 0,0 h -8"
     id="path3167"
     inkscape:connector-curvature="0"
     style="fill:none;stroke:#000000;stroke-width:1;stroke-miterlimit:10" /><rect
     x="190.84528"
     y="63.544804"
     class="st1"
     width="12.8"
     height="10"
     id="rect3169"
     style="fill:#ffffff;stroke:#ffffff;stroke-width:0.80140001;stroke-miterlimit:10" /><path
     class="st0"
     d="m 211.04527,69.044806 h -7 c 0,0 0,0 0,0 l -2,4.899999 c 0,0 -0.1,0 -0.1,0 l -2.5,-9.499999 c 0,0 -0.1,0 -0.1,0 l -3.7,9.399999 c 0,0 -0.1,0 -0.1,0 l -2.6,-9.699999 c 0,0 -0.1,0 -0.1,0 l -2,4.8 c 0,0 0,0 0,0 h -8"
     id="path3171"
     inkscape:connector-curvature="0"
     style="fill:none;stroke:#000000;stroke-width:1;stroke-miterlimit:10" /><rect
     x="157.14526"
     y="49.544811"
     class="st2"
     width="3.5"
     height="10"
     id="rect3173"
     style="fill:#ffffff;stroke:#ffffff;stroke-width:0.41870001;stroke-miterlimit:10" /><polyline
     class="st3"
     points="93.7,36.9 102.6,36.9 102.6,48.7 93.7,48.7 "
     id="polyline3175"
     transform="translate(58.445274,11.744809)"
     style="fill:none;stroke:#000000;stroke-width:0.97299999;stroke-miterlimit:10" /><line
     class="st0"
     x1="157.14526"
     y1="50.944805"
     x2="157.14526"
     y2="58.144814"
     id="line3177"
     style="fill:none;stroke:#000000;stroke-width:1;stroke-miterlimit:10" /><line
     class="st0"
     x1="236.44421"
     y1="44.421181"
     x2="244.14423"
     y2="44.421181"
     id="line3179"
     style="fill:none;stroke:#000000;stroke-width:1;stroke-miterlimit:10" /><rect
     x="244.04422"
     y="30.721186"
     class="st0"
     width="43.299999"
     height="22.799999"
     id="rect3181"
     style="fill:none;stroke:#000000;stroke-width:1;stroke-miterlimit:10" /><line
     class="st0"
     x1="286.94427"
     y1="44.421181"
     x2="294.64426"
     y2="44.421181"
     id="line3183"
     style="fill:none;stroke:#000000;stroke-width:1;stroke-miterlimit:10" /><rect
     x="259.24426"
     y="25.221186"
     class="st1"
     width="12.8"
     height="10"
     id="rect3185"
     style="fill:#ffffff;stroke:#ffffff;stroke-width:0.80140001;stroke-miterlimit:10" /><rect
     x="253.34424"
     y="48.521187"
     class="st2"
     width="3.5"
     height="10"
     id="rect3187"
     style="fill:#ffffff;stroke:#ffffff;stroke-width:0.41870001;stroke-miterlimit:10" /><polyline
     class="st3"
     points="110.6,113.7 119.5,113.7 119.5,125.5 110.6,125.5 "
     id="polyline3189"
     transform="translate(137.74423,-66.078827)"
     style="fill:none;stroke:#000000;stroke-width:0.97299999;stroke-miterlimit:10" /><line
     class="st0"
     x1="253.34424"
     y1="49.821182"
     x2="253.34424"
     y2="57.121178"
     id="line3191"
     style="fill:none;stroke:#000000;stroke-width:1;stroke-miterlimit:10" /><path
     class="st0"
     d="m 279.44422,30.721176 h -7 c 0,0 0,0 0,0 l -2,4.900005 c 0,0 -0.1,0 -0.1,0 l -2.5,-9.500005 c 0,0 -0.1,0 -0.1,0 l -3.7,9.400005 c 0,0 -0.1,0 -0.1,0 l -2.6,-9.700005 c 0,0 -0.1,0 -0.1,0 l -2,4.8 c 0,0 0,0 0,0 h -8"
     id="path3193"
     inkscape:connector-curvature="0"
     style="fill:none;stroke:#000000;stroke-width:1;stroke-miterlimit:10" /><rect
     x="267.24426"
     y="49.121178"
     class="st5"
     width="15.2"
     height="10"
     id="rect3195"
     style="fill:#ffffff;stroke:#ffffff;stroke-width:0.8721;stroke-miterlimit:10" /><path
     class="st0"
     d="m 287.14422,53.521181 h -7 c 0,0 0,0 0,0 l -2,4.9 c 0,0 -0.1,0 -0.1,0 l -2.5,-9.5 c 0,0 -0.1,0 -0.1,0 l -3.7,9.4 c 0,0 -0.1,0 -0.1,0 l -2.6,-9.7 c 0,0 -0.1,0 -0.1,0 l -2,4.8 c 0,0 0,0 0,0 h -8"
     id="path3197"
     inkscape:connector-curvature="0"
     style="fill:none;stroke:#000000;stroke-width:1;stroke-miterlimit:10" /><rect
     x="253.34424"
     y="65.421173"
     class="st2"
     width="3.5"
     height="10"
     id="rect3199"
     style="fill:#ffffff;stroke:#ffffff;stroke-width:0.41870001;stroke-miterlimit:10" /><polyline
     class="st3"
     points="110.6,130.6 119.5,130.6 119.5,142.4 110.6,142.4 "
     id="polyline3201"
     transform="translate(137.74423,-66.078827)"
     style="fill:none;stroke:#000000;stroke-width:0.97299999;stroke-miterlimit:10" /><line
     class="st0"
     x1="253.34424"
     y1="66.821167"
     x2="253.34424"
     y2="74.021172"
     id="line3203"
     style="fill:none;stroke:#000000;stroke-width:1;stroke-miterlimit:10" /><rect
     x="267.24426"
     y="66.021179"
     class="st1"
     width="12.8"
     height="10"
     id="rect3205"
     style="fill:#ffffff;stroke:#ffffff;stroke-width:0.80140001;stroke-miterlimit:10" /><path
     class="st0"
     d="m 286.94422,70.42118 h -7 c 0,0 0,0 0,0 l -2,4.9 c 0,0 -0.1,0 -0.1,0 l -2.5,-9.499999 c 0,0 -0.1,0 -0.1,0 l -3.7,9.399999 c 0,0 -0.1,0 -0.1,0 l -2.6,-9.699999 c 0,0 -0.1,0 -0.1,0 l -2,4.799999 c 0,0 0,0 0,0 h -8"
     id="path3207"
     inkscape:connector-curvature="0"
     style="fill:none;stroke:#000000;stroke-width:1;stroke-miterlimit:10" /><text
     xml:space="preserve"
     style="font-size:40px;font-style:normal;font-variant:normal;font-weight:normal;font-stretch:normal;line-height:125%;letter-spacing:0px;word-spacing:0px;fill:#000000;fill-opacity:1;stroke:none;font-family:Arial;-inkscape-font-specification:Arial"
     x="0.90742266"
     y="4.8494287"
     id="text3215"
     sodipodi:linespacing="125%"><tspan
       sodipodi:role="line"
       id="tspan3217"
       x="0.90742266"
       y="4.8494287"
       style="font-size:8px">Kelvin-Voigt</tspan></text>
<text
     xml:space="preserve"
     style="font-size:40px;font-style:normal;font-variant:normal;font-weight:normal;font-stretch:normal;line-height:125%;letter-spacing:0px;word-spacing:0px;fill:#000000;fill-opacity:1;stroke:none;font-family:Arial;-inkscape-font-specification:Arial"
     x="11.118483"
     y="75.085594"
     id="text3215-1"
     sodipodi:linespacing="125%"><tspan
       sodipodi:role="line"
       id="tspan3217-7"
       x="11.118483"
       y="75.085594"
       style="font-size:8px">Maxwell</tspan></text>
<text
     xml:space="preserve"
     style="font-size:40px;font-style:normal;font-variant:normal;font-weight:normal;font-stretch:normal;line-height:125%;letter-spacing:0px;word-spacing:0px;fill:#000000;fill-opacity:1;stroke:none;font-family:Arial;-inkscape-font-specification:Arial"
     x="101.99321"
     y="20.993296"
     id="text3215-1-4"
     sodipodi:linespacing="125%"><tspan
       sodipodi:role="line"
       id="tspan3217-7-0"
       x="103.10258"
       y="20.993296"
       style="font-size:8px;text-align:center;text-anchor:middle">Standard Linear </tspan><tspan
       sodipodi:role="line"
       x="101.99321"
       y="30.993296"
       style="font-size:8px;text-align:center;text-anchor:middle"
       id="tspan3261">Solid (SLS)</tspan></text>
<text
     xml:space="preserve"
     style="font-size:40px;font-style:normal;font-variant:normal;font-weight:normal;font-stretch:normal;line-height:125%;letter-spacing:0px;word-spacing:0px;fill:#000000;fill-opacity:1;stroke:none;font-family:Arial;-inkscape-font-specification:Arial"
     x="190.25681"
     y="28.106833"
     id="text3215-1-4-9"
     sodipodi:linespacing="125%"><tspan
       sodipodi:role="line"
       x="190.25681"
       y="28.106833"
       style="font-size:8px;text-align:center;text-anchor:middle"
       id="tspan3261-8">Modified SLS</tspan></text>
<text
     xml:space="preserve"
     style="font-size:40px;font-style:normal;font-variant:normal;font-weight:normal;font-stretch:normal;line-height:125%;letter-spacing:0px;word-spacing:0px;fill:#000000;fill-opacity:1;stroke:none;font-family:Arial;-inkscape-font-specification:Arial"
     x="265.64511"
     y="20.040018"
     id="text3215-1-4-9-8"
     sodipodi:linespacing="125%"><tspan
       sodipodi:role="line"
       x="265.64511"
       y="20.040018"
       style="font-size:8px;text-align:center;text-anchor:middle"
       id="tspan3261-8-2">Wiechert</tspan></text>
</g></svg>