<?xml version="1.0" encoding="UTF-8" standalone="no"?>
<!-- Created with Inkscape (http://www.inkscape.org/) -->

<svg
   xmlns:dc="http://purl.org/dc/elements/1.1/"
   xmlns:cc="http://creativecommons.org/ns#"
   xmlns:rdf="http://www.w3.org/1999/02/22-rdf-syntax-ns#"
   xmlns:svg="http://www.w3.org/2000/svg"
   xmlns="http://www.w3.org/2000/svg"
   xmlns:sodipodi="http://sodipodi.sourceforge.net/DTD/sodipodi-0.dtd"
   xmlns:inkscape="http://www.inkscape.org/namespaces/inkscape"
   width="250"
   height="250"
   viewBox="0 0 250.00001 250"
   id="svg5029"
   version="1.1"
   inkscape:version="0.91 r13725"
   sodipodi:docname="embryo-viability.svg">
  <defs
     id="defs5031">
    <clipPath
       clipPathUnits="userSpaceOnUse"
       id="clipPath16">
      <path
         d="m 0,133 338.11,0 0,-133 L 0,0 0,133 Z"
         id="path18"
         inkscape:connector-curvature="0" />
    </clipPath>
  </defs>
  <sodipodi:namedview
     id="base"
     pagecolor="#ffffff"
     bordercolor="#666666"
     borderopacity="1.0"
     inkscape:pageopacity="0.0"
     inkscape:pageshadow="2"
     inkscape:zoom="1.4"
     inkscape:cx="91.89133"
     inkscape:cy="143.4798"
     inkscape:document-units="px"
     inkscape:current-layer="layer1"
     showgrid="false"
     fit-margin-top="0"
     fit-margin-left="0"
     fit-margin-right="0"
     fit-margin-bottom="0"
     units="px"
     inkscape:window-width="1280"
     inkscape:window-height="657"
     inkscape:window-x="-8"
     inkscape:window-y="-8"
     inkscape:window-maximized="1" />
  <metadata
     id="metadata5034">
    <rdf:RDF>
      <cc:Work
         rdf:about="">
        <dc:format>image/svg+xml</dc:format>
        <dc:type
           rdf:resource="http://purl.org/dc/dcmitype/StillImage" />
        <dc:title />
      </cc:Work>
    </rdf:RDF>
  </metadata>
  <g
     inkscape:label="Layer 1"
     inkscape:groupmode="layer"
     id="layer1">
    <flowRoot
       xml:space="preserve"
       id="flowRoot6097"
       style="fill:black;stroke:none;stroke-opacity:1;stroke-width:1px;stroke-linejoin:miter;stroke-linecap:butt;fill-opacity:1;font-family:sans-serif;font-style:normal;font-weight:normal;font-size:40px;line-height:125%;letter-spacing:0px;word-spacing:0px"><flowRegion
         id="flowRegion6099"><rect
           id="rect6101"
           width="288.90363"
           height="135.36044"
           x="9.0913725"
           y="2.5126264" /></flowRegion><flowPara
         id="flowPara6103" /></flowRoot>    <rect
       y="26.475452"
       x="165.68399"
       height="56.64143"
       width="48.560207"
       id="rect5979"
       style="opacity:1;fill:none;fill-opacity:1;stroke:#000000;stroke-width:0.92711252;stroke-linejoin:miter;stroke-miterlimit:4.19999981;stroke-dasharray:2.78133737, 2.78133737;stroke-dashoffset:0;stroke-opacity:1" />
    <g
       id="g8493"
       transform="matrix(0.91874413,0.39485342,-0.39485342,0.91874413,90.558138,-89.523762)">
      <path
         sodipodi:nodetypes="cc"
         inkscape:connector-curvature="0"
         id="rect5736-6"
         d="m 139.80859,204.32087 -29.0834,0"
         style="opacity:1;fill:#ffffff;fill-opacity:1;stroke:#000000;stroke-width:2.00000024;stroke-miterlimit:4;stroke-dasharray:none;stroke-opacity:1" />
      <path
         transform="matrix(-0.65347335,0,0,0.45513417,212.26845,171.16109)"
         inkscape:transform-center-x="-2.0829597"
         d="m 120.66074,61.815265 0,11.041867 0,11.041866 -9.56254,-5.520933 -9.56254,-5.520932 9.56254,-5.520934 z"
         inkscape:randomized="0"
         inkscape:rounded="0"
         inkscape:flatsided="false"
         sodipodi:arg2="0"
         sodipodi:arg1="-1.0471976"
         sodipodi:r2="6.3750248"
         sodipodi:r1="12.75005"
         sodipodi:cy="72.857132"
         sodipodi:cx="114.28571"
         sodipodi:sides="3"
         id="path5741-6-3"
         style="opacity:1;fill:#000000;fill-opacity:1;stroke:#000000;stroke-width:1.18274856;stroke-linejoin:miter;stroke-miterlimit:4;stroke-dasharray:none;stroke-opacity:1"
         sodipodi:type="star" />
    </g>
    <circle
       style="opacity:1;fill:none;fill-opacity:1;stroke:#000000;stroke-width:2.00000024;stroke-miterlimit:4.15999985;stroke-dasharray:none;stroke-opacity:1"
       id="path5081-7-8"
       cx="60.933598"
       cy="115.38287"
       r="31.428576" />
    <circle
       style="opacity:0.77399998;fill:#bdffff;fill-opacity:1;stroke:#000000;stroke-width:1.00000012;stroke-miterlimit:4.15999985;stroke-dasharray:none;stroke-opacity:1"
       id="path5081-8-63-6"
       cx="51.347538"
       cy="124.37827"
       r="17.762901" />
    <circle
       style="opacity:0.77399998;fill:#bdffff;fill-opacity:1;stroke:#000000;stroke-width:1.00000012;stroke-miterlimit:4.15999985;stroke-dasharray:none;stroke-opacity:1"
       id="path5081-8-63-4-7"
       cx="53.988491"
       cy="104.30293"
       r="17.762903" />
    <circle
       style="opacity:0.77399998;fill:#bdffff;fill-opacity:1;stroke:#000000;stroke-width:1.00000012;stroke-miterlimit:4.15999985;stroke-dasharray:none;stroke-opacity:1"
       id="path5081-8-63-59-4"
       cx="70.656006"
       cy="107.33337"
       r="17.762903" />
    <circle
       style="opacity:0.77399998;fill:#bdffff;fill-opacity:1;stroke:#000000;stroke-width:1.00000012;stroke-miterlimit:4.15999985;stroke-dasharray:none;stroke-opacity:1"
       id="path5081-8-63-7-9"
       cx="67.625549"
       cy="126.02119"
       r="17.762903" />
    <g
       transform="matrix(1.2500001,0,0,-1.2500001,-159.8035,235.72016)"
       id="g12"
       style="fill:#e3e3e3;fill-opacity:1">
      <g
         id="g14"
         clip-path="url(#clipPath16)"
         style="opacity:1;fill:#e3e3e3;fill-opacity:1;stroke:#000000;stroke-width:1.19999993;stroke-miterlimit:4;stroke-dasharray:none;stroke-opacity:1"
         transform="matrix(0.6166087,0,0,0.6166087,104.99013,4.5949657)">
        <g
           id="g20"
           transform="translate(260.9203,65.2015)"
           style="fill:#e3e3e3;fill-opacity:1;stroke:#000000;stroke-width:1.19999993;stroke-miterlimit:4;stroke-dasharray:none;stroke-opacity:1">
          <path
             d="M 0,0 C 0.012,-0.016 0.023,-0.034 0.035,-0.05 0.008,-0.039 -0.019,-0.034 -0.046,-0.023 -0.03,-0.007 -0.015,-0.013 0,0 M 15.979,2.162 C 15.977,2.121 15.964,2.08 15.968,2.038 16.269,1.33 16.571,0.623 17.547,0.724 c 0.035,0.055 0.05,0.116 0.084,0.171 0.007,-0.1 -0.013,-0.194 0.003,-0.296 0.448,-0.284 0.911,-0.286 1.388,-0.077 0.057,0.074 0.083,0.1 0.135,0.167 0.601,-0.638 1.196,-0.231 1.792,-0.018 0.024,-0.043 0.035,-0.057 0.06,-0.103 4.157,-2.44 5.359,-2.37 8.277,0.637 -0.858,-1.458 -1.538,-2.988 -1.916,-4.648 0.009,-0.427 0.095,-0.854 -0.016,-1.277 -0.03,-0.133 -0.048,-0.269 -0.063,-0.404 -0.531,-0.797 -0.637,-1.755 -0.773,-2.671 -0.106,-0.706 -0.396,-1.028 -0.992,-1.095 -0.045,0.044 -0.086,0.094 -0.134,0.135 -0.265,0.231 -0.52,0.472 -0.779,0.707 -0.438,0.386 -0.944,0.682 -1.479,0.883 -4.836,1.817 -7.768,5.856 -11.139,9.386 1.292,-0.414 2.626,-0.367 3.984,-0.059 m 46.482,-10.04 c -0.903,7.125 -2.827,13.641 -7.828,18.962 -3.443,3.663 -5.558,8.056 -7.125,12.738 -1.828,5.463 -3.088,11.114 -5.538,16.371 -0.856,1.835 -2.126,3.368 -3.504,4.759 -5.383,5.432 -12.161,6.637 -19.43,6.027 C 7.41,50.005 -2.052,36.463 -1.047,26.112 -0.499,20.464 1.417,15.449 6.104,12.142 9.056,10.058 10.69,7.795 10.215,4.183 c 0,-10e-4 0,-10e-4 0,-10e-4 l 0,0 C 9.134,6.364 7.013,7.256 5.053,8.349 3.769,8.682 2.467,9.29 1.283,8.102 l 0,0 0,0 C 0.344,8.211 -0.475,8.19 -0.915,7.082 -1.38,5.91 -1.863,4.81 -0.645,3.808 -1.679,2.746 -1.209,-0.142 0.228,-1.02 1.148,-1.583 2.185,-1.956 3.169,-2.413 3.524,-3.675 3.022,-4.778 2.527,-5.883 l 10e-4,0 c -0.164,-0.793 0.196,-1.376 0.756,-1.879 0.473,-0.617 0.397,-1.621 1.341,-1.907 0,0 0.001,0 0.001,0.001 l 0,-0.001 c 1.659,-1.621 3.81,-2.464 5.905,-3.133 2.19,-0.7 2.356,-2.822 3.641,-4.109 0.073,-0.074 -0.315,-0.607 -0.494,-0.931 -0.232,-0.046 -0.464,-0.091 -0.696,-0.136 -0.452,-0.229 -1.043,-0.346 -1.333,-0.705 -1.755,-2.173 -3.855,-4.029 -5.514,-6.314 -0.821,-1.13 -1.517,-2.868 -3.596,-2.724 -1.819,0.126 -3.427,0.865 -5.131,1.325 -0.149,0.621 -0.575,0.974 -1.147,1.187 -0.133,0.383 -0.44,0.589 -0.781,0.76 l -0.002,0.002 c -1.545,1.539 -1.33,2.972 0.647,3.958 0.831,0.415 1.75,0.896 1.966,1.736 0.738,2.86 2.203,5.56 2.008,8.635 0.085,0.995 0.584,2.244 -0.24,2.875 -0.573,0.438 -0.894,-1.149 -1.685,-1.181 -2.687,-0.111 -2.726,-3.042 -4.475,-4.148 -0.187,-0.118 -0.225,-0.606 -0.194,-0.909 0.11,-1.104 -0.372,-1.741 -1.405,-2.074 -0.38,-0.123 -0.559,-0.506 -0.615,-0.913 0,0 0,0 -10e-4,0 l -0.103,-0.126 c -0.577,-0.261 -1.197,-0.475 -1.354,-1.208 l -0.04,-0.068 c -1.796,-2.102 -1.738,-4.472 -1.286,-6.899 -0.073,-0.255 10e-4,-0.571 0.168,-0.846 0.154,-3.181 4.508,-2.737 4.977,-5.784 0.115,-0.748 1.373,-1.063 2.278,-1.246 0.063,-0.013 0.13,-0.01 0.19,-0.031 1.373,-0.477 2.797,-0.322 4.207,-0.339 l 0,0 c 0.105,-1.432 -1.331,-2.156 -1.573,-3.429 -0.541,-0.634 -1.083,-1.268 -1.624,-1.902 -0.052,-0.22 -0.164,-0.354 -0.41,-0.297 0.227,-0.028 0.363,0.071 0.41,0.297 -0.141,-0.1 -0.283,-0.199 -0.423,-0.299 -10e-4,0 -10e-4,-10e-4 -0.002,0 -0.218,-0.048 -0.436,-0.097 -0.654,-0.145 -2.097,0.36 -3.667,2.118 -5.866,2.208 l 0.001,0 c -0.401,0.817 -0.917,1.504 -1.883,1.691 -0.33,0.899 -1.302,0.709 -1.915,1.128 -1.139,1.487 -2.018,0.482 -2.359,-0.507 -1.618,-4.69 -2.25,-4.926 1.697,-7.922 0.202,-0.152 0.39,-0.347 0.524,-0.559 1.235,-1.945 3.136,-2.98 5.167,-3.864 0.632,-0.275 1.359,-0.443 1.756,-1.109 l -0.571,-0.36 c -0.386,0.5 -0.944,0.395 -1.394,0.256 -1.925,-0.591 -3.746,-0.082 -5.576,0.415 0,0 0,0 0,0 0,0 0,0 0,0 -0.168,-0.032 -0.335,-0.065 -0.502,-0.096 0,-10e-4 0,-10e-4 0,-10e-4 -1.728,-0.521 -1.449,-1.61 -0.392,-2.358 1.547,-1.095 3.218,-2.355 5,-2.703 3.288,-0.642 6.224,-1.968 9.178,-3.394 3.267,-1.577 4.451,-1.069 6.156,2.111 0.853,1.591 1.048,3.401 2.144,4.927 2.711,3.775 6.439,6.767 8.446,11.084 0.346,0.744 1.022,0.534 1.796,0.236 2.241,-0.862 3.173,-2.682 4.113,-4.681 1.942,-4.129 4.135,-7.961 8.031,-10.83 7.503,-5.526 16.192,-4.443 21.5,3.386 8.563,12.628 13.133,26.318 11.165,41.854"
             style="fill:#e3e3e3;fill-opacity:1;fill-rule:nonzero;stroke:#000000;stroke-width:1.19999993;stroke-miterlimit:4;stroke-dasharray:none;stroke-opacity:1"
             id="path22"
             inkscape:connector-curvature="0" />
        </g>
        <g
           id="g24"
           transform="translate(260.9203,65.2015)"
           style="fill:#e3e3e3;fill-opacity:1;stroke:#000000;stroke-width:1.19999993;stroke-miterlimit:4;stroke-dasharray:none;stroke-opacity:1">
          <path
             d="M 0,0 C 0.012,-0.016 0.023,-0.034 0.035,-0.05 0.008,-0.039 -0.019,-0.034 -0.046,-0.023 -0.03,-0.007 -0.015,-0.013 0,0 Z M 15.979,2.162 C 15.977,2.121 15.964,2.08 15.968,2.038 16.269,1.33 16.571,0.623 17.547,0.724 c 0.035,0.055 0.05,0.116 0.084,0.171 0.007,-0.1 -0.013,-0.194 0.003,-0.296 0.448,-0.284 0.911,-0.286 1.388,-0.077 0.057,0.074 0.083,0.1 0.135,0.167 0.601,-0.638 1.196,-0.231 1.792,-0.018 0.024,-0.043 0.035,-0.057 0.06,-0.103 4.157,-2.44 5.359,-2.37 8.277,0.637 -0.858,-1.458 -1.538,-2.988 -1.916,-4.648 0.009,-0.427 0.095,-0.854 -0.016,-1.277 -0.03,-0.133 -0.048,-0.269 -0.063,-0.404 -0.531,-0.797 -0.637,-1.755 -0.773,-2.671 -0.106,-0.706 -0.396,-1.028 -0.992,-1.095 -0.045,0.044 -0.086,0.094 -0.134,0.135 -0.265,0.231 -0.52,0.472 -0.779,0.707 -0.438,0.386 -0.944,0.682 -1.479,0.883 -4.836,1.817 -7.768,5.856 -11.139,9.386 1.292,-0.414 2.626,-0.367 3.984,-0.059 z m 46.482,-10.04 c -0.903,7.125 -2.827,13.641 -7.828,18.962 -3.443,3.663 -5.558,8.056 -7.125,12.738 -1.828,5.463 -3.088,11.114 -5.538,16.371 -0.856,1.835 -2.126,3.368 -3.504,4.759 -5.383,5.432 -12.161,6.637 -19.43,6.027 C 7.41,50.005 -2.052,36.463 -1.047,26.112 -0.499,20.464 1.417,15.449 6.104,12.142 9.056,10.058 10.69,7.795 10.215,4.183 c 0,-10e-4 0,-10e-4 0,-10e-4 l 0,0 C 9.134,6.364 7.013,7.256 5.053,8.349 3.769,8.682 2.467,9.29 1.283,8.102 l 0,0 0,0 C 0.344,8.211 -0.475,8.19 -0.915,7.082 -1.38,5.91 -1.863,4.81 -0.645,3.808 -1.679,2.746 -1.209,-0.142 0.228,-1.02 1.148,-1.583 2.185,-1.956 3.169,-2.413 3.524,-3.675 3.022,-4.778 2.527,-5.883 l 10e-4,0 c -0.164,-0.793 0.196,-1.376 0.756,-1.879 0.473,-0.617 0.397,-1.621 1.341,-1.907 0,0 0.001,0 0.001,0.001 l 0,-0.001 c 1.659,-1.621 3.81,-2.464 5.905,-3.133 2.19,-0.7 2.356,-2.822 3.641,-4.109 0.073,-0.074 -0.315,-0.607 -0.494,-0.931 -0.232,-0.046 -0.464,-0.091 -0.696,-0.136 -0.452,-0.229 -1.043,-0.346 -1.333,-0.705 -1.755,-2.173 -3.855,-4.029 -5.514,-6.314 -0.821,-1.13 -1.517,-2.868 -3.596,-2.724 -1.819,0.126 -3.427,0.865 -5.131,1.325 -0.149,0.621 -0.575,0.974 -1.147,1.187 -0.133,0.383 -0.44,0.589 -0.781,0.76 l -0.002,0.002 c -1.545,1.539 -1.33,2.972 0.647,3.958 0.831,0.415 1.75,0.896 1.966,1.736 0.738,2.86 2.203,5.56 2.008,8.635 0.085,0.995 0.584,2.244 -0.24,2.875 -0.573,0.438 -0.894,-1.149 -1.685,-1.181 -2.687,-0.111 -2.726,-3.042 -4.475,-4.148 -0.187,-0.118 -0.225,-0.606 -0.194,-0.909 0.11,-1.104 -0.372,-1.741 -1.405,-2.074 -0.38,-0.123 -0.559,-0.506 -0.615,-0.913 0,0 0,0 -10e-4,0 l -0.103,-0.126 c -0.577,-0.261 -1.197,-0.475 -1.354,-1.208 l -0.04,-0.068 c -1.796,-2.102 -1.738,-4.472 -1.286,-6.899 -0.073,-0.255 10e-4,-0.571 0.168,-0.846 0.154,-3.181 4.508,-2.737 4.977,-5.784 0.115,-0.748 1.373,-1.063 2.278,-1.246 0.063,-0.013 0.13,-0.01 0.19,-0.031 1.373,-0.477 2.797,-0.322 4.207,-0.339 l 0,0 c 0.105,-1.432 -1.331,-2.156 -1.573,-3.429 -0.541,-0.634 -1.083,-1.268 -1.624,-1.902 -0.052,-0.22 -0.164,-0.354 -0.41,-0.297 0.227,-0.028 0.363,0.071 0.41,0.297 -0.141,-0.1 -0.283,-0.199 -0.423,-0.299 -10e-4,0 -10e-4,-10e-4 -0.002,0 -0.218,-0.048 -0.436,-0.097 -0.654,-0.145 -2.097,0.36 -3.667,2.118 -5.866,2.208 l 0.001,0 c -0.401,0.817 -0.917,1.504 -1.883,1.691 -0.33,0.899 -1.302,0.709 -1.915,1.128 -1.139,1.487 -2.018,0.482 -2.359,-0.507 -1.618,-4.69 -2.25,-4.926 1.697,-7.922 0.202,-0.152 0.39,-0.347 0.524,-0.559 1.235,-1.945 3.136,-2.98 5.167,-3.864 0.632,-0.275 1.359,-0.443 1.756,-1.109 l -0.571,-0.36 c -0.386,0.5 -0.944,0.395 -1.394,0.256 -1.925,-0.591 -3.746,-0.082 -5.576,0.415 0,0 0,0 0,0 0,0 0,0 0,0 -0.168,-0.032 -0.335,-0.065 -0.502,-0.096 0,-10e-4 0,-10e-4 0,-10e-4 -1.728,-0.521 -1.449,-1.61 -0.392,-2.358 1.547,-1.095 3.218,-2.355 5,-2.703 3.288,-0.642 6.224,-1.968 9.178,-3.394 3.267,-1.577 4.451,-1.069 6.156,2.111 0.853,1.591 1.048,3.401 2.144,4.927 2.711,3.775 6.439,6.767 8.446,11.084 0.346,0.744 1.022,0.534 1.796,0.236 2.241,-0.862 3.173,-2.682 4.113,-4.681 1.942,-4.129 4.135,-7.961 8.031,-10.83 7.503,-5.526 16.192,-4.443 21.5,3.386 8.563,12.628 13.133,26.318 11.165,41.854 z"
             style="fill:#e3e3e3;fill-opacity:1;stroke:#000000;stroke-width:1.19999993;stroke-linecap:butt;stroke-linejoin:round;stroke-miterlimit:4;stroke-dasharray:none;stroke-opacity:1"
             id="path26"
             inkscape:connector-curvature="0" />
        </g>
      </g>
    </g>
    <g
       transform="matrix(0.91874413,-0.39485342,-0.39485342,-0.91874413,90.558138,316.63615)"
       id="g8497">
      <path
         style="opacity:1;fill:#ffffff;fill-opacity:1;stroke:#000000;stroke-width:2.00000024;stroke-miterlimit:4;stroke-dasharray:none;stroke-opacity:1"
         d="m 139.80859,204.32087 -29.0834,0"
         id="path8499"
         inkscape:connector-curvature="0"
         sodipodi:nodetypes="cc" />
      <path
         sodipodi:type="star"
         style="opacity:1;fill:#000000;fill-opacity:1;stroke:#000000;stroke-width:1.18274856;stroke-linejoin:miter;stroke-miterlimit:4;stroke-dasharray:none;stroke-opacity:1"
         id="path8501"
         sodipodi:sides="3"
         sodipodi:cx="114.28571"
         sodipodi:cy="72.857132"
         sodipodi:r1="12.75005"
         sodipodi:r2="6.3750248"
         sodipodi:arg1="-1.0471976"
         sodipodi:arg2="0"
         inkscape:flatsided="false"
         inkscape:rounded="0"
         inkscape:randomized="0"
         d="m 120.66074,61.815265 0,11.041867 0,11.041866 -9.56254,-5.520933 -9.56254,-5.520932 9.56254,-5.520934 z"
         inkscape:transform-center-x="-2.0829597"
         transform="matrix(-0.65347335,0,0,0.45513417,212.26845,171.16109)" />
    </g>
  </g>
</svg>
