<?xml version="1.0"?><svg width="205" height="284" xmlns="http://www.w3.org/2000/svg">
 <metadata id="metadata7">image/svg+xml</metadata>
 <g>
  <title>Layer 1</title>
  <path fill="none" fill-rule="evenodd" stroke="#000000" stroke-width="3" stroke-miterlimit="4" d="m4.34099,280.605988c8.45021,-30.034988 26.72081,-56.166992 47.477209,-97.47998c6.782001,-13.499008 11.026802,-36.267014 10.101501,-51.518005c0,0 -8.869202,-7.652 -11.616802,-11.363998c-5.102497,-6.894005 -11.076698,-16.485001 -13.636997,-24.4963c-2.923801,-9.148804 -4.317501,-22.247002 -3.5355,-31.819805c0.730198,-8.9408 3.2561,-21.226898 8.0812,-28.789299c5.259697,-8.243799 16.1026,-16.6448 24.748688,-21.2132c8.742111,-4.61918 21.961311,-7.83114 31.819809,-8.58633c9.576904,-0.7336 22.521904,1.12903 31.819908,3.535531c10.651993,2.7568 24.852997,8.1718 33.334991,15.152299c20.462997,17.880301 20.248001,41.193003 21.718002,66.165003c1.462006,5.930496 6.492004,12.750099 10.102005,17.678101c1.584,2.161995 4.863998,4.167 6.060989,6.565987c0.756012,1.516014 1.658005,3.990013 1.01001,5.555c-0.917007,2.214012 -4.477005,3.373009 -6.56601,4.546013c-1.300995,0.730988 -3.814987,0.718987 -4.54599,2.019997c-1.720001,3.064995 2.850998,8.036003 0.757996,10.860008c-1.098007,1.479996 -5.304001,1.766998 -5.304001,1.766998c0,0 5.199997,6.592987 3.031006,6.565994c-1.210007,-0.014008 -4.882004,6.119003 -4.041,8.080994c0,0 2.487,5.902008 2.526001,8.587006c0.041992,2.975998 -0.472,7.440994 -2.526001,9.596008c-2.082001,2.185989 -6.682007,2.242996 -9.596008,3.030991c-4.649002,1.255997 -12.147003,0.518005 -17.172989,1.766998c-3.331009,0.828003 -7.70401,2.460999 -10.606003,4.294006c-2.085999,1.317001 -5.046005,3.306992 -6.061005,5.554993c-3.182007,7.044006 0.412994,18.085007 -0.505005,25.759003c-0.498001,4.162003 -3.542999,9.477997 -3.030991,13.637009c0.621002,5.044998 4.649002,10.997986 7.575989,15.153c2.902008,4.116989 8.524002,8.146988 11.616989,12.121994c4.390015,5.639984 8.519012,14.354004 12.627014,20.203003c1.55101,2.207001 5.556,7.070984 5.556,7.070984l-171.221006,0z" id="path2396"/>
 </g>
</svg>